<svg xmlns="http://www.w3.org/2000/svg" width="42.049" height="42.389" viewBox="0 0 42.049 42.389">
  <g id="Capa_x0020_1" transform="translate(0 0)">
    <g id="_2690904644672" transform="translate(0 0)">
      <path id="Trazado_928" data-name="Trazado 928" d="M33.893,27.772h-22.2c-1.85,0-1.8-1.463-1.922-3.285-.173-2.577-.754-6.6-1-9.416-.125-1.437-.459-3.547-.459-4.839H39.1L36.092,24.216c-.156.754-.288,1.593-.5,2.333a1.5,1.5,0,0,1-1.7,1.223ZM0,1.279a1.452,1.452,0,0,0,1.548,1.65c.975,0,1.953,0,2.928,0,.006.027,2.334,21.21,2.47,23.293.166,2.55,1.985,4.48,4.108,4.48H34.533a4.378,4.378,0,0,0,3.683-2.621c.427-1.017,3.045-13.625,3.435-15.568.244-1.216.655-2.27.181-3.453a2.934,2.934,0,0,0-2.548-1.745H7.948l-.663-6.19A1.518,1.518,0,0,0,6.03,0H1.279A1.5,1.5,0,0,0,0,1.279Z" transform="translate(0 0)" fill-rule="evenodd"/>
      <path id="Trazado_929" data-name="Trazado 929" d="M203.473,773.257a1.545,1.545,0,0,1,1.388-1.531,1.442,1.442,0,0,1,.148,2.879A1.528,1.528,0,0,1,203.473,773.257Zm-2.923-.457a4.347,4.347,0,0,0,2.436,4.325,4.3,4.3,0,0,0,2.315.426,4.411,4.411,0,0,0,4.02-4.02V772.8a4.411,4.411,0,0,0-4.02-4.02h-.731A4.411,4.411,0,0,0,200.55,772.8Z" transform="translate(-191.78 -735.161)" fill-rule="evenodd"/>
      <path id="Trazado_930" data-name="Trazado 930" d="M604.583,773.257a1.545,1.545,0,0,1,1.388-1.531,1.442,1.442,0,0,1,.148,2.879,1.467,1.467,0,0,1-1.35-.8c-.024-.05-.181-.518-.185-.546Zm-2.923-.457a4.418,4.418,0,0,0,1.258,3.493l1.178.831a4.3,4.3,0,0,0,2.315.426,4.411,4.411,0,0,0,4.02-4.02V772.8a4.411,4.411,0,0,0-4.02-4.02h-.731A4.411,4.411,0,0,0,601.66,772.8Z" transform="translate(-575.349 -735.161)" fill-rule="evenodd"/>
    </g>
  </g>
</svg>
