<svg xmlns="http://www.w3.org/2000/svg" width="38.191" height="43.882" viewBox="0 0 38.191 43.882">
  <g id="Grupo_306" data-name="Grupo 306" transform="translate(-183 -35.891)">
    <g id="Capa_x0020_1" transform="translate(2045.212 24.498)">
      <path id="Trazado_890" data-name="Trazado 890" d="M31.338,28.391a2.282,2.282,0,0,1,3.882-1.6c2.1,2.111-1.093,5.319-3.2,3.208a2.682,2.682,0,0,1-.687-1.6ZM19.154,16.159a2.282,2.282,0,0,1,3.882-1.6c2.1,2.111-1.093,5.319-3.2,3.208a2.682,2.682,0,0,1-.687-1.6ZM32.1.39V3.926H11.063A6.662,6.662,0,0,0,7.131,5.521a2.655,2.655,0,0,0-.814.807A6.868,6.868,0,0,0,5.9,14.746a6.539,6.539,0,0,0,2.543,2.225,7.051,7.051,0,0,0,3.95.717h4.759a4.511,4.511,0,0,0,3.9,3.058h.761a4.512,4.512,0,0,0,3.9-3.058c2.407,0,6.191-.638,6.378,3.153.05,1.028,0,2.206,0,3.25a4.512,4.512,0,0,0-3.046,3.918v.764A4.523,4.523,0,0,0,32.1,32.693c0,1.9.11,2.888-.877,3.9-1.06,1.082-1.868.977-3.881.977H20.106c-1.933,0-1.713-.027-1.713,2.294a.717.717,0,0,0,.761.764h10.28a6.123,6.123,0,0,0,5.56-4.643,15.6,15.6,0,0,0,.151-3.289,4.522,4.522,0,0,0,3.046-3.918V28.01a4.524,4.524,0,0,0-3.046-3.918c0-3.138.509-5.366-1.785-7.669s-4.534-1.792-7.639-1.792a4.511,4.511,0,0,0-3.9-3.058h-.761a4.5,4.5,0,0,0-3.9,3.058,47.151,47.151,0,0,1-6.448-.12,3.8,3.8,0,0,1-.585-7.228,4.706,4.706,0,0,1,1.7-.3H32.1v3.536c0,.4.353.382.571.382a23.172,23.172,0,0,0,2.784-2.652l2.736-2.8L35.5,2.709a23.8,23.8,0,0,0-2.832-2.7c-.218,0-.571-.015-.571.382ZM2.489,34.875l4.136,4.177a4.685,4.685,0,0,0,.465-.194L11,37c.169-.079.274-.111.44-.2l6.1-2.892a21.488,21.488,0,0,0,2.582-1.279C20.7,31.923,19.8,31.3,19.1,30.6l-8.883-8.918c-.219-.22-.436-.527-.842-.527-.665,0-.765.662-1.139,1.405-.67,1.332-1.584,3.37-2.245,4.8L4.12,31.318c-.192.467-1.557,3.239-1.631,3.557ZM7.76,40.118c.058.219.276.35.427.5l2.928,2.941a1.022,1.022,0,0,0,.556.33h.193c.36-.055.67-.407.984-.723l1.708-1.715c1.185-1.19.843-1.236-.366-2.45a15.391,15.391,0,0,1-1.257-1.286,2.639,2.639,0,0,0-.651.278L7.76,40.118ZM0,37.57c0,.563.394.812.817,1.237l1.9,1.911c.286.287.7.821,1.135.821.461,0,.714-.4.964-.649a8.484,8.484,0,0,0,.793-.821L1.476,35.892a8.222,8.222,0,0,0-.806.784C.472,36.876,0,37.235,0,37.57Z" transform="translate(-1862.212 11.384)" fill-rule="evenodd"/>
    </g>
  </g>
</svg>
