<svg xmlns="http://www.w3.org/2000/svg" width="60.85" height="39.605" viewBox="0 0 60.85 39.605">
  <g id="Capa_x0020_1" transform="translate(0 -3.64)">
    <g id="_1634207196208" transform="translate(0 3.64)">
      <path id="Trazado_6" data-name="Trazado 6" d="M18.778,389.752a7.178,7.178,0,0,1,.632-2.66,7.3,7.3,0,0,1,3.406-3.442,6.364,6.364,0,0,1,2.736-.7H35.3a5.9,5.9,0,0,1,2.655.664,7.079,7.079,0,0,1,4.119,6.021V392.8H18.777v-3.05Zm42.072-4.574v3.2c-.133,1.085-.581,1.84-1.9,1.84H45.756v4.222c0,1.506-1.116,1.994-2.5,1.994H17.589c-1.4,0-2.5-.568-2.5-1.994v-4.1H2.139a2.115,2.115,0,0,1-1.462-.434A1.771,1.771,0,0,1,0,388.7v-3.519c0-2.852,2.3-5.5,4.919-6.521a10.018,10.018,0,0,1,3.281-.515c3.043,0,7.6-.35,9.982.7a8.693,8.693,0,0,1,2.5,1.758c.516-.119,1.427-.649,2.422-.893,2.741-.673,8.5-.4,11.72-.4a11.2,11.2,0,0,1,5.229,1.29c1.091-.721,2.511-2.463,5.229-2.463h8.438a7.569,7.569,0,0,1,7.131,7.037Zm-17.827-2.228a3.844,3.844,0,0,1,3.09-1.29h6.893c3.011,0,4.278,2.051,4.278,4.926H45.4c-.52,0-.453-1.144-1.7-2.783-.234-.309-.5-.581-.681-.853ZM15.688,386.7H3.566c0-1.572.12-2.633,1.1-3.609a3.8,3.8,0,0,1,3.063-1.317h7.25a3.689,3.689,0,0,1,2.852,1.173c-.2.3-.382.443-.62.8a9.792,9.792,0,0,0-1.52,2.957Z" transform="translate(0 -356.833)" fill-rule="evenodd"/>
      <path id="Trazado_7" data-name="Trazado 7" d="M309.365,65.772a6.2,6.2,0,0,1,10.526-4.428c4.323,4.349.621,10.643-3.841,10.643-1.821,0-3.836-.455-5-1.923a6.193,6.193,0,0,1-1.688-4.293Zm-3.635,0a13.2,13.2,0,0,0,.282,2.18A9.808,9.808,0,0,0,324.5,69.878c2.871-5.782-.948-13.5-8.823-13.92a12.676,12.676,0,0,0-2.154.245,9.9,9.9,0,0,0-7.485,7.291,13.228,13.228,0,0,0-.3,2.277Z" transform="translate(-285.156 -55.956)" fill-rule="evenodd"/>
      <path id="Trazado_8" data-name="Trazado 8" d="M62.841,133.164a3.589,3.589,0,0,1-2.981-1.124,3.88,3.88,0,1,1,2.981,1.124Zm-7.74-3.87a7.482,7.482,0,0,0,14.27,3.129,5.377,5.377,0,0,0,.5-1.376,7.48,7.48,0,0,0-10.232-8.59,7.641,7.641,0,0,0-3.8,3.707,7.3,7.3,0,0,0-.741,3.129Z" transform="translate(-51.465 -117.484)" fill-rule="evenodd"/>
      <path id="Trazado_9" data-name="Trazado 9" d="M635.318,133.155a3.879,3.879,0,1,1,2.5-1.256,3.826,3.826,0,0,1-2.5,1.257Zm-7.857-3.988c0,7.015,8.234,9.934,12.578,5.542,1.89-1.91,2.316-3.228,2.316-5.894a7.31,7.31,0,0,0-2.314-4.958,7.4,7.4,0,0,0-8.2-1.338,8.545,8.545,0,0,0-1.118.641,7.324,7.324,0,0,0-3.258,6.007Z" transform="translate(-585.258 -117.475)" fill-rule="evenodd"/>
    </g>
  </g>
</svg>
