<svg xmlns="http://www.w3.org/2000/svg" width="42.762" height="42.766" viewBox="0 0 42.762 42.766">
  <g id="Capa_x0020_1" transform="translate(-0.01 0.01)">
    <path id="Trazado_911" data-name="Trazado 911" d="M1.759,1.58V8.347a1.662,1.662,0,0,0,1.67,1.586h6.6a1.7,1.7,0,0,0,.137-3.393,26.885,26.885,0,0,0-3.142-.03,9.982,9.982,0,0,1,3.351-2.243,12.24,12.24,0,0,1,4.751-.93H27.569a11.621,11.621,0,0,1,8.038,2.987,10.285,10.285,0,0,1,1.734,1.939,11.484,11.484,0,0,1,2.087,6.85V27.64a11.728,11.728,0,0,1-1.472,5.875,7.877,7.877,0,0,1-.581.922l-1.355,1.651a4.2,4.2,0,0,0-.372.3,4.973,4.973,0,0,1-.383.368,11.782,11.782,0,0,1-7.78,2.66H15.292a11.625,11.625,0,0,1-7.685-2.588A11.8,11.8,0,0,1,4.769,33.4a11.086,11.086,0,0,1-1.12-2.975c-.664-2.892.034-8.922-.49-9.867a1.7,1.7,0,0,0-3.15.562v7.351a14.352,14.352,0,0,0,1.362,5.738c.213.421.364.751.6,1.15A14.811,14.811,0,0,0,8.5,41.367a14.407,14.407,0,0,0,5.791,1.389h14.2a14.352,14.352,0,0,0,5.738-1.362c.421-.213.751-.364,1.15-.6.421-.254.725-.455,1.116-.721a13.728,13.728,0,0,0,1.958-1.636,14.8,14.8,0,0,0,4.322-9.958v-14.2A14.352,14.352,0,0,0,41.41,8.54c-.213-.421-.364-.751-.6-1.15a14.563,14.563,0,0,0-4.262-4.675,17.445,17.445,0,0,0-2.262-1.332A14.3,14.3,0,0,0,28.491-.01h-14.2a14.162,14.162,0,0,0-7.3,2.22,9.113,9.113,0,0,0-.941.645l-.941.729a11.1,11.1,0,0,0-.057-2.452A1.628,1.628,0,0,0,3.611-.01H3.293A1.587,1.587,0,0,0,1.767,1.576Z" transform="translate(0)" fill-rule="evenodd"/>
    <g id="Layer_x0020_1" transform="translate(10.508 12.515)">
      <path id="Trazado_1775" data-name="Trazado 1775" d="M1.771,16.863V4.167a2.509,2.509,0,0,1,.375-1.741,1.765,1.765,0,0,1,1.463-.653H19.535A1.733,1.733,0,0,1,21.372,3.61v8.8c0,2.333-2.555,1.838-4.176,1.838H8.175c-3.084,0-2.522-.266-4.669,1.344l-1.265.962a1.654,1.654,0,0,1-.469.31ZM-.011,3.22V17.308a1.717,1.717,0,0,0,2.967.962c.32-.24,2.7-2.083,2.947-2.176.405-.155,12.153-.069,13.631-.067a3.211,3.211,0,0,0,1.441-.23,3.626,3.626,0,0,0,1.809-1.644,3.194,3.194,0,0,0,.37-1.356V3.22a3.238,3.238,0,0,0-1.016-2.214A3.238,3.238,0,0,0,19.924-.01H3.219a3.5,3.5,0,0,0-2.9,1.948A3.158,3.158,0,0,0-.011,3.22Zm14.2,4.845a.9.9,0,0,0,1.782.167V7.953a.9.9,0,0,0-1.782.111ZM7.173,7.953v.278a.9.9,0,1,0,0-.278Zm3.564,0v.278a.9.9,0,1,0,0-.278Z" transform="translate(0.011 0.01)" fill-rule="evenodd"/>
    </g>
  </g>
</svg>
