<svg xmlns="http://www.w3.org/2000/svg" width="64.269" height="64.284" viewBox="0 0 64.269 64.284">
  <g id="Capa_x0020_1" transform="translate(0 0.01)">
    <g id="_2690685648512" transform="translate(0 -0.01)">
      <g id="Grupo_270" data-name="Grupo 270" transform="translate(0 0)">
        <g id="Grupo_269" data-name="Grupo 269">
          <path id="Trazado_909" data-name="Trazado 909" d="M55.564,135.941H30.515V110.892a1.814,1.814,0,0,0-1.822-1.822,28.693,28.693,0,1,0,28.693,28.693,1.832,1.832,0,0,0-1.822-1.822ZM28.693,162.812a25.048,25.048,0,0,1-1.822-50.031v24.981a1.815,1.815,0,0,0,1.822,1.822H53.675A25.073,25.073,0,0,1,28.693,162.812Z" transform="translate(0 -102.173)"/>
          <path id="Trazado_910" data-name="Trazado 910" d="M564.335,28.589A28.689,28.689,0,0,0,535.642-.01a1.814,1.814,0,0,0-1.822,1.822V28.683a1.815,1.815,0,0,0,1.822,1.822h26.871a1.814,1.814,0,0,0,1.822-1.822v-.094Zm-26.871-1.714V3.715a25.065,25.065,0,0,1,23.159,23.159h-23.16Z" transform="translate(-500.066 0.01)"/>
        </g>
      </g>
    </g>
  </g>
</svg>
