<svg xmlns="http://www.w3.org/2000/svg" width="60.93" height="61.655" viewBox="0 0 60.93 61.655">
  <g id="Capa_x0020_1" transform="translate(0.001 -0.08)">
    <path id="Trazado_1773" data-name="Trazado 1773" d="M28.565,57.13A28.565,28.565,0,0,1,0,28.565C0,12.789,44.341,57.13,28.565,57.13Z" transform="translate(8.859 0)" fill="#fff212"/>
    <g id="_2690114588176" transform="translate(-0.001 0.08)">
      <path id="Trazado_901" data-name="Trazado 901" d="M20.685,22.45c-.586-.574-.249-1.214.189-1.662a28.892,28.892,0,0,1,4.651-1.6l7.859-2.443c4.234-1.248,8.28-2.6,12.512-3.841l3.1-1c3.149-1.069,7.683-2.29,10.961-3.363.542-.178.976-.351,1.551-.5l7.755-2.391c1.348-.365,1.2-.587,2.077.273.476.466-.353,2.579-.556,3.223-.344,1.09-.542,2.138-.894,3.226-.819,2.535-1.569,5.782-2.334,8.118-.2.605-.289,1.049-.467,1.665l-1.4,4.788c-1.039,3.294-2.2,8.224-3.262,11.448-.361,1.1-.6,2.119-.9,3.226-.3,1.122-4.066,14.416-4.342,14.764a1.354,1.354,0,0,1-1.58.24c-.676-.661-8.81-20.9-9.576-22.1,2.326-2.377,6.867-6.824,8.932-9.123a2.211,2.211,0,1,0-3.15-3.085c-2.183,2.04-6.658,6.81-8.927,9.129l-5.523-2.236c-1.888-.79-3.691-1.437-5.523-2.209-1.263-.532-10.839-4.243-11.15-4.548ZM17.5,25.285c1.489,1.457,1.562,1.2,3.55,2.037l5.836,2.339c1.962.777,14.567,5.72,14.9,6.048s4.459,10.318,5.062,11.669l2.511,5.886c.426,1.013.769,1.893,1.216,2.892.905,2.027.66,2.142,2.159,3.608A5.448,5.448,0,0,0,60.3,59.37a8.593,8.593,0,0,0,1.625-3.545l6.059-21.231c.223-.692.311-1.111.5-1.769l4.6-16.028c.391-1.2.653-2.333,1-3.538.466-1.616,1.829-5.651,1.723-7.074a5.332,5.332,0,0,0-5.14-5.121c-1.515-.108-6.947,1.72-8.793,2.369L26.51,14.4c-.593.2-1.132.317-1.758.537s-1.138.317-1.758.535c-1.7.6-4,.945-5.37,2.342a5.518,5.518,0,0,0-.126,7.471Z" transform="translate(-14.882 -1.059)" fill-rule="evenodd"/>
      <path id="Trazado_902" data-name="Trazado 902" d="M4.051,442.644l4.925-5.034c2.558-2.614-.814-5.461-2.941-3.288L.7,439.775C-1.369,441.889,1.559,445.19,4.051,442.644Z" transform="translate(0.001 -400.796)" fill-rule="evenodd"/>
      <path id="Trazado_903" data-name="Trazado 903" d="M258.891,692.381l5.336-5.452c2.127-2.173-.794-5.482-3.351-2.869l-4.72,4.824c-2.932,3,.783,5.493,2.735,3.5Z" transform="translate(-235.75 -631.443)" fill-rule="evenodd"/>
      <path id="Trazado_904" data-name="Trazado 904" d="M175.91,518.66c1.026,1,2.218,1.3,3.424.067l5.233-5.348a2.206,2.206,0,1,0-3.145-3.078l-5.233,5.348a2.218,2.218,0,0,0-.279,3.012Z" transform="translate(-162.146 -471.004)" fill-rule="evenodd"/>
    </g>
    <g id="_2690114588176-2" data-name="_2690114588176" transform="translate(-0.001 0.08)">
      <path id="Trazado_901-2" data-name="Trazado 901" d="M20.685,22.45c-.586-.574-.249-1.214.189-1.662a28.892,28.892,0,0,1,4.651-1.6l7.859-2.443c4.234-1.248,8.28-2.6,12.512-3.841l3.1-1c3.149-1.069,7.683-2.29,10.961-3.363.542-.178.976-.351,1.551-.5l7.755-2.391c1.348-.365,1.2-.587,2.077.273.476.466-.353,2.579-.556,3.223-.344,1.09-.542,2.138-.894,3.226-.819,2.535-1.569,5.782-2.334,8.118-.2.605-.289,1.049-.467,1.665l-1.4,4.788c-1.039,3.294-2.2,8.224-3.262,11.448-.361,1.1-.6,2.119-.9,3.226-.3,1.122-4.066,14.416-4.342,14.764a1.354,1.354,0,0,1-1.58.24c-.676-.661-8.81-20.9-9.576-22.1,2.326-2.377,6.867-6.824,8.932-9.123a2.211,2.211,0,1,0-3.15-3.085c-2.183,2.04-6.658,6.81-8.927,9.129l-5.523-2.236c-1.888-.79-3.691-1.437-5.523-2.209-1.263-.532-10.839-4.243-11.15-4.548ZM17.5,25.285c1.489,1.457,1.562,1.2,3.55,2.037l5.836,2.339c1.962.777,14.567,5.72,14.9,6.048s4.459,10.318,5.062,11.669l2.511,5.886c.426,1.013.769,1.893,1.216,2.892.905,2.027.66,2.142,2.159,3.608A5.448,5.448,0,0,0,60.3,59.37a8.593,8.593,0,0,0,1.625-3.545l6.059-21.231c.223-.692.311-1.111.5-1.769l4.6-16.028c.391-1.2.653-2.333,1-3.538.466-1.616,1.829-5.651,1.723-7.074a5.332,5.332,0,0,0-5.14-5.121c-1.515-.108-6.947,1.72-8.793,2.369L26.51,14.4c-.593.2-1.132.317-1.758.537s-1.138.317-1.758.535c-1.7.6-4,.945-5.37,2.342a5.518,5.518,0,0,0-.126,7.471Z" transform="translate(-14.882 -1.059)" fill-rule="evenodd"/>
      <path id="Trazado_902-2" data-name="Trazado 902" d="M4.051,442.644l4.925-5.034c2.558-2.614-.814-5.461-2.941-3.288L.7,439.775C-1.369,441.889,1.559,445.19,4.051,442.644Z" transform="translate(0.001 -400.796)" fill-rule="evenodd"/>
      <path id="Trazado_903-2" data-name="Trazado 903" d="M258.891,692.381l5.336-5.452c2.127-2.173-.794-5.482-3.351-2.869l-4.72,4.824c-2.932,3,.783,5.493,2.735,3.5Z" transform="translate(-235.75 -631.443)" fill-rule="evenodd"/>
      <path id="Trazado_904-2" data-name="Trazado 904" d="M175.91,518.66c1.026,1,2.218,1.3,3.424.067l5.233-5.348a2.206,2.206,0,1,0-3.145-3.078l-5.233,5.348a2.218,2.218,0,0,0-.279,3.012Z" transform="translate(-162.146 -471.004)" fill-rule="evenodd"/>
    </g>
    <g id="_2690114588176-3" data-name="_2690114588176" transform="translate(-0.001 0.08)">
      <path id="Trazado_901-3" data-name="Trazado 901" d="M20.685,22.45c-.586-.574-.249-1.214.189-1.662a28.892,28.892,0,0,1,4.651-1.6l7.859-2.443c4.234-1.248,8.28-2.6,12.512-3.841l3.1-1c3.149-1.069,7.683-2.29,10.961-3.363.542-.178.976-.351,1.551-.5l7.755-2.391c1.348-.365,1.2-.587,2.077.273.476.466-.353,2.579-.556,3.223-.344,1.09-.542,2.138-.894,3.226-.819,2.535-1.569,5.782-2.334,8.118-.2.605-.289,1.049-.467,1.665l-1.4,4.788c-1.039,3.294-2.2,8.224-3.262,11.448-.361,1.1-.6,2.119-.9,3.226-.3,1.122-4.066,14.416-4.342,14.764a1.354,1.354,0,0,1-1.58.24c-.676-.661-8.81-20.9-9.576-22.1,2.326-2.377,6.867-6.824,8.932-9.123a2.211,2.211,0,1,0-3.15-3.085c-2.183,2.04-6.658,6.81-8.927,9.129l-5.523-2.236c-1.888-.79-3.691-1.437-5.523-2.209-1.263-.532-10.839-4.243-11.15-4.548ZM17.5,25.285c1.489,1.457,1.562,1.2,3.55,2.037l5.836,2.339c1.962.777,14.567,5.72,14.9,6.048s4.459,10.318,5.062,11.669l2.511,5.886c.426,1.013.769,1.893,1.216,2.892.905,2.027.66,2.142,2.159,3.608A5.448,5.448,0,0,0,60.3,59.37a8.593,8.593,0,0,0,1.625-3.545l6.059-21.231c.223-.692.311-1.111.5-1.769l4.6-16.028c.391-1.2.653-2.333,1-3.538.466-1.616,1.829-5.651,1.723-7.074a5.332,5.332,0,0,0-5.14-5.121c-1.515-.108-6.947,1.72-8.793,2.369L26.51,14.4c-.593.2-1.132.317-1.758.537s-1.138.317-1.758.535c-1.7.6-4,.945-5.37,2.342a5.518,5.518,0,0,0-.126,7.471Z" transform="translate(-14.882 -1.059)" fill-rule="evenodd"/>
      <path id="Trazado_902-3" data-name="Trazado 902" d="M4.051,442.644l4.925-5.034c2.558-2.614-.814-5.461-2.941-3.288L.7,439.775C-1.369,441.889,1.559,445.19,4.051,442.644Z" transform="translate(0.001 -400.796)" fill-rule="evenodd"/>
      <path id="Trazado_903-3" data-name="Trazado 903" d="M258.891,692.381l5.336-5.452c2.127-2.173-.794-5.482-3.351-2.869l-4.72,4.824c-2.932,3,.783,5.493,2.735,3.5Z" transform="translate(-235.75 -631.443)" fill-rule="evenodd"/>
      <path id="Trazado_904-3" data-name="Trazado 904" d="M175.91,518.66c1.026,1,2.218,1.3,3.424.067l5.233-5.348a2.206,2.206,0,1,0-3.145-3.078l-5.233,5.348a2.218,2.218,0,0,0-.279,3.012Z" transform="translate(-162.146 -471.004)" fill-rule="evenodd"/>
    </g>
  </g>
</svg>
