<svg xmlns="http://www.w3.org/2000/svg" width="68.582" height="68.582" viewBox="0 0 68.582 68.582">
  <g id="Capa_x0020_1" transform="translate(0.01)">
    <g id="_2690779153824" transform="translate(-0.01)">
      <path id="Trazado_924" data-name="Trazado 924" d="M10.707,16.074c0-1.352,1.363-2.368,2.11-3.114.692-.692,1.916-2.244,3.114-2.244,2.5,0,2.765,3.349,5.492,3.349a37.263,37.263,0,0,0,3.571-1.653c1.2-.533,3.471-1.171,3.846-1.378,2.129-1.178.144-4.674,1.582-6.187,1.172-1.232,3.4-.828,5.869-.828,1.7,0,2.418,1.211,2.416,2.808-.007,5.828.223,3.146,6.606,6.387.875.445,1.1.85,2.1.85,2.176,0,2.929-3.349,5.09-3.349,1.352,0,2.368,1.363,3.114,2.11.692.692,2.244,1.916,2.244,3.114,0,2.5-3.349,2.765-3.349,5.492A37.264,37.264,0,0,0,56.162,25c.577,1.294,1.148,3.473,1.427,3.931,1.454,2.4,6.966-1.068,6.966,3.615,0,3.112.6,6.1-2.54,6.167-2,.046-3.622-.4-4.427.932-.095.157-1.265,3.774-2.229,5.673-.445.875-.85,1.1-.85,2.1,0,2.176,3.349,2.929,3.349,5.09,0,1.352-1.363,2.368-2.11,3.114-.692.692-1.916,2.244-3.114,2.244-2.5,0-2.765-3.349-5.492-3.349a37.263,37.263,0,0,0-3.571,1.653,17.6,17.6,0,0,1-1.937.742c-3.264,1.03-2.893.81-2.925,4.977-.026,3.286-2.917,2.673-6.167,2.673a2.377,2.377,0,0,1-2.684-2.54c-.093-4.059.534-4.054-2.825-5.079l-3.78-1.577c-.875-.445-1.1-.85-2.1-.85-2.147,0-2.951,3.349-5.09,3.349-1.352,0-2.368-1.363-3.114-2.11-.692-.692-2.244-1.916-2.244-3.114,0-2.5,3.349-2.765,3.349-5.492A37.263,37.263,0,0,0,12.4,43.578c-.586-1.315-1.119-3.374-1.378-3.846-.743-1.351-2.246-1.019-4.206-1.017-3.5,0-2.808-2.876-2.808-6.434A2.487,2.487,0,0,1,4.771,30.5c1.556-1.578,5.057.513,6.254-1.649.2-.359.846-2.652,1.378-3.846.3-.672.478-1.1.8-1.743.445-.875.85-1.1.85-2.1,0-2.176-3.349-2.929-3.349-5.09ZM31.6,0h5.3a6.356,6.356,0,0,1,4.511,2.376,6.186,6.186,0,0,1,1.147,2.336,13.178,13.178,0,0,1,.291,3.057A26.315,26.315,0,0,1,47.006,9.51c.936-.627,2.319-2.813,4.956-2.813,3.529,0,4.054.773,6.6,3.316,1.264,1.263,3.316,2.99,3.316,5.392,0,1.735.048,2.543-.989,4.1-.6.9-1.328,1.32-1.824,2.06A27.248,27.248,0,0,1,60.8,25.718a12.792,12.792,0,0,1,3.169.313c2.517.839,4.6,2.946,4.6,5.58V36.8a6.136,6.136,0,0,1-2.388,4.611c-1.394,1.107-2.926,1.451-5.38,1.451a27.31,27.31,0,0,1-1.741,4.152c.627.936,2.813,2.319,2.813,4.956,0,3.529-.773,4.054-3.316,6.6-1.263,1.264-2.99,3.316-5.391,3.316-4.49,0-4.1-1.433-6.162-2.813a26.339,26.339,0,0,1-4.152,1.741c0,2.454-.343,3.987-1.451,5.38a6.26,6.26,0,0,1-4.443,2.388H31.77a6.136,6.136,0,0,1-4.611-2.388c-1.145-1.441-1.451-2.862-1.451-5.38-.327-.157-.754-.265-1.089-.385l-3.064-1.356c-.936.627-2.319,2.813-4.956,2.813-3.529,0-4.054-.773-6.6-3.316-1.264-1.263-3.316-2.99-3.316-5.392,0-1.736-.048-2.543.989-4.1.6-.9,1.328-1.32,1.824-2.06-.356-.672-.623-1.284-.942-2.005a16.7,16.7,0,0,1-.8-2.147c-2.454,0-3.987-.343-5.38-1.451A6.26,6.26,0,0,1-.01,36.971V31.627a6.393,6.393,0,0,1,2.378-4.468c1.392-1.248,3.458-1.44,5.392-1.44A26.843,26.843,0,0,1,9.5,21.567c-.5-.741-1.223-1.158-1.824-2.06a5.367,5.367,0,0,1-.989-2.9c0-3.529.773-4.054,3.316-6.6C11.267,8.75,12.993,6.7,15.395,6.7c4.49,0,4.1,1.433,6.161,2.813a19.816,19.816,0,0,1,2.009-.938c.354-.141.675-.283,1.055-.418.335-.12.762-.228,1.089-.385A12.792,12.792,0,0,1,26.022,4.6a5.854,5.854,0,0,1,1.127-2.222A6.339,6.339,0,0,1,31.6,0Z" transform="translate(0.01)" fill-rule="evenodd"/>
      <path id="Trazado_925" data-name="Trazado 925" d="M314.863,326.262a10.6,10.6,0,0,1,3.181-8.071c7.094-7.094,18.519-1.4,18.519,7.267a10.6,10.6,0,0,1-3.181,8.071C326.288,340.622,314.863,334.926,314.863,326.262Zm-4.152-.4a16.211,16.211,0,0,0,.427,3.324,14.845,14.845,0,0,0,2.3,5.2,11.146,11.146,0,0,0,1.722,2.029,14.563,14.563,0,0,0,7.225,4.027,14.011,14.011,0,0,0,6.665.017,14.624,14.624,0,0,0,7.207-4.044,11.146,11.146,0,0,0,1.722-2.029,12.645,12.645,0,0,0,1.355-2.395,15.82,15.82,0,0,0,.95-2.8,14.972,14.972,0,0,0-6.056-15.595,13.449,13.449,0,0,0-2.375-1.375,14.543,14.543,0,0,0-12.269.02,15.119,15.119,0,0,0-8.878,13.626Z" transform="translate(-291.421 -291.569)" fill-rule="evenodd"/>
    </g>
  </g>
</svg>
