<svg xmlns="http://www.w3.org/2000/svg" viewBox="0 0 44.026 53.16">
  <g fill-rule="evenodd">
    <path d="M4.159 40.183V12.98a8.4 8.4 0 0 1 8.824-8.824H31.05a8.4 8.4 0 0 1 8.824 8.824v27.2a8.4 8.4 0 0 1-8.824 8.83H12.983a8.4 8.4 0 0 1-8.824-8.824ZM.007 11.838v29.487c0 6.042 5.8 11.835 11.835 11.835h20.35a11.82 11.82 0 0 0 6.562-2.262 12.482 12.482 0 0 0 5.273-9.572V11.838a12 12 0 0 0-3.66-8.178A12 12 0 0 0 32.188 0h-20.35A11.911 11.911 0 0 0 3.66 3.66 11.883 11.883 0 0 0 0 11.838Z" data-name="Trazado 517"/>
    <path d="M20.564 34.89c-1.219 0-2.448-1.567-3.453-2.571-.643-.643-2.42-2.726-3.3-2.726h-.622a2.133 2.133 0 0 0-1.767 1.763c0 1.567.358 1.553 1.686 2.881 2.975 2.975 3.973 4.8 7.865 4.8a6.561 6.561 0 0 0 3.327-1.138c1.187-.861 5.41-5.364 6.875-6.829.65-.65 2.779-2.469 2.779-3.348V27.1a2.133 2.133 0 0 0-1.763-1.767c-1.714 0-1.925.734-3.453 2.259-.78.78-6.569 6.71-7.117 7a3.073 3.073 0 0 1-1.057.298Z" data-name="Trazado 518"/>
    <path d="M10.805 9.867a6.8 6.8 0 0 0 1.676 4.971 7.025 7.025 0 0 0 5.073 2.61h8.93a6.4 6.4 0 0 0 2.631-.692 7.282 7.282 0 0 0 3.393-3.358 6.462 6.462 0 0 0 .724-3.534 2.133 2.133 0 0 0-1.767-1.767c-2.744 0-2.125 1.869-2.635 3.179a3.193 3.193 0 0 1-3.179 2.013h-7.268c-3.66 0-3.242-3.369-3.664-4.124a2.108 2.108 0 0 0-3.917.7Z" data-name="Trazado 519"/>
  </g>
</svg>