<svg xmlns="http://www.w3.org/2000/svg" width="63.402" height="63.408" viewBox="0 0 63.402 63.408">
  <g id="Capa_x0020_1" transform="translate(-0.01 0.01)">
    <path id="Trazado_911" data-name="Trazado 911" d="M2.6,2.348V12.38A2.464,2.464,0,0,0,5.08,14.732h9.785a2.522,2.522,0,0,0,.2-5.03,39.861,39.861,0,0,0-4.659-.045c.771-1.148,3.652-2.791,4.968-3.325a18.148,18.148,0,0,1,7.045-1.379h18.45c4.282,0,8.93,1.452,11.917,4.428a15.249,15.249,0,0,1,2.571,2.875,17.027,17.027,0,0,1,3.095,10.156V40.987a17.389,17.389,0,0,1-2.183,8.71,11.679,11.679,0,0,1-.861,1.367L53.4,53.512a6.226,6.226,0,0,0-.551.439,7.374,7.374,0,0,1-.568.546,17.468,17.468,0,0,1-11.535,3.944H22.669A17.236,17.236,0,0,1,11.275,54.6a17.5,17.5,0,0,1-4.209-5.075,16.437,16.437,0,0,1-1.66-4.411c-.985-4.288.051-13.229-.726-14.63-1.322-2.38-4.67-1.08-4.67.833v10.9a21.279,21.279,0,0,0,2.02,8.508c.315.625.54,1.114.895,1.7A21.961,21.961,0,0,0,12.6,61.339,21.361,21.361,0,0,0,21.183,63.4h21.05a21.279,21.279,0,0,0,8.508-2.02c.625-.315,1.114-.54,1.7-.895.625-.377,1.075-.675,1.654-1.069A20.354,20.354,0,0,0,57,56.989a21.949,21.949,0,0,0,6.409-14.765V21.175a21.279,21.279,0,0,0-2.02-8.508c-.315-.625-.54-1.114-.895-1.7A21.592,21.592,0,0,0,54.179,4.03a25.866,25.866,0,0,0-3.354-1.975A21.2,21.2,0,0,0,42.239-.01H21.189A21,21,0,0,0,10.363,3.282a13.512,13.512,0,0,0-1.4.957l-1.4,1.08a16.455,16.455,0,0,0-.084-3.635A2.414,2.414,0,0,0,5.35-.01H4.877A2.353,2.353,0,0,0,2.615,2.342Z" transform="translate(0)" fill-rule="evenodd"/>
    <g id="Layer_x0020_1" transform="translate(15.576 18.561)">
      <path id="Trazado_1775" data-name="Trazado 1775" d="M2.631,25.007V6.183A3.72,3.72,0,0,1,3.187,3.6a2.617,2.617,0,0,1,2.169-.969H28.969a2.57,2.57,0,0,1,2.725,2.725V18.4c0,3.458-3.788,2.725-6.192,2.725H12.126c-4.573,0-3.74-.395-6.923,1.993L3.327,24.547a2.453,2.453,0,0,1-.7.46ZM-.011,4.779V25.667a2.546,2.546,0,0,0,4.4,1.427c.475-.356,4.007-3.088,4.369-3.226.6-.229,18.019-.1,20.211-.1a4.76,4.76,0,0,0,2.136-.341,5.376,5.376,0,0,0,2.682-2.437,4.735,4.735,0,0,0,.548-2.011V4.779A4.8,4.8,0,0,0,32.829,1.5,4.8,4.8,0,0,0,29.547-.01H4.778a5.185,5.185,0,0,0-4.3,2.888,4.682,4.682,0,0,0-.493,1.9Zm21.053,7.183a1.329,1.329,0,0,0,2.642.248V11.8c0-1.4-2.642-1.658-2.642.165ZM10.64,11.8v.413a1.329,1.329,0,1,0,0-.413Zm5.284,0v.413a1.329,1.329,0,1,0,0-.413Z" transform="translate(0.011 0.01)" fill-rule="evenodd"/>
    </g>
  </g>
</svg>
