<svg xmlns="http://www.w3.org/2000/svg" viewBox="0 0 68.669 65.239">
  <g fill-rule="evenodd">
    <path d="M18.745 48.287c3.932-2.31 2.078-.965 4.444-1.7.58.987 5.342 7.12 6.494 8.743l2.189 2.945-3.6 2.114c-.527-.9-3.859-4.936-4.723-6.024l-4.804-6.078Zm-3.628-16.476a9.6 9.6 0 0 0 1.305-1.566l1.229-1.586L35.284 5.894l18.63 31.71c-.6.286-27.109 4.19-30.373 4.685-.649.1-1.447.263-2.083.316Zm-6.879 15.84-3.634-6.185a2.106 2.106 0 0 1 .68-2.969l6.522-3.832 5.615 9.558c-1.393.819-6.748 4.235-7.876 4.275a1.387 1.387 0 0 1-1.3-.848ZM.676 43.018l4.36 7.422c1.459 2.484 5.117 2.893 7.524 1.478l2.474-1.454 6.819 8.594c.81 1.013 4.174 5.678 5.2 6.017a2.427 2.427 0 0 0 2.387-.387l6.3-3.7c1.359-.8 1.859-2.222.909-3.467l-8.71-11.613c2.045-.171 13.109-1.991 15.175-2.304l7.638-1.16 3.769-.572a24.69 24.69 0 0 0 3.9-.715 2.254 2.254 0 0 0 .656-3.26L37.609 1.353a2.177 2.177 0 0 0-3.392-.881c-.413.243-19.052 24.476-20.721 26.63-2.99 3.86-1.418 2.41-5.672 4.91-2.413 1.418-5.491 2.893-6.645 4.657a6.141 6.141 0 0 0-.5 6.349Z" data-name="Trazado 919"/>
    <path d="M49.584 12.468c.982-.577 1.124-1.55 1.522-2.558l2.121-5.547c.642-1.635.939-2.117.2-3.379-.363-.618-2.71-2.018-3.892 1.18a79.88 79.88 0 0 1-.663 1.733c-.413 1.051-2.54 5.937-2.373 7.007a2.126 2.126 0 0 0 3.085 1.564Z" data-name="Trazado 920"/>
    <path d="M67.389 29.386a2.135 2.135 0 0 0 1.126-2.717l-.3-.5a2.174 2.174 0 0 0-1.132-.752l-7.34-1.086c-.52-.074-.937-.129-1.468-.215a2.121 2.121 0 0 0-1.908 3.668c.754.633 2.34.669 3.589.864.919.143 6.65 1.2 7.43.743Z" data-name="Trazado 921"/>
    <path d="m54.142 20.228 6.3-3.7a2.087 2.087 0 0 0 .385-2.949 2.145 2.145 0 0 0-2.5-.649l-6.3 3.7c-2.355 1.384-.194 4.955 2.115 3.598Z" data-name="Trazado 922"/>
  </g>
</svg>