<svg xmlns="http://www.w3.org/2000/svg" viewBox="0 0 50 50">
  <path fill-rule="evenodd" d="M25 0A25 25 0 1 1 0 25 25 25 0 0 1 25 0Zm9.669 29.942H17.99c-1.39 0-1.352-1.1-1.444-2.469-.129-1.936-.567-4.957-.751-7.074-.094-1.079-.345-2.665-.345-3.636h23.131l-2.26 10.507c-.117.567-.216 1.2-.375 1.753a1.129 1.129 0 0 1-1.278.919ZM9.2 10.037a1.091 1.091 0 0 0 1.163 1.239h2.2c0 .02 1.754 15.936 1.856 17.5a3.358 3.358 0 0 0 3.086 3.365H35.15a3.29 3.29 0 0 0 2.767-1.969c.32-.764 2.287-10.237 2.581-11.7a4.289 4.289 0 0 0 .136-2.594 2.2 2.2 0 0 0-1.915-1.311H15.176l-.5-4.65a1.14 1.14 0 0 0-.944-.841h-3.567a1.129 1.129 0 0 0-.961.961ZM17.99 37.7a1.161 1.161 0 0 1 1.043-1.15 1.083 1.083 0 1 1 .111 2.163A1.148 1.148 0 0 1 17.99 37.7Zm-2.2-.343a3.267 3.267 0 0 0 1.83 3.249 3.227 3.227 0 0 0 1.739.32 3.314 3.314 0 0 0 3.02-3.02v-.549a3.314 3.314 0 0 0-3.02-3.02h-.549a3.314 3.314 0 0 0-3.017 3.018Zm15.375.343a1.161 1.161 0 0 1 1.043-1.15 1.083 1.083 0 0 1 .111 2.163 1.1 1.1 0 0 1-1.015-.6c-.018-.038-.136-.389-.139-.41Zm-2.2-.343a3.32 3.32 0 0 0 .945 2.624l.885.625a3.228 3.228 0 0 0 1.739.32 3.314 3.314 0 0 0 3.02-3.02v-.549a3.314 3.314 0 0 0-3.02-3.02h-.549a3.314 3.314 0 0 0-3.013 3.018Z" data-name="Trazado 931"/>
</svg>