<svg xmlns="http://www.w3.org/2000/svg" viewBox="0 0 50 50">
  <path fill-rule="evenodd" d="M25 0A25 25 0 1 1 0 25 25 25 0 0 1 25 0Zm8.868 29.648a1.654 1.654 0 0 1 2.812-1.157 1.637 1.637 0 0 1-2.315 2.315 1.93 1.93 0 0 1-.5-1.157Zm-8.826-8.826a1.654 1.654 0 0 1 2.812-1.158 1.637 1.637 0 0 1-2.315 2.315 1.932 1.932 0 0 1-.5-1.157ZM34.42 9.445V12H19.181a4.835 4.835 0 0 0-2.849 1.15 1.915 1.915 0 0 0-.59.582 4.939 4.939 0 0 0-.3 6.074 4.731 4.731 0 0 0 1.842 1.6 5.123 5.123 0 0 0 2.861.518h3.448a3.265 3.265 0 0 0 2.827 2.207h.552a3.266 3.266 0 0 0 2.828-2.206c1.744 0 4.485-.46 4.62 2.275.037.741 0 1.591 0 2.345a3.258 3.258 0 0 0-2.207 2.827v.552a3.265 3.265 0 0 0 2.207 2.827c0 1.371.08 2.084-.636 2.812-.768.781-1.353.7-2.812.7h-5.24c-1.4 0-1.241-.02-1.241 1.655a.518.518 0 0 0 .552.552h7.447a4.431 4.431 0 0 0 4.028-3.35 11.213 11.213 0 0 0 .11-2.373 3.265 3.265 0 0 0 2.207-2.827v-.552a3.265 3.265 0 0 0-2.207-2.827c0-2.264.369-3.872-1.293-5.533s-3.284-1.293-5.533-1.293a3.265 3.265 0 0 0-2.827-2.207h-.552a3.258 3.258 0 0 0-2.827 2.207 34.3 34.3 0 0 1-4.671-.087 2.739 2.739 0 0 1-.424-5.215 3.423 3.423 0 0 1 1.233-.215H34.42v2.551c0 .287.256.276.414.276a16.736 16.736 0 0 0 2.017-1.913l1.982-2.012-1.948-1.983a17.208 17.208 0 0 0-2.051-1.948c-.158 0-.414-.011-.414.276ZM12.97 34.326l3 3.014a3.428 3.428 0 0 0 .337-.14l2.83-1.342c.122-.057.2-.08.319-.141l4.419-2.087a15.563 15.563 0 0 0 1.87-.923c.423-.511-.234-.959-.741-1.466l-6.435-6.435c-.159-.159-.316-.38-.61-.38-.482 0-.554.477-.825 1.013-.485.962-1.148 2.432-1.626 3.465l-1.356 2.856c-.139.337-1.128 2.337-1.182 2.566Zm3.819 3.783c.042.158.2.253.309.362l2.121 2.122a.741.741 0 0 0 .4.238h.14c.261-.04.485-.294.713-.522l1.237-1.237c.859-.858.611-.892-.265-1.768a11.1 11.1 0 0 1-.91-.928 1.924 1.924 0 0 0-.471.2l-3.276 1.532Zm-5.622-1.838c0 .406.285.586.592.893l1.379 1.379c.207.207.506.592.822.592.334 0 .517-.287.7-.468a6.147 6.147 0 0 0 .575-.592l-3-3.014a5.883 5.883 0 0 0-.583.566c-.144.144-.486.4-.486.645Z"/>
</svg>