<svg xmlns="http://www.w3.org/2000/svg" viewBox="0 0 50.088 50.088">
  <path fill-rule="evenodd" d="M25.044 0A25.044 25.044 0 1 1 0 25.044 25.044 25.044 0 0 1 25.044 0ZM18.3 32.742a4.135 4.135 0 0 1 2.338-3.58 3.646 3.646 0 0 1 1.584-.411h5.643a3.384 3.384 0 0 1 1.538.389 4.155 4.155 0 0 1 2.385 3.534v1.858H18.3v-1.79Zm24.363-2.684v1.88c-.077.636-.336 1.08-1.1 1.08h-7.641v2.478c0 .884-.646 1.17-1.445 1.17H17.611c-.809 0-1.445-.333-1.445-1.17v-2.41h-7.5a1.215 1.215 0 0 1-.847-.254 1.042 1.042 0 0 1-.392-.709v-2.065a4.433 4.433 0 0 1 2.849-3.827 5.73 5.73 0 0 1 1.9-.3c1.762 0 4.4-.205 5.781.414a5.029 5.029 0 0 1 1.443 1.029c.3-.069.826-.381 1.4-.524 1.587-.395 4.922-.233 6.787-.233a6.413 6.413 0 0 1 3.028.757 4.812 4.812 0 0 1 3.028-1.445h4.886a4.412 4.412 0 0 1 4.13 4.129ZM32.339 28.75a2.213 2.213 0 0 1 1.789-.757h3.992c1.744 0 2.478 1.2 2.478 2.891h-6.882c-.3 0-.263-.671-.982-1.633-.136-.181-.287-.341-.394-.5Zm-15.829 2.2H9.49a2.651 2.651 0 0 1 .635-2.118 2.191 2.191 0 0 1 1.774-.772h4.2a2.122 2.122 0 0 1 1.652.688c-.116.174-.221.26-.359.467a5.769 5.769 0 0 0-.88 1.735Zm4.89-11.766a3.634 3.634 0 1 1 .991 2.519 3.64 3.64 0 0 1-.991-2.519Zm-2.134 0a7.742 7.742 0 0 0 .166 1.28 5.759 5.759 0 1 0 5.668-7.039 7.414 7.414 0 0 0-1.264.144 5.81 5.81 0 0 0-4.393 4.279 7.756 7.756 0 0 0-.178 1.336ZM14.1 22.625a2.106 2.106 0 0 1-1.749-.66 2.277 2.277 0 1 1 1.749.66Zm-4.541-2.271a4.391 4.391 0 0 0 8.374 1.836 3.151 3.151 0 0 0 .294-.807 4.39 4.39 0 0 0-6-5.041 4.48 4.48 0 0 0-2.229 2.176 4.285 4.285 0 0 0-.435 1.836Zm26.772 2.271a2.277 2.277 0 1 1 1.465-.737 2.245 2.245 0 0 1-1.465.737Zm-4.611-2.34a4.372 4.372 0 0 0 7.38 3.252 4.078 4.078 0 0 0 1.359-3.459 4.291 4.291 0 0 0-1.359-2.909 4.343 4.343 0 0 0-4.814-.785 5.033 5.033 0 0 0-.656.376 4.3 4.3 0 0 0-1.912 3.525Z"/>
</svg>