<svg xmlns="http://www.w3.org/2000/svg" fill-rule="evenodd" clip-rule="evenodd" image-rendering="optimizeQuality" shape-rendering="geometricPrecision" text-rendering="geometricPrecision" viewBox="0 0 260.01 391.6">
  <path  fill-rule="nonzero" d="M1.22 288.09h20.7v5.41c6.15-3.6 13.04-5.41 20.7-5.41 11.45 0 21.23 4.06 29.29 12.12.64.64 1.2 1.24 1.77 1.87.53-.64 1.13-1.24 1.77-1.87 8.06-8.06 17.84-12.12 29.29-12.12s21.2 4.06 29.29 12.12c8.05 8.09 12.12 17.84 12.12 29.29v62.11h-20.7V329.5c0-5.72-2.01-10.6-6.08-14.63-4.03-4.06-8.9-6.08-14.63-6.08-5.72 0-10.63 2.01-14.66 6.08-4.03 4.03-6.04 8.9-6.04 14.63v62.11h-20.7V329.5c0-5.72-2.01-10.6-6.08-14.63-4.03-4.06-8.9-6.08-14.63-6.08-5.72 0-10.6 2.01-14.66 6.08-4.03 4.03-6.04 8.9-6.04 14.63v62.11H1.23V288.09zm236.42 41.41c-1.52-4.27-3.99-8.12-7.45-11.59-6.08-6.08-13.39-9.12-21.94-9.12s-15.86 3.04-21.94 9.12c-3.46 3.46-5.94 7.31-7.45 11.59h58.79zm-6.32 31.05 18.44 10.35-4.88 5.48c-10.14 10.14-22.36 15.23-36.64 15.23-14.27 0-26.5-5.05-36.6-15.16-10.1-10.1-15.16-22.33-15.16-36.6 0-14.27 5.05-26.46 15.16-36.6 10.1-10.1 22.33-15.16 36.6-15.16 14.27 0 26.46 5.05 36.6 15.16 10.1 10.14 15.16 22.33 15.16 36.6 0 3.6-.32 7.03-.95 10.35h-80.2c1.52 4.27 3.99 8.16 7.45 11.59 6.08 6.08 13.39 9.12 21.94 9.12s15.86-3.04 21.94-9.12c.42-.42.78-.81 1.13-1.24zM22.69 256.49c-8.46-2.92-14.06-5.31-16.85-7.2-2.79-1.88-4.65-5.18-5.56-9.92-.91-4.74.31-9.36 3.63-13.88 3.34-4.52 9.03-6.89 17.09-7.08 8.06-.18 16.29 2.19 24.68 7.11l-5.91 11.02c-6.99-4.14-12.95-6.24-17.86-6.29-4.91-.04-7.68 1.48-8.3 4.58-.62 3.08 1.13 5.6 5.29 7.53 4.14 1.9 8.59 3.59 13.33 4.98 4.74 1.42 8.17 3.1 10.32 5.07 2.13 1.95 3.41 4.85 3.83 8.66.4 3.81-.09 7.28-1.5 10.47-1.4 3.17-3.76 5.87-7.06 8.08-3.32 2.19-7.93 3.54-13.81 4.05-5.91.49-13.81-1.57-23.71-6.2l5.84-11.09c7.08 3.03 12.97 4.76 17.67 5.18 4.69.44 7.79-1.24 9.32-5.03 1.51-3.79-1.97-7.13-10.43-10.05zm80.4-11.51c-.95-2.68-2.5-5.09-4.67-7.26-3.81-3.81-8.39-5.71-13.75-5.71-5.36 0-9.94 1.9-13.75 5.71-2.17 2.17-3.72 4.58-4.67 7.26h36.84zm-3.96 19.46 11.56 6.49-3.05 3.43c-6.35 6.35-14.01 9.54-22.96 9.54-8.94 0-16.6-3.17-22.93-9.5-6.33-6.33-9.5-13.99-9.5-22.93s3.17-16.58 9.5-22.93c6.33-6.33 13.99-9.5 22.93-9.5s16.58 3.17 22.93 9.5c6.33 6.35 9.5 13.99 9.5 22.93 0 2.26-.2 4.41-.6 6.49H66.26c.95 2.68 2.5 5.11 4.67 7.26 3.81 3.81 8.39 5.71 13.75 5.71 5.36 0 9.94-1.9 13.75-5.71.27-.27.49-.51.71-.78zm76.35-12.97c0-5.36-1.9-9.94-5.71-13.75-3.81-3.81-8.39-5.71-13.75-5.71-5.36 0-9.94 1.9-13.75 5.71-3.81 3.81-5.71 8.39-5.71 13.75v32.43h-12.97v-64.86h12.97v6.42c5.58-4.27 12.06-6.42 19.46-6.42 8.94 0 16.58 3.17 22.93 9.5 6.33 6.35 9.5 13.99 9.5 22.93v32.43h-12.97v-32.43zm51.89-19.46c-5.36 0-9.94 1.9-13.75 5.71-3.81 3.81-5.71 8.39-5.71 13.75 0 5.36 1.9 9.94 5.71 13.75 3.81 3.81 8.39 5.71 13.75 5.71 5.36 0 9.94-1.9 13.75-5.71 3.81-3.81 5.71-8.39 5.71-13.75 0-5.36-1.9-9.94-5.71-13.75-3.81-3.81-8.39-5.71-13.75-5.71zm19.46 45.47c-5.58 4.27-12.06 6.42-19.46 6.42-8.94 0-16.6-3.17-22.93-9.5-6.33-6.33-9.5-13.99-9.5-22.93s3.17-16.58 9.5-22.93c6.33-6.33 13.99-9.5 22.93-9.5 7.39 0 13.88 2.15 19.46 6.42v-32.37h12.97v90.81h-12.97v-6.42zM1.74 35.34v154.11c0 7.71 8.75 16.45 16.45 16.45 8.52 0 8.98-.63 16.01-5.92 3.5-2.63 29.56-22.78 32.24-23.8 4.43-1.69 132.94-.76 149.12-.73 7.67.01 10.12-.38 15.76-2.51 8.09-3.06 15.91-10.39 19.79-17.98 1.92-3.76 4.05-9.46 4.05-14.84V35.35c0-9.51-5.08-18.18-11.12-24.21C238 5.1 229.33.02 219.83.02H37.09C24.02.02 11 9.94 5.4 21.33c-1.67 3.4-3.64 8.95-3.64 14.03zm14.18 157.03V41.92c0-9.03.11-15.74 4.3-20.63 3.98-4.65 8.55-7.74 16.79-7.74h182.85c12.69 0 21.1 8.68 21.1 21.78v104.26c0 27.64-29.33 21.78-47.95 21.78H89.44c-35.41 0-28.96-3.15-53.61 15.93l-14.52 11.41c-1.65 1.28-3.52 3.16-5.39 3.68zM130.22 125c-3.91 0-7.57-.33-10.99-1.01-3.41-.68-6.78-1.7-10.09-3.08-3.31-1.37-6.63-3.07-9.95-5.09-2.02-1.22-3.48-2.25-4.37-3.08-.9-.82-1.46-1.61-1.67-2.35-.23-.74-.33-1.7-.33-2.87 0-1.26.35-1.9 1.05-1.9.24 0 1.65.6 4.23 1.79 2.58 1.2 5.29 2.31 8.12 3.36 2.83 1.05 6.35 2.02 10.59 2.92 4.23.89 8.7 1.34 13.42 1.34 4.68 0 9.1-.44 13.27-1.33 4.19-.88 7.8-1.89 10.87-3.02 3.06-1.13 5.81-2.26 8.23-3.39 2.43-1.13 3.75-1.69 3.96-1.69.7 0 1.05.64 1.05 1.9 0 1.2-.12 2.17-.37 2.91-.24.73-.82 1.52-1.73 2.31-.92.81-2.37 1.83-4.36 3.08-3.43 2.05-6.74 3.73-9.91 5.08-3.18 1.33-6.48 2.35-9.91 3.06-3.41.7-7.12 1.05-11.1 1.05zm48.26-44.73c.74 0 1.43-.2 2.04-.57.1-.06.23-.14.32-.2.21-.16.37-.3.56-.49.3-.3.7-.85.86-1.23.35-.85.4-1.11.4-2.11 0-.87-.36-1.92-.93-2.48-.47-.46-.88-.76-1.49-1.06l-.59-.28c-.4-.2-.79-.33-1.21-.5l-3.13-1.16c-.21-.07-.43-.17-.64-.24l-10.04-3.7 10.67-3.79c.22-.08.42-.15.64-.23 1.22-.4 3.76-1.29 4.88-1.95l.51-.33c.3-.22.22-.18.44-.43.28-.32.47-.63.62-1.09.15-.45.24-.97.26-1.5v-.34c-.02-.62-.14-1.23-.39-1.72-.06-.13-.11-.22-.17-.35-.07-.13-.13-.2-.2-.32-.23-.37-.17-.23-.35-.45-.05-.07-.06-.08-.12-.15-1.13-1.18-2.55-1.61-4.18-1.2-1.34.34-3.35 1.18-4.63 1.71-1.17.49-2.45.96-3.63 1.46l-11.73 4.76c-.31.13-.61.25-.9.39-.14.07-.28.12-.44.19-.15.06-.28.13-.43.19-.9.4-1.24.6-1.96 1.21-.42.36-.88.91-1.14 1.4-.25.48-.39.82-.49 1.43-.3 1.74.09 3.52 1.35 4.79.63.63 1.47 1.11 2.3 1.5.3.15.6.24.91.38.83.37 2.76 1.12 3.63 1.46 1.23.49 2.41.97 3.63 1.46l11.76 4.73c.86.35 2.07.81 3.03.81zM96.34 66.6c-.07.1-1.09.39-1.23.44-.44.15-.85.27-1.29.42l-8.98 2.91c-.44.12-.85.3-1.29.42-.93.25-2.21.75-3.11 1.14-.67.28-1.27.72-1.69 1.31-.16.22-.33.61-.42.87-.14.4-.23.85-.25 1.32v.5c.03.64.17 1.27.43 1.78.12.25.23.45.38.67.13.2.57.7.76.85 1.96 1.58 3.5 1.07 5.68.33l2.76-1.01c.62-.24 1.21-.44 1.83-.68.62-.24 1.21-.45 1.83-.68.29-.11.61-.23.91-.34.3-.12.6-.22.92-.34l4.58-1.7c.83-.28 1.88-.71 2.75-1.02 1.33-.47 3.23-1.19 4.52-1.76l1.64-.87c.12-.09.25-.17.35-.27l.91-.98.36-.58c.82-1.64.75-4.03-.42-5.59-.33-.44-.22-.3-.6-.69-.08-.08-.08-.08-.17-.15l-1.32-.91-3.5-1.59c-.6-.26-1.16-.52-1.77-.77l-15.1-6.59c-1.51-.7-3.24-1.22-4.85-.36-.98.53-1.69 1.39-2.09 2.44-.43 1.12-.3 2.63.33 3.68.28.46.69.83 1.14 1.13.92.61 1.97 1.04 3.06 1.47 2.17.87 4.31 1.73 6.47 2.59l6.48 2.58z"/>
</svg>