<svg xmlns="http://www.w3.org/2000/svg" viewBox="0 0 59.022 91.533">
  <path fill-rule="evenodd" d="M4.461 0h50.1a4.474 4.474 0 0 1 4.461 4.461v50.007a4.474 4.474 0 0 1-4.461 4.461h-50.1A4.474 4.474 0 0 1 0 54.468V4.461A4.474 4.474 0 0 1 4.461 0Zm-.353 16.6v18.711c0 3.081 3.612 5.914 7.046 5.914h2.878c-.016.578-1.489 5.818-1.489 6.319 0 .347.549.663.955.618a19.83 19.83 0 0 0 2.452-1l13.263-5.7a9.464 9.464 0 0 1 3.474-.242c4.894 0 9.792-.015 14.686 0 4.077.012 7.541-2.759 7.541-5.915V16.6c0-1.654-1.214-3.151-2.5-4.195a9.18 9.18 0 0 0-5.633-1.639H12.046a8.909 8.909 0 0 0-5.484 1.68A5.785 5.785 0 0 0 4.108 16.6Zm10.572 1.617h29.556A2.776 2.776 0 0 1 47 20.985v8.787a2.776 2.776 0 0 1-2.768 2.768H14.68a2.776 2.776 0 0 1-2.768-2.768v-8.787a2.776 2.776 0 0 1 2.768-2.768Zm19.42 5.331h6.929a1.127 1.127 0 0 1 1.124 1.124v1.4a1.127 1.127 0 0 1-1.12 1.128H34.1a1.127 1.127 0 0 1-1.124-1.124v-1.4a1.127 1.127 0 0 1 1.124-1.128Zm-16.616 0h6.929a1.127 1.127 0 0 1 1.124 1.124v1.4a1.127 1.127 0 0 1-1.12 1.128h-6.929a1.127 1.127 0 0 1-1.124-1.124v-1.4a1.127 1.127 0 0 1 1.124-1.128Z" data-name="Trazado 3"/>
  <path d="M9.477 75.429h3.221v.841a6.5 6.5 0 0 1 7.777 1.044c.1.1.187.192.275.292.083-.1.176-.192.275-.292a6.441 6.441 0 0 1 11 4.557v9.662h-3.221v-9.662a3.221 3.221 0 1 0-6.441 0v9.662h-3.221v-9.662a3.221 3.221 0 1 0-6.442 0v9.662H9.479v-16.1Zm36.78 6.441a4.809 4.809 0 0 0-1.16-1.8 4.817 4.817 0 0 0-6.826 0 4.811 4.811 0 0 0-1.16 1.8h9.141Zm-.984 4.831 2.869 1.61-.758.852a8.047 8.047 0 1 1 2.352-5.683 8.54 8.54 0 0 1-.148 1.61H37.111a4.768 4.768 0 0 0 1.16 1.8 4.817 4.817 0 0 0 6.826 0c.066-.066.121-.126.176-.192ZM12.818 70.512a13.043 13.043 0 0 1-2.621-1.119 2.272 2.272 0 0 1-.864-1.543 2.691 2.691 0 0 1 .565-2.16 3.2 3.2 0 0 1 2.659-1.1 7.252 7.252 0 0 1 3.84 1.105l-.919 1.715a5.861 5.861 0 0 0-2.779-.978q-1.147-.01-1.291.713c-.1.479.175.871.823 1.171a15.4 15.4 0 0 0 2.073.775 4.147 4.147 0 0 1 1.6.789 2.065 2.065 0 0 1 .6 1.347 3.132 3.132 0 0 1-.234 1.629 2.954 2.954 0 0 1-1.1 1.257 4.621 4.621 0 0 1-2.149.63 7.834 7.834 0 0 1-3.689-.964l.909-1.725a9.495 9.495 0 0 0 2.748.806 1.263 1.263 0 0 0 1.45-.782q.351-.884-1.622-1.564Zm12.508-1.791a3.012 3.012 0 0 0-.727-1.13 3.018 3.018 0 0 0-4.277 0 3.016 3.016 0 0 0-.727 1.13Zm-.616 3.027 1.8 1.009-.475.534a5.042 5.042 0 1 1 1.474-3.561 5.33 5.33 0 0 1-.093 1.009h-7.818a2.982 2.982 0 0 0 .727 1.13 3.018 3.018 0 0 0 4.277 0c.039-.041.073-.079.107-.12Zm11.878-2.018a3.027 3.027 0 0 0-6.054 0v5.045h-2.018V64.684h2.018v1a5.052 5.052 0 0 1 8.072 4.047v5.045h-2.018Zm8.073-3.027a3.033 3.033 0 1 0 2.139.888 2.917 2.917 0 0 0-2.14-.887Zm3.027 7.074a5.045 5.045 0 1 1 0-8.093v-5.035h2.018v14.127h-2.018v-1Z"/>
</svg>