<svg xmlns="http://www.w3.org/2000/svg" viewBox="0 0 50 50">
  <path fill-rule="evenodd" d="M25 0A25 25 0 1 1 0 25 25 25 0 0 1 25 0Zm11.891 25.825H24.178V13.113a.921.921 0 0 0-.925-.925A14.562 14.562 0 1 0 37.815 26.75a.93.93 0 0 0-.925-.925ZM23.253 39.463a12.712 12.712 0 0 1-.925-25.391V26.75a.921.921 0 0 0 .925.925h12.679a12.725 12.725 0 0 1-12.679 11.788ZM41.309 23.2A14.56 14.56 0 0 0 26.747 8.688a.921.921 0 0 0-.925.925V23.25a.921.921 0 0 0 .925.925h13.637a.921.921 0 0 0 .925-.925Zm-13.637-.87V10.579a12.72 12.72 0 0 1 11.753 11.753Z"/>
</svg>