<svg xmlns="http://www.w3.org/2000/svg" viewBox="0 0 50 50">
  <path fill-rule="evenodd" d="M25 0A25 25 0 1 1 0 25 25 25 0 0 1 25 0ZM12.966 20.4c-.286-.28-.121-.592.092-.811a14.089 14.089 0 0 1 2.27-.779l3.834-1.192c2.066-.609 4.04-1.267 6.1-1.874l1.513-.489c1.536-.521 3.749-1.117 5.348-1.641.265-.087.476-.172.757-.243l3.79-1.171c.658-.178.585-.287 1.014.134.232.227-.172 1.258-.271 1.572-.168.532-.264 1.043-.436 1.574-.4 1.237-.766 2.821-1.139 3.961-.1.3-.141.512-.228.812l-.685 2.336c-.507 1.607-1.074 4.013-1.592 5.586-.177.536-.294 1.034-.44 1.574s-1.984 7.034-2.118 7.2a.66.66 0 0 1-.771.117c-.33-.323-4.3-10.2-4.673-10.782 1.135-1.16 3.351-3.329 4.358-4.451a1.079 1.079 0 1 0-1.537-1.505c-1.065 1-3.249 3.323-4.356 4.454l-2.696-1.09c-.921-.385-1.8-.7-2.695-1.078-.616-.259-5.288-2.07-5.441-2.219Zm-1.554 1.383c.726.711.762.585 1.732.994l2.847 1.141c.958.379 7.107 2.791 7.271 2.951s2.176 5.035 2.47 5.694l1.225 2.872c.208.494.376.924.593 1.411.441.989.322 1.045 1.053 1.76a2.659 2.659 0 0 0 3.697-.196 4.192 4.192 0 0 0 .793-1.73l2.956-10.359c.109-.338.152-.542.244-.863l2.243-7.82c.191-.585.318-1.139.488-1.726a16.919 16.919 0 0 0 .841-3.451 2.6 2.6 0 0 0-2.508-2.5 20.931 20.931 0 0 0-4.29 1.156l-17.258 5.351c-.289.1-.552.154-.858.262s-.555.155-.858.261a6.525 6.525 0 0 0-2.62 1.143 2.692 2.692 0 0 0-.062 3.645Zm.7 8.6 2.4-2.456c1.248-1.275-.4-2.664-1.435-1.6l-2.6 2.66c-1.009 1.021.423 2.632 1.636 1.39Zm9.314 9.315 2.6-2.66c1.038-1.06-.387-2.675-1.635-1.4l-2.3 2.354c-1.429 1.455.383 2.673 1.336 1.699Zm-4.576-6.481a1.056 1.056 0 0 0 1.671.033l2.553-2.609a1.077 1.077 0 1 0-1.535-1.5l-2.553 2.609a1.082 1.082 0 0 0-.135 1.461Z"/>
</svg>
