<svg xmlns="http://www.w3.org/2000/svg" viewBox="0 0 50 50">
  <path fill-rule="evenodd" d="M25 0A25 25 0 1 1 0 25 25 25 0 0 1 25 0ZM14.262 16.7c0-.616.621-1.079.961-1.419.315-.315.873-1.022 1.418-1.022 1.139 0 1.259 1.525 2.5 1.525a16.986 16.986 0 0 0 1.627-.753c.544-.243 1.581-.533 1.752-.628.969-.536.066-2.129.721-2.818.534-.561 1.551-.377 2.673-.377.773 0 1.1.552 1.1 1.279 0 2.655.1 1.433 3.009 2.91.4.2.5.387.955.387.991 0 1.335-1.525 2.318-1.525.616 0 1.079.621 1.419.961.315.315 1.022.873 1.022 1.418 0 1.139-1.525 1.259-1.525 2.5a16.987 16.987 0 0 0 .753 1.627c.263.589.523 1.582.65 1.791.663 1.092 3.173-.486 3.173 1.647 0 1.418.274 2.776-1.157 2.809-.909.021-1.65-.18-2.016.424-.043.071-.576 1.719-1.015 2.584-.2.4-.387.5-.387.955 0 .991 1.525 1.335 1.525 2.318 0 .616-.621 1.079-.961 1.419-.315.315-.873 1.022-1.418 1.022-1.139 0-1.259-1.525-2.5-1.525a17.026 17.026 0 0 0-1.626.753 8.107 8.107 0 0 1-.882.338c-1.487.469-1.317.369-1.332 2.267-.012 1.5-1.329 1.218-2.809 1.218a1.082 1.082 0 0 1-1.223-1.157c-.042-1.849.243-1.847-1.287-2.313l-1.724-.715c-.4-.2-.5-.387-.955-.387-.978 0-1.344 1.525-2.318 1.525-.616 0-1.079-.621-1.419-.961-.315-.315-1.022-.873-1.022-1.418 0-1.139 1.525-1.259 1.525-2.5a17.025 17.025 0 0 0-.753-1.626c-.267-.6-.51-1.537-.628-1.752-.338-.616-1.023-.465-1.916-.463-1.6 0-1.279-1.31-1.279-2.931a1.133 1.133 0 0 1 .347-.812c.709-.719 2.3.234 2.848-.751.09-.164.385-1.208.628-1.752.136-.306.218-.5.366-.794.2-.4.387-.5.387-.955 0-.991-1.525-1.335-1.525-2.318Zm9.518-7.319h2.42a2.9 2.9 0 0 1 2.054 1.082 2.819 2.819 0 0 1 .522 1.064 6.008 6.008 0 0 1 .124 1.393 11.989 11.989 0 0 1 1.891.793c.427-.286 1.057-1.281 2.257-1.281 1.607 0 1.846.352 3 1.51.576.576 1.51 1.362 1.51 2.456a2.664 2.664 0 0 1-.45 1.868c-.274.411-.6.6-.831.939a12.439 12.439 0 0 1 .793 1.891 5.826 5.826 0 0 1 1.443.143 2.837 2.837 0 0 1 2.1 2.542v2.364a2.8 2.8 0 0 1-1.088 2.1 3.589 3.589 0 0 1-2.451.661 12.408 12.408 0 0 1-.793 1.891c.286.427 1.281 1.057 1.281 2.257 0 1.607-.352 1.846-1.51 3-.576.576-1.362 1.51-2.456 1.51-2.045 0-1.868-.653-2.806-1.281a11.955 11.955 0 0 1-1.891.793 3.587 3.587 0 0 1-.661 2.451 2.852 2.852 0 0 1-2.024 1.088h-2.358a2.8 2.8 0 0 1-2.1-1.088 3.49 3.49 0 0 1-.656-2.447c-.149-.071-.343-.121-.5-.175l-1.4-.618c-.427.286-1.057 1.281-2.257 1.281-1.607 0-1.846-.352-3-1.51-.576-.576-1.51-1.362-1.51-2.456a2.664 2.664 0 0 1 .45-1.868c.274-.411.6-.6.831-.939-.162-.306-.284-.585-.429-.913a7.624 7.624 0 0 1-.364-.978 3.587 3.587 0 0 1-2.451-.661 2.852 2.852 0 0 1-1.089-2.023v-2.434a2.913 2.913 0 0 1 1.083-2.036 3.627 3.627 0 0 1 2.456-.65 12.2 12.2 0 0 1 .793-1.891c-.226-.337-.557-.528-.831-.939a2.447 2.447 0 0 1-.45-1.319c0-1.607.352-1.846 1.51-3 .576-.576 1.362-1.51 2.456-1.51 2.045 0 1.868.653 2.806 1.281a9.015 9.015 0 0 1 .915-.427c.161-.064.307-.129.48-.191.153-.055.347-.1.5-.175a5.824 5.824 0 0 1 .143-1.443 2.671 2.671 0 0 1 .513-1.012 2.887 2.887 0 0 1 2.029-1.083Zm-3.722 15.8a4.829 4.829 0 0 1 1.449-3.676 4.954 4.954 0 0 1 8.435 3.31 4.829 4.829 0 0 1-1.449 3.676 4.954 4.954 0 0 1-8.435-3.308ZM18.167 25a7.38 7.38 0 0 0 .194 1.514 6.753 6.753 0 0 0 1.05 2.367 5.067 5.067 0 0 0 .784.924 6.635 6.635 0 0 0 3.291 1.834 6.38 6.38 0 0 0 3.036.008A6.661 6.661 0 0 0 29.8 29.8a5.067 5.067 0 0 0 .784-.924 5.771 5.771 0 0 0 .618-1.091 7.244 7.244 0 0 0 .433-1.276 6.819 6.819 0 0 0-2.758-7.1 6.14 6.14 0 0 0-1.082-.626 6.625 6.625 0 0 0-5.588.009A6.887 6.887 0 0 0 18.167 25Z"/>
</svg>