<svg xmlns="http://www.w3.org/2000/svg" viewBox="0 0 50 50">
  <path fill-rule="evenodd" d="M25 0A25 25 0 1 1 0 25 25 25 0 0 1 25 0ZM12.577 37.423c.268-1.147.955-3.366 1.294-4.607.407-1.5.1-.98-.661-2.832a12.455 12.455 0 0 1-.869-3.1 12.592 12.592 0 0 1 .779-6.671 13.7 13.7 0 0 1 2.194-3.593l.681-.738c.155-.153.247-.19.4-.339a4.056 4.056 0 0 1 .382-.356l.8-.614a12.6 12.6 0 0 1 5.145-2.173 12.841 12.841 0 0 1 8.329 1.331l.93.546a11.326 11.326 0 0 1 1.628 1.266 3.222 3.222 0 0 0 .356.325 3.965 3.965 0 0 1 .352.386 8.515 8.515 0 0 1 .7.773 12.891 12.891 0 0 1 2.722 6.693c.037.254.006.462.025.71a4.894 4.894 0 0 1 .057.685 15.889 15.889 0 0 1-.45 3.182 12.843 12.843 0 0 1-2.438 4.765 15.7 15.7 0 0 1-1.411 1.481 10.25 10.25 0 0 1-1.239.975 12.5 12.5 0 0 1-2.341 1.29 12.794 12.794 0 0 1-8.638.452 13.661 13.661 0 0 1-2.074-.82c-.667-.337-.859-.638-1.511-.458-.215.061-.358.1-.581.159-1.023.29-3.528 1.041-4.562 1.28ZM24.64 10.479h.9a13.364 13.364 0 0 1 5.6 1.342 14.521 14.521 0 0 1 8.376 12.669v1.022a14.517 14.517 0 0 1-13.839 14.012H24.5a15.817 15.817 0 0 1-3.636-.579 12.145 12.145 0 0 1-1.542-.558c-1.8-.8-.873-.812-3.041-.2-.581.164-4.552 1.337-4.959 1.337a.813.813 0 0 1-.851-.738 7.966 7.966 0 0 1 .421-1.793l.918-3.28c.521-1.818.569-1.442.119-2.339a14.157 14.157 0 0 1-.877-2.243 13.734 13.734 0 0 1-.579-4.7 14.47 14.47 0 0 1 2.681-7.869 14.46 14.46 0 0 1 11.479-6.086ZM21.652 23.3c0 1.376.912 1.963 2.027 3.076l1.219 1.219a2.272 2.272 0 0 0 3.205.17c.924-.865 1.2-1.213 2.3-.114.458.46.724.552.724 1.262 0 .5-.789 1.237-1.166 1.5-1.826 1.26-4.339.507-6.014-.5A11.215 11.215 0 0 1 20.8 27.1c-.155-.2-.311-.407-.454-.624a10.446 10.446 0 0 1-1.07-2.162 4.757 4.757 0 0 1 .309-4.274 6.447 6.447 0 0 1 .636-.669c.382-.386.45-.5 1.035-.5.5 0 .791.423 1.065.695 1.119 1.117.806 1.372-.086 2.325a2.23 2.23 0 0 0-.581 1.405Zm-4.482-1.136c0 3.65 2.822 7.378 5.521 9 1.963 1.182 4.5 2.209 6.982 1.344a5.163 5.163 0 0 0 1.462-.808 3.828 3.828 0 0 0 1.75-2.9 2.753 2.753 0 0 0-.364-1.339 4.423 4.423 0 0 0-.814-.945 2.9 2.9 0 0 0-2.624-1.233 2.591 2.591 0 0 0-1.374.5 2.517 2.517 0 0 0-.483.425c-.806.814-.977.3-2.354-1.078-1.321-1.321-1.9-1.546-1.106-2.325a2.828 2.828 0 0 0 .528-3.62 5.739 5.739 0 0 0-.812-.888 2.966 2.966 0 0 0-2.341-1.176 3.8 3.8 0 0 0-2.793 1.689 5.355 5.355 0 0 0-1.178 3.36Z" />
</svg>