<svg xmlns="http://www.w3.org/2000/svg" viewBox="0 0 30.347 19.324">
  <path d="M19.969 2.577h-8.375V.644a.637.637 0 0 0-.234-.5.631.631 0 0 0-.529-.136L.526 1.945A.644.644 0 0 0 0 2.577v14.17a.642.642 0 0 0 .526.632l10.3 1.933a.687.687 0 0 0 .119.012.644.644 0 0 0 .646-.643v-1.934h8.374a.643.643 0 0 0 .643-.643V3.221a.643.643 0 0 0-.643-.643Zm-11.11 9.238a.6435002.6435002 0 1 1-.969.847l-1.872-2.141-1.642 2.113a.64520791.64520791 0 1 1-1.018-.793l1.794-2.31-1.771-2.026a.64425344.64425344 0 0 1 .971-.847L5.96 8.495l1.907-2.452a.64520791.64520791 0 1 1 1.018.793L6.823 9.484l2.036 2.328Zm10.466 3.646H11.6v-1.29h1.933a.6435.6435 0 1 0 0-1.287H11.6v-1.289h1.933a.6435.6435 0 1 0 0-1.287H11.6V9.019h1.933a.6435.6435 0 1 0 0-1.287H11.6V6.443h1.933a.6435.6435 0 1 0 0-1.287H11.6v-1.29h7.729v11.595ZM17.392 5.153H16.1a.6435.6435 0 0 0 0 1.287h1.289a.6435.6435 0 1 0 0-1.287Zm0 2.576H16.1a.6435.6435 0 0 0 0 1.287h1.289a.6435.6435 0 1 0 0-1.287Zm0 2.576H16.1a.6435.6435 0 0 0 0 1.287h1.289a.6435.6435 0 1 0 0-1.287Zm0 2.576H16.1a.6435.6435 0 0 0 0 1.287h1.289a.6435.6435 0 1 0 0-1.287Zm3.861-2.494 4.025 4.022a.616.616 0 0 0 .866 0l4.025-4.022a.607.607 0 0 0 0-.861l-.369-.364a.6.6 0 0 0-.431-.178.62.62 0 0 0-.438.178l-2.352 2.347V4.051a.6.6 0 0 0-.6-.611h-.517a.625.625 0 0 0-.627.611v7.483l-2.36-2.375a.6.6 0 0 0-.854 0l-.365.365a.609.609 0 0 0 0 .861Z" data-name="Trazado 481"/>
</svg>