<svg xmlns="http://www.w3.org/2000/svg" viewBox="0 0 30.653 19.523">
  <path d="M20.174 2.604H11.71V.651a.644.644 0 0 0-.236-.5.637.637 0 0 0-.534-.137L.532 1.965A.651.651 0 0 0 0 2.603V16.92a.649.649 0 0 0 .532.638l10.411 1.953a.694.694 0 0 0 .121.012.651.651 0 0 0 .652-.65V16.92h8.461a.65.65 0 0 0 .65-.65V3.254a.65.65 0 0 0-.65-.65ZM8.95 11.936a.6502263.6502263 0 1 1-.979.856L6.08 10.629l-1.659 2.135a.652.652 0 0 1-1.028-.8L5.21 9.629 3.416 7.582a.651.651 0 0 1 .981-.856l1.624 1.856 1.927-2.477a.652.652 0 0 1 1.028.8L6.893 9.582l2.057 2.352Zm10.574 3.683h-7.808v-1.3h1.953a.65.65 0 1 0 0-1.3h-1.953v-1.3h1.953a.65.65 0 1 0 0-1.3h-1.953v-1.3h1.953a.65.65 0 1 0 0-1.3h-1.953v-1.3h1.953a.65.65 0 1 0 0-1.3h-1.953v-1.3h7.808v11.7ZM17.571 5.206h-1.3a.65.65 0 1 0 0 1.3h1.3a.65.65 0 0 0 0-1.3Zm0 2.6h-1.3a.65.65 0 1 0 0 1.3h1.3a.65.65 0 0 0 0-1.3Zm0 2.6h-1.3a.65.65 0 1 0 0 1.3h1.3a.65.65 0 0 0 0-1.3Zm0 2.6h-1.3a.65.65 0 1 0 0 1.3h1.3a.65.65 0 0 0 0-1.3Zm12.9-5.3-4.061-4.05a.622.622 0 0 0-.875 0l-4.066 4.063a.614.614 0 0 0 0 .87l.369.369a.609.609 0 0 0 .435.18.626.626 0 0 0 .442-.18l2.376-2.371v7.534a.609.609 0 0 0 .605.617h.522a.632.632 0 0 0 .634-.617v-7.56l2.39 2.4a.608.608 0 0 0 .863 0l.369-.369a.614.614 0 0 0 0-.87Z" data-name="Trazado 480"/>
</svg>