<svg xmlns="http://www.w3.org/2000/svg" viewBox="0 0 17.616 25.043">
  <g data-name="Grupo 315">
    <g data-name="Grupo 314">
      <path fill="none" stroke="#000" stroke-width="2.5" d="M8.808 1.25a4.625 4.625 0 1 1-4.625 4.625A4.625 4.625 0 0 1 8.808 1.25Z" data-name="Trazado 1039"/>
      <path fill="none" stroke="#000" stroke-width="2.5" d="M4.894 13.127h7.828a3.655 3.655 0 0 1 3.644 3.644v3.644H1.25v-3.648a3.655 3.655 0 0 1 3.644-3.64Z" data-name="Trazado 1040"/>
      <path fill-rule="evenodd" stroke-width=".5" d="M8.872 24.797a4.758 4.758 0 1 1 4.758-4.758 4.758 4.758 0 0 1-4.758 4.758Zm.538-5.562v3.118a.7.7 0 0 1-.154.49.508.508 0 0 1-.39.166.486.486 0 0 1-.384-.17.719.719 0 0 1-.148-.486v-3.085a.694.694 0 0 1 .148-.483.5.5 0 0 1 .384-.162.514.514 0 0 1 .39.162.629.629 0 0 1 .154.45Zm-.533-1.114a.57.57 0 0 1-.384-.137.488.488 0 0 1-.159-.391.483.483 0 0 1 .163-.375.552.552 0 0 1 .38-.148.565.565 0 0 1 .371.133.479.479 0 0 1 .162.39.492.492 0 0 1-.158.388.546.546 0 0 1-.375.14Z" data-name="Trazado 1041"/>
    </g>
  </g>
</svg>