<svg xmlns="http://www.w3.org/2000/svg" width="10.329" height="14.772" viewBox="0 0 10.329 14.772">
  <g id="Layer_x0020_1" transform="translate(0 0)">
    <g id="_2805402306048" transform="translate(0 0)">
      <path id="Trazado_1020" data-name="Trazado 1020" d="M103.607,384.565h-2.6a2.583,2.583,0,0,1-1.438-.38,2.492,2.492,0,0,1-1.188-1.928v-2.366a.422.422,0,0,1,.838.086c.014.332-.027,1.353.005,1.553a.442.442,0,0,0,.779.214.7.7,0,0,0,.11-.438V374.9a1.011,1.011,0,0,1,.046-.473.423.423,0,0,1,.7-.068.486.486,0,0,1,.094.338v4.445c0,.5-.144,1.356.433,1.356.327,0,.464-.242.463-.576a22.089,22.089,0,0,1,.045-2.581.424.424,0,0,1,.71-.052,5.29,5.29,0,0,1,.08,1.507c0,.356,0,.712,0,1.068,0,.3.066.635.433.635.6,0,.462-.776.462-1.212,0-.365-.064-.959.093-1.147a.419.419,0,0,1,.743.253c.034.453-.033,1.22,0,1.673a.441.441,0,0,0,.809.233c.186-.274,0-.786.131-1.023a.469.469,0,0,1,.877.156v2.741a2.446,2.446,0,0,1-.249.991,2.681,2.681,0,0,1-.245.39l-.453.47-.6.35a2.819,2.819,0,0,1-1.076.193Zm-4.386-5.857a1.946,1.946,0,0,0-.462-.058,1.293,1.293,0,0,0-.873.367,1.313,1.313,0,0,0-.4.873v2.222a3.435,3.435,0,0,0,.759,2.069c.071.084.126.158.2.233a3.407,3.407,0,0,0,2.273,1.016H103.9a3.15,3.15,0,0,0,1.574-.474,4.269,4.269,0,0,0,.712-.558l.357-.451a3.722,3.722,0,0,0,.3-.537,3.437,3.437,0,0,0,.289-1.385v-2.539a1.355,1.355,0,0,0-1.613-1.324,1.685,1.685,0,0,1-.234.054,1.3,1.3,0,0,0-1.448-1.1l-.312.064a1.339,1.339,0,0,0-1.674-.894v-1.5a1.426,1.426,0,0,0-.353-1.032,1.263,1.263,0,0,0-1.622-.251c-.729.435-.65,1.121-.65,1.86q0,1.673,0,3.347Z" transform="translate(-96.798 -370.659)" fill-rule="evenodd"/>
      <path id="Trazado_1021" data-name="Trazado 1021" d="M682.43,127.026a.453.453,0,0,0,.491.433c.229,0,.478-.319.613-.454s.454-.392.454-.642a.437.437,0,0,0-.462-.433c-.276,0-.487.3-.642.454s-.455.392-.455.642Z" transform="translate(-677.583 -125.036)" fill-rule="evenodd"/>
      <path id="Trazado_1022" data-name="Trazado 1022" d="M463.07.4v.952a.421.421,0,0,0,.121.312c.269.287.774.147.774-.4S464.1,0,463.5,0a.431.431,0,0,0-.433.4Z" transform="translate(-459.781 0)" fill-rule="evenodd"/>
      <path id="Trazado_1023" data-name="Trazado 1023" d="M150.3,126.353c0,.262.221.408.454.642.1.1.177.175.274.274.318.325.8.217.8-.31,0-.2-.329-.459-.454-.584-.29-.29-.345-.454-.7-.454a.417.417,0,0,0-.375.433Z" transform="translate(-149.232 -125.026)" fill-rule="evenodd"/>
      <path id="Trazado_1024" data-name="Trazado 1024" d="M0,420.9a.444.444,0,0,0,.433.462h.952a.435.435,0,0,0,.058-.866c-.415,0-1.105-.072-1.3.11A.528.528,0,0,0,0,420.9Z" transform="translate(0 -417.492)" fill-rule="evenodd"/>
      <path id="Trazado_1025" data-name="Trazado 1025" d="M796.536,423.326h1.039c.494,0,.516-.866,0-.866h-1.039C796.035,422.46,796.038,423.326,796.536,423.326Z" transform="translate(-790.506 -419.459)" fill-rule="evenodd"/>
    </g>
  </g>
</svg>
