<svg xmlns="http://www.w3.org/2000/svg" viewBox="0 0 50.381 50.378">
  <path fill-rule="evenodd" d="M3.397 45.034v-1.362h43.588c0 1.5.254 3.353-1.991 3.353H5.388a1.8 1.8 0 0 1-1.991-1.991Zm.415-16.555a1.5 1.5 0 0 1 .6-1.187 1.849 1.849 0 0 1 1.289-.387H44.68a1.849 1.849 0 0 1 1.289.387c1 .885.555 2.429.37 4.205l-.927 8.822H4.969l-.314-2.934c-.059-.961-.227-2.013-.305-2.943-.154-1.837-.533-4.3-.533-5.963Zm20.96-8.277a10.251 10.251 0 0 0 5.47-1.34c1.291-.811.844-.833 2.356.01a14.693 14.693 0 0 1 5.062 4.683H12.722a14.646 14.646 0 0 1 4.99-4.647c1.5-.817 1.145-.894 2.3-.13a5.362 5.362 0 0 0 .811.446 10.526 10.526 0 0 0 3.947.977Zm.524-3.353a7.165 7.165 0 0 1-4.79-1.916 7.526 7.526 0 0 1-2.02-4.79c0-4.923 5.322-8.09 9.362-6.114a6.9 6.9 0 0 1 1.089.588l.941.736a7.494 7.494 0 0 1 1.358 1.995 6.687 6.687 0 0 1-2.165 8.244 7.755 7.755 0 0 1-1.084.592 4.809 4.809 0 0 1-1.229.448 10.348 10.348 0 0 1-1.462.215Zm-10.268-6.706a10.19 10.19 0 0 0 .494 3.068c.323.909 1.04 2.24 1.077 2.38a18.72 18.72 0 0 0-7.125 6.701c-.276.415-.456.844-.733 1.258-3.066 0-5.792-.493-7.579 2.375C0 27.792.374 29.316.643 31.443l.869 8.876a1.348 1.348 0 0 0-.991.476 1.662 1.662 0 0 0-.476.991c0 3.107-.62 6.436 2.791 8.106a4.707 4.707 0 0 0 1.82.486h41.071a4.707 4.707 0 0 0 1.82-.486c3.411-1.671 2.791-5 2.791-8.106a1.647 1.647 0 0 0-1.467-1.467c0-1.843 1.153-9.665 1.153-11.84a5.121 5.121 0 0 0-5.027-4.927c-1.118.006-2.237 0-3.355 0-1.277-1.907-1.231-2.438-3.379-4.584a18.934 18.934 0 0 0-4.585-3.376 12.331 12.331 0 0 0 1.464-4.4 10.029 10.029 0 0 0-7-10.7c-5.157-1.585-9.508.849-11.915 4.878a10.174 10.174 0 0 0-1.2 4.776Z"/>
</svg>