<svg xmlns="http://www.w3.org/2000/svg" xml:space="preserve" fill-rule="evenodd" clip-rule="evenodd" image-rendering="optimizeQuality" shape-rendering="geometricPrecision" text-rendering="geometricPrecision" viewBox="0 0 4152.16 964.29"><path fill="currentColor" d="M2771.6 320.59c38.48 0 59.91 3.01 88.12 25.41 30.69 24.36 31.04 51.25 36.62 62.89h-239.67c.89-10.69 10.53-27.25 15.68-34.78 20.78-30.41 57.37-53.52 99.25-53.52m-194.82 135.95c0 29.35 5.19 57.41 13.59 78.91 3.92 10.02 9.68 22.42 15.01 31.24 47.28 78.25 145.09 104.37 232.11 83.28 47.1-11.42 85.36-37.31 110.12-77.7 8.55-13.96 24.41-48.59 24.41-69.49h-74.28c-11.17 47.96-55.23 85.5-106.52 85.5-25.14 0-46.39.34-69.17-10.72-6.62-3.21-13.81-6.5-19.15-10.29-5.12-3.63-11.93-8.47-16.49-12.95-23.02-22.61-35.36-53.49-35.36-87.98h318.16c8.6 0 3.11-24.92 2.8-30.83-1.22-23.19.3-27.59-7.89-55.19-9.19-31.01-18.56-41.9-35.55-63.96-12.03-15.61-39.96-33.91-58.05-41.46-64.48-26.94-157.17-23.93-213.28 16.82-4.51 3.27-9.62 6.79-13.52 10.3-2.94 2.65-3.58 3.58-6.68 5.94-2.65 2.02-4.22 3.13-6.6 6.01-35.07 42.44-53.66 78.34-53.66 142.56zm-783.48 9.82c0-38.34 4.1-66.79 28.35-96.39 7.86-9.59 14.24-15.73 24.89-22.77 68.64-45.36 201.85-21.61 201.85 103.74 0 24.21-.83 42.54-8.22 64.66-15.38 45.99-60.91 71.3-108.11 71.3-47.34 0-72.91-2.43-106.18-35.39-9.35-9.26-18.13-22.4-22.97-35.9-4.8-13.39-9.61-30.9-9.61-49.25m-74.29-5.61c0 85.16 42.39 159.39 120.34 185.21 57.54 19.06 132.01 14.35 181.22-25.22 9.64-7.75 19.58-22.64 21.64-35.82 1.53-9.84-2.61-11.81 7.58-12.04v75.69h72.88V448.14c0-107.66-83.92-190.62-193.42-190.62-40.17 0-63.14 2.35-97.73 17.21C1755.48 307.41 1719 379.17 1719 460.75zm2103.78 2.8c0-33.96 4-57.75 21.86-84.66 2.63-3.95 3.48-5.52 6.53-8.89 3.26-3.62 4.36-5.88 7.65-9.17 3.02-3.02 5.15-4.17 8.49-6.93 36.28-29.86 97.84-35.45 138.09-18.31 19.71 8.39 40.02 23.31 51.38 41.12 34.02 53.32 34.59 168.21-45.17 199.97-33.48 13.33-89.88 15.44-122.98-.99-16.78-8.34-21.27-12.25-33.99-24.88-18.02-17.92-31.86-51.6-31.86-87.27zm-74.28-2.8c0 19.43 3.84 48.04 9.29 66.39 10.57 35.55 21.1 49.07 40.95 73.98 5.2 6.53 23.23 20.95 30.58 25.48 4.53 2.79 7.68 4.64 12.26 7.36 63.76 37.89 194.01 27.58 225.09-34.43 2.39-4.77 4.51-8.41 5.23-14.39 1.19-9.91-2.88-12.03 7.37-12.26v75.69h72.88V445.34c0-50.82-22.06-99.57-56.41-134.2-28.56-28.8-79.97-53.61-137.01-53.61-40.17 0-63.14 2.35-97.73 17.21-58.98 25.34-96.72 75.87-107.93 140.15-1.21 6.93-2.88 15.42-3.18 22.04-.42 9.3-1.4 15.53-1.4 23.83zm-452.71-14.02v201.83h72.88V464.95c0-61.49 11.62-99.57 66.32-127.1 53.98-27.16 144.99-9.53 169.71 62.05 5.54 16.06 7.84 34.28 7.84 55.23v193.42h74.29V460.74c0-47-7.34-81.56-28.09-117.68-9.72-16.92-19.93-27.3-33.23-39.65-62.44-58.05-180.4-60.06-249.83-13.66-53.03 35.44-79.89 91.38-79.89 156.98M0 301.59v345.98c0 27.47 50.62 42.01 78.19 20.97 7.22-5.51 12.91-14.52 12.91-25V305.63c0-47.68-91.1-44.05-91.1-4.04m1219.38 187.62v344.96c0 41 91.1 43.36 91.1-2.02V490.21c0-17.29-19.33-32.28-47.65-32.28-22.59 0-43.45 15.01-43.45 31.27zM173.8 153.32v341.94c0 17.29 19.33 32.28 47.65 32.28 23.17 0 43.45-15.48 43.45-32.28V151.3c0-40.81-91.1-43.75-91.1 2.02m1219.37 152.31v337.91c0 10.48 5.7 19.49 12.91 25 27.57 21.04 78.19 6.5 78.19-20.97V301.59c0-16.34-21.19-31.27-43.45-31.27-28.27 0-47.66 15.08-47.66 35.3zm-696.58-3.03v343.96c0 13.18 12.22 24.37 26.86 29.08 32.6 10.49 64.24-8.2 64.24-29.08V302.6c0-17.08-20.55-32.28-46.25-32.28-23.71 0-44.85 15.21-44.85 32.28m173.79 196.69v335.89c0 10.94 3.47 18.52 10.86 24.46 13.16 10.58 20.51 11.85 38.2 11.85 22.49 0 42.05-15.89 42.05-29.25v-349c0-14-21.19-29.25-40.65-29.25-18.53 0-25.47 1.33-38.23 10.82-7.55 5.62-12.23 13.87-12.23 24.49zm175.2 87.76v346.98c0 16.19 22.08 30.26 40.65 30.26 18.68 0 26.25-1.6 38.92-11.33 7.83-6.02 11.53-14.69 11.53-25.99V594.11c0-21.57-19.53-37.32-40.65-37.32h-8.41c-21.63 0-42.05 14.7-42.05 30.26zM522.79 150.29v347.99c0 15.56 21.38 30.26 39.25 30.26 16.63 0 27.93-.62 40.45-11.23 7-5.94 11.41-13.35 11.41-24.07V156.35c0-31.42-46.35-46.24-77.45-26.49-5.94 3.77-13.65 12.87-13.65 20.43zM347.59 35.3v336.9c0 13.8 9.71 26.03 23.57 31.45 29.63 11.59 67.53-3.49 67.53-26.41V29.25c0-7.54-7.36-15.96-12.91-19.96C418.21 3.85 408.73.73 398.86 0h-8.99c-10.72.78-21.37 4.36-30.05 10.82-7.55 5.62-12.23 13.87-12.23 24.48M2321.7 188.84v246.68c0 68.77 13.26 124.79 48 159.43 8.9 8.88 17.15 16.85 28.64 23.22 44.63 24.72 85.56 30.39 140.6 30.39v-70.08c-42.22 0-80.51-6.27-105.16-23.79-27.46-19.52-37.8-58.39-37.8-92.55V336h138.76c3.23 0 4.2-.98 4.2-4.21v-61.67h-142.96v-81.29c0-3.23-.98-4.21-4.2-4.21h-65.88c-3.23 0-4.2.98-4.2 4.21zm-135.96 459.72h72.89V73.91h-72.89zm849.36-183.6v183.61h74.28V443.94c0-66.53 54.11-113.53 119.13-113.53h8.41v-71.48c-123.99 0-201.83 79.19-201.83 206.03z"/></svg>