<svg viewBox="0 0 24 24" xmlns="http://www.w3.org/2000/svg" xml:space="preserve" fill="currentColor" style="fill-rule:evenodd;clip-rule:evenodd;stroke-linejoin:round;stroke-miterlimit:2"><path d="M2 8.255v7.176c0 .57.682.871 1.054.435a.82.82 0 0 0 .174-.519V8.339C3.228 7.35 2 7.425 2 8.255m16.431 3.891v7.155c0 .85 1.227.899 1.227-.042v-7.092c0-.358-.26-.669-.642-.669-.304 0-.585.311-.585.648M4.342 5.18v7.092c0 .358.26.669.642.669.312 0 .586-.321.586-.669V5.138a.617.617 0 0 0-1.228.042m16.431 3.159v7.008c0 .218.076.405.173.519.372.436 1.054.135 1.054-.435V8.255c0-.339-.286-.648-.585-.648-.381 0-.642.312-.642.732m-9.387-.063v7.134c0 .273.165.505.362.603.439.218.866-.17.866-.603V8.276c0-.354-.277-.669-.624-.669-.319 0-.604.315-.604.669m2.342 4.08v6.966c0 .227.047.384.146.508.178.219.277.245.515.245.303 0 .567-.329.567-.606V12.23c0-.29-.286-.607-.548-.607-.25 0-.343.028-.515.225-.102.116-.165.287-.165.508m2.361 1.82v7.196c0 .336.297.628.548.628s.353-.033.524-.235c.106-.125.155-.305.155-.539v-6.904c0-.447-.263-.774-.547-.774h-.114c-.291 0-.566.305-.566.628M9.044 5.117v7.218c0 .322.289.627.529.627.224 0 .377-.012.545-.233a.77.77 0 0 0 .154-.499V5.243c0-.652-.624-.96-1.044-.55a.7.7 0 0 0-.184.424m-2.36-2.385v6.987c0 .287.131.54.317.653.4.24.91-.072.91-.548V2.607a.7.7 0 0 0-.174-.414A.57.57 0 0 0 7.375 2h-.121a.63.63 0 0 0-.405.224c-.102.117-.165.288-.165.508"/></svg>