<svg xmlns="http://www.w3.org/2000/svg" viewBox="0 0 656.141 623.313">
  <defs>
    <clipPath id="a">
      <path d="M0 1261.913h656.141V638.6H0Z" clip-rule="evenodd" data-name="Trazado 939" transform="translate(0 -638.6)"/>
    </clipPath>
    <clipPath id="b">
      <path d="M1139.5 6400.254h441.734V6018.1H1139.5Z" clip-rule="evenodd" data-name="Trazado 966" transform="translate(-1139.5 -6018.1)"/>
    </clipPath>
    <clipPath id="c">
      <path d="M9036.49 4366.414h176.332V4030.6H9036.49Z" clip-rule="evenodd" data-name="Trazado 969" transform="translate(-9036.49 -4030.6)"/>
    </clipPath>
  </defs>
  <g data-name="Grupo 286">
    <g clip-path="url(#a)" data-name="Grupo 285">
      <path fill="#fece2f" d="M35.159 119.554c-92.816 153.83 13.632 318.23 139.213 343.8 85.828 17.488 96.218 59.787 199.545 128.2 102.1 67.6 264.551 26.81 279.588-117.667s-34.8-275.169-146.17-378.808C365.8-36.618 127.965-34.286 35.16 119.555Z" data-name="Trazado 938"/>
    </g>
  </g>
  <path fill="none" d="M0 623.313h656.141V0H0Z" data-name="Trazado 940"/>
  <g clip-path="url(#b)" data-name="Grupo 290" transform="translate(25.878 121.176)">
    <g data-name="Grupo 289">
      <g data-name="Grupo 287">
        <path fill="#fece2f" d="M.993 338.896s18.19-82.1 27.588-108.441c12.14-34.05 27.449-58.91 78.482-121.384 30.2-40.571 31.621-74.621 35.416-93.677 4.8-24.044 34.572-17.383 37.155 15.471 2.841 35.981-6.746 62.475-16.461 95.469 0 0 139.8-24.342 168.408-98.993 7.56-28.624 45.927-27 34.542 12.484-19.114 66.586-108.494 106.839-108.494 106.839s77.161-29.48 125.77-84.119c30.062-33.8 49.016-1.752 29.684 24.343-40.483 54.639-126.306 94.125-126.306 94.125 39.41-4.331 90.145-31.919 120.783-56.75 29.7-24.064 45.7 4.679 21.18 31.312-37.751 41.119-119.292 69.245-119.292 69.245s56.457-4.53 88.526-27.05 39.4 4.331 17.812 21.644c-72.054 57.815-208.226 76.015-248.292 87.1-31.313 8.662-56.14 74.671-56.14 74.671L.993 338.901Zm0 0Z" data-name="Trazado 941"/>
      </g>
      <path fill="#fff" d="M427.834 200.307s-2.869-13.52-27.35 1.086-44.078 15.144-44.078 15.144 30.8-9.558 40.66-18.03 31.85-16.778 30.768 1.8Z" data-name="Trazado 942"/>
      <path fill="#fff" d="M440.093 124.572s-12.773-11.359-29.146 2.529-45.361 31.371-65.875 36.061c13.68-6.849 47.317-25.427 61.891-38.23s29.515-12.616 33.13-.36Z" data-name="Trazado 943"/>
      <path fill="#fff" d="M363.788 12.416s-18.189-4.5-26.822 19.116-39.381 54.759-70.386 59.288c7.739-3.982 45.033-20.7 64.286-61.817 5.574-16.408 19.611-28.664 32.922-16.587Z" data-name="Trazado 944"/>
      <path fill="#fff" d="M416.866 52.27s-13.281-2.2-25.879 11.868-55.205 52.618-88.555 60.981c31.67-15.87 70.324-50.507 81.68-63.838 11.027-12.935 25.869-17.126 32.754-9.011Z" data-name="Trazado 945"/>
      <path fill="#fff" d="M144.099 10.256a65.707 65.707 0 0 0-2.037 10.1l-.249.318v1.145c-.686 4.869-1.232 10.056-1.5 13.59v.06c-2.911 14.934-11.325 40.611-35.228 74.939-22.919 30.127-56.04 71.624-72 107.4C24.223 237.68.885 338.973.885 338.973s8.822 3.6 19.789 7.576c-7.55-34.618 10.8-95.748 19.978-116.844s21-4.978 25.343-35.543c6.03-12.5 25.621-52.22 37.751-65.959 14.306-16.228 46.6-66.048 47.526-109.706 3.03-13.83 8.941-15.6 20.912-9.05-4.869-6.768-18.638-14.882-28.085.809Z" data-name="Trazado 946"/>
      <path d="M313.233 239.346h-.029a1 1 0 0 1-.965-.757c-12.994-54.23-70.354-104.469-70.932-104.967a1 1 0 1 1 1.3-1.5c.586.5 58.424 51.145 71.527 106a.953.953 0 0 1 .029.235 1 1 0 0 1-.766.969Z" data-name="Trazado 947"/>
      <path d="M395.626 158.203a1 1 0 0 1-.633-.229 29.744 29.744 0 0 1-8.941-17.385 1.209 1.209 0 0 1-.01-.148 1.00273426 1.00273426 0 0 1 2-.148 28.123 28.123 0 0 0 8.293 16.158.992.992 0 0 1-.637 1.754h-.066Z" data-name="Trazado 948"/>
      <path d="M349.393 183.094a.99.99 0 0 1-.646-.238 29.711 29.711 0 0 1-8.941-17.383 1.3 1.3 0 0 1-.01-.15 1.00273426 1.00273426 0 0 1 2-.148 28 28 0 0 0 8.295 16.158 1 1 0 0 1-.654 1.762Z" data-name="Trazado 949"/>
      <path d="M371.161 100.866a1 1 0 0 1-.635-.239 29.664 29.664 0 0 1-8.939-17.374.769.769 0 0 1-.014-.15 1 1 0 0 1 .846-.984.975.975 0 0 1 .15-.012 1 1 0 0 1 .982.848 28.174 28.174 0 0 0 8.3 16.16 1 1 0 0 1-.648 1.752h-.039Z" data-name="Trazado 950"/>
      <path d="M333.736 62.271a.977.977 0 0 1-.406-.089c-.5-.229-12.021-5.685-11.644-17.394a.9931542.9931542 0 0 1 1.986.035v.035c-.328 10.374 10.381 15.472 10.49 15.521a1 1 0 0 1-.417 1.892Z" data-name="Trazado 951"/>
      <path d="M289.3 101.555a.991.991 0 0 1-.634-.229c-.407-.338-10.014-8.442-11.494-16.457a1.1 1.1 0 0 1-.016-.179 1.009 1.009 0 0 1 2-.179c1.361 7.317 10.719 15.2 10.818 15.282a1 1 0 0 1-.634 1.762h-.042Z" data-name="Trazado 952"/>
      <path d="M326.368 134.409a1 1 0 0 1-.645-.239 29.739 29.739 0 0 1-8.941-17.385.929.929 0 0 1-.012-.147 1 1 0 0 1 .855-.986 1.129 1.129 0 0 1 .139-.01.993.993 0 0 1 .984.855 28.122 28.122 0 0 0 8.295 16.148 1 1 0 0 1-.645 1.764Z" data-name="Trazado 953"/>
      <path d="M394.733 223.114a1.042 1.042 0 0 1-.645-.229 29.745 29.745 0 0 1-8.941-17.385.914.914 0 0 1-.012-.148.994.994 0 0 1 .846-.984.975.975 0 0 1 .15-.012.994.994 0 0 1 .982.848 28.221 28.221 0 0 0 8.275 16.158 1 1 0 0 1-.646 1.752h-.01Z" data-name="Trazado 954"/>
      <path d="M358.98 236.625a1 1 0 0 1-.744-.339 29.716 29.716 0 0 1-6.467-18.47.993.993 0 0 1 .992-.994 1 1 0 0 1 .994 1 28.191 28.191 0 0 0 5.961 17.154 1 1 0 0 1-.734 1.663Z" data-name="Trazado 955"/>
      <g data-name="Grupo 288">
        <path fill="#fece2f" d="M102.185 253.501s82.595-13.56 61.523-127.129Zm0 0Z" data-name="Trazado 956"/>
      </g>
      <path d="M102.176 254.497h-.08a1.00077982 1.00077982 0 0 1-.079-2c.288 0 28.81-4.978 47.576-31.81 16.054-22.9 20.475-54.589 13.143-94.145a1.011 1.011 0 1 1 1.987-.368c7.431 40.123 2.891 72.311-13.5 95.688-19.293 27.479-48.59 32.557-48.9 32.606Z" data-name="Trazado 957"/>
      <path d="M143.114 41.009a10.109 10.109 0 0 1-4.639-1.185 1 1 0 0 1 .993-1.723c.143.074 3.249 1.832 6.011.408 2.344-1.214 3.864-4.55 4.381-9.658 1.54-15.192-4.5-21.3-4.56-21.355a1 1 0 1 1 1.4-1.414c.278.258 6.805 6.74 5.156 23-.6 5.894-2.434 9.677-5.464 11.22a7.025 7.025 0 0 1-3.076.71h-.2Z" data-name="Trazado 958"/>
      <path d="M111.355 382.151a1.053 1.053 0 0 1-.347-.06 1 1 0 0 1-.576-1.283c.994-2.719 25.363-66.567 56.8-75.259 7.948-2.21 19.481-4.639 34.035-7.716 58.454-12.345 156.3-33.014 213.9-79.19 11-8.821 14.226-20.311 10.342-25.508-3.189-4.271-11.921-5.077-26.962 5.456-31.919 22.411-88.416 27.181-89.012 27.23h-.079a1 1 0 0 1-.318-1.944c.814-.279 81.7-28.514 118.875-68.966 13.273-14.446 14.177-28.932 8.275-35.234-4.47-4.779-14.206-5.884-28.094 5.366-30.012 24.313-80.767 52.5-121.3 56.949h-.107a.993.993 0 0 1-.409-1.9c.854-.388 86.052-40.014 125.918-93.815 10.123-13.671 9.329-29.043 2.235-34.847-5.583-4.56-16.5-3.863-30.379 11.758-48.182 54.182-125.382 84.089-126.167 84.378a1 1 0 0 1-.765-1.832c.894-.408 89.181-40.82 107.947-106.2 3.457-12.058 2.513-21.605-2.652-26.882-3.417-3.5-8.395-4.709-13.64-3.325-5.96 1.583-13.412 7.228-16.332 18.319v.05a.487.487 0 0 1 0 .05c-14.9 38.9-60.153 63.918-95.49 78.065a414.051 414.051 0 0 1-73.684 21.531.246.246 0 0 1-.152.037 1 1 0 0 1-.96-1.278q1.549-5.276 3.089-10.344c8.5-28.336 15.9-52.768 13.342-84.776-1.45-18.29-11.564-28.415-20.862-28.963-7.113-.408-12.617 4.779-14.375 13.581-.556 2.787-1.073 5.974-1.619 9.349-3.219 19.912-8.087 49.949-34 84.726-48.957 59.946-65.786 85.98-78.313 121.1C20.25 256.759 2.15 338.28 1.991 339.096a1.019 1.019 0 0 1-2.008-.224.969.969 0 0 1 .021-.2c.189-.826 18.319-82.457 27.628-108.521 12.617-35.374 29.515-61.528 78.621-121.683 25.591-34.349 30.419-64.107 33.608-83.811.546-3.386 1.063-6.591 1.629-9.429 1.986-9.876 8.245-15.711 16.471-15.232 10.113.6 21.15 11.37 22.68 30.794 2.543 32.338-4.848 56.969-13.421 85.5q-1.3 4.321-2.623 8.771a423.444 423.444 0 0 0 71.749-21.168c34.939-13.938 79.654-38.67 94.327-76.852 2.633-9.956 9.428-17.482 17.733-19.683 5.96-1.573 11.633-.169 15.567 3.863 3.3 3.375 8.086 11.608 3.139 28.872-9.935 34.658-39.082 62.047-61.772 78.912-8.166 6.073-16.114 11.25-23.078 15.472 26.823-13.251 69.6-37.933 100.427-72.6C401.336 40.899 412.761 47.4 415.81 49.93c7.779 6.343 9.269 22.511-1.887 37.574-34.2 46.068-101.254 81.741-121.082 91.7 39.012-6.382 85.813-32.766 114.1-55.675 14.951-12.116 25.71-10.623 30.8-5.187 6.507 6.969 5.822 22.62-8.265 37.942-30.7 33.4-90.751 58.492-112.01 66.706 16.74-2.19 55.633-8.9 79.952-25.966 20.346-14.287 27.866-7.447 29.684-4.979 4.431 5.975 1.6 18.4-10.689 28.256-57.968 46.365-156.119 67.094-214.733 79.479-14.514 3.066-25.989 5.485-33.916 7.686-30.459 8.423-55.216 73.387-55.464 74.034a.993.993 0 0 1-.93.646Z" data-name="Trazado 959"/>
      <path d="M229.026 292.45s-40.662 8.652-54.7 11.9-35.625 21.99-44.625 38.588-19.064 38.58-19.064 38.58l-15.478-6.123s.179-60.732 12.418-71.584 23.932 13.879 53.795-2.707c29.635-16.459 61.157-13.713 67.654-8.654Z" data-name="Trazado 960"/>
      <path d="M423.703 208.778s-15.479 14.067-21.6 16.587-8.99.728-14.027 7.576-20.156 11.9-23.752 11.9-13.641 11.182-13.641 11.182 34.492-15.661 53.26-27.768c21.25-13.703 19.76-19.477 19.76-19.477Z" data-name="Trazado 961"/>
      <path d="M418.298 75.666s-10.432 21.276-30.945 27.768c-7.2 2.528-15.111 25.606-37.752 41.118 35.596-25.926 61.861-47.57 68.697-68.886Z" data-name="Trazado 962"/>
      <path d="M434.134 148.558s-12.6 12.943-26.623 15.869-26.268 25.24-42.826 28.127-23.029 16.926-15.469 15.512 72.689-37.508 84.918-59.508Z" data-name="Trazado 963"/>
      <path d="M165.329 183.988c-5.96 29.75-19.968 55.445-62.07 70.051-28.373 9.836-27.171-6.67-17.455-8.473s21.24 2.52 30.409-16.926c6.219-13.221 37.244-14.9 49.116-44.652Z" data-name="Trazado 964"/>
      <path d="M178.82 56.869c-6.209 34.846-15.527 39.824-30.5 62.724-5.395 13.8 15.2 11.628 18.806 37.963 0-11.948-1.083-23.447-3.974-31.2 1.458-7.371 16.214-41.898 15.668-69.487Z" data-name="Trazado 965"/>
    </g>
  </g>
  <path fill="none" d="M25.878 503.331h441.734V121.177H25.878Z" data-name="Trazado 967"/>
  <path fill="none" d="M203.248 412.847h176.333V77.033H203.248Z" data-name="Trazado 968"/>
  <g clip-path="url(#c)" data-name="Grupo 291" transform="translate(203.248 77.033)">
    <path fill="none" stroke="#000" stroke-width="7.63" d="m0 0 176.332 335.814m0-335.814L0 335.815"/>
  </g>
  <path d="M245.386 78.039h92.052a40.984 40.984 0 0 1 41.129 40.825v252.155a40.981 40.981 0 0 1-41.128 40.824h-92.052a40.982 40.982 0 0 1-41.127-40.825V118.863a40.982 40.982 0 0 1 41.128-40.824Z" data-name="Trazado 970"/>
  <path d="M337.44 412.877h-92.051a42.025 42.025 0 0 1-42.141-41.85V118.861a42.027 42.027 0 0 1 42.141-41.83h92.051a42.027 42.027 0 0 1 42.142 41.829v252.166a42.024 42.024 0 0 1-42.139 41.85ZM245.389 79.043a40.007 40.007 0 0 0-40.114 39.82v252.164a40.013 40.013 0 0 0 40.117 39.838h92.049a40.009 40.009 0 0 0 40.115-39.81V118.861a40.009 40.009 0 0 0-40.115-39.819H245.39Z" data-name="Trazado 971"/>
  <path fill="#fece2f" d="M214.83 362.595h153.124V107.646H214.83Z" data-name="Trazado 972"/>
  <path fill="#fff" d="M214.903 362.598h16.056l117.913-254.951h-38.728l-95.241 205.93Z" data-name="Trazado 973"/>
  <path fill="#fff" d="M287.674 107.768h-12.906l-59.665 129v27.9Z" data-name="Trazado 974"/>
  <path fill="#fece2f" d="M271.519 91.874h39.639a2.705 2.705 0 0 1 2.715 2.695 2.705 2.705 0 0 1-2.715 2.694h-39.639a2.7 2.7 0 0 1-2.715-2.694 2.705 2.705 0 0 1 2.715-2.695Z" data-name="Trazado 975"/>
  <path d="M311.159 98.27H271.52a3.7 3.7 0 1 1 0-7.4h39.638a3.7 3.7 0 1 1 0 7.4Zm-39.639-5.39a1.6895 1.6895 0 1 0 0 3.379h39.638a1.69 1.69 0 1 0 0-3.379Z" data-name="Trazado 976"/>
  <path fill="#fece2f" d="M291.292 396.004a11.535 11.535 0 1 1 .031 0Zm0-20.834a9.411 9.411 0 1 0 9.483 9.41 9.448 9.448 0 0 0-9.483-9.41Z" data-name="Trazado 977"/>
  <path d="M367.965 363.605H214.83a1.009 1.009 0 0 1-1.012-1.005V107.628a1.01 1.01 0 0 1 1.013-1h153.135a1.01 1.01 0 0 1 1.014 1.006v254.971a1.007 1.007 0 0 1-1.013 1.005Zm-152.122-2.011h151.109V108.635H215.847Z" data-name="Trazado 978"/>
  <path fill="#282829" fill-rule="evenodd" d="M231.311 203.882v42.521c0 7 8.207 13.438 16.007 13.438h6.537c-.035 1.313-3.381 13.217-3.381 14.358 0 .788 1.246 1.506 2.168 1.4.98-.108 4.434-1.8 5.572-2.264l30.133-12.948c2.109-.882 4.531-.551 7.893-.551 11.12 0 22.248-.033 33.367 0 9.262.028 17.133-6.268 17.133-13.438v-42.516c0-3.757-2.757-7.158-5.687-9.529-3.168-2.563-8.025-3.724-12.8-3.724h-78.906c-5.259 0-9.816 1.647-12.459 3.817-2.889 2.371-5.577 5.679-5.577 9.436Zm24.019 3.685h67.15a6.307 6.307 0 0 1 6.29 6.289v19.964a6.308 6.308 0 0 1-6.29 6.289h-67.15a6.307 6.307 0 0 1-6.289-6.289v-19.964a6.307 6.307 0 0 1 6.289-6.289Zm44.131 12.112h15.743a2.56 2.56 0 0 1 2.553 2.554v3.19a2.56 2.56 0 0 1-2.553 2.553h-15.743a2.56 2.56 0 0 1-2.553-2.553v-3.19a2.56 2.56 0 0 1 2.553-2.553Zm-37.751 0h15.743a2.56 2.56 0 0 1 2.553 2.553v3.191a2.56 2.56 0 0 1-2.553 2.553h-15.742a2.56 2.56 0 0 1-2.553-2.553v-3.19a2.56 2.56 0 0 1 2.553-2.553Z" data-name="Trazado 979"/>
</svg>