<svg xmlns="http://www.w3.org/2000/svg" viewBox="0 0 17.263 20.899">
  <g data-name="Grupo 263">
    <path d="M13.579 4.732H9.271v-.75a1.643 1.643 0 0 0 1-1.511 3.654 3.654 0 0 0-.353-1.393C9.504.187 8.99 0 8.631 0s-.873.187-1.287 1.078a3.653 3.653 0 0 0-.353 1.393 1.643 1.643 0 0 0 1 1.511v.749H3.684A3.688 3.688 0 0 0 0 8.415v1.569a3.3 3.3 0 0 0 1.345 2.658v4.572A3.688 3.688 0 0 0 5.029 20.9h7.205a3.688 3.688 0 0 0 3.684-3.684v-4.574a3.3 3.3 0 0 0 1.34-2.658V8.416a3.688 3.688 0 0 0-3.679-3.684ZM8.631 1.38a2.608 2.608 0 0 1 .361 1.091.361.361 0 0 1-.722 0 2.608 2.608 0 0 1 .361-1.091Zm6.007 15.834a2.408 2.408 0 0 1-2.4 2.4H5.029a2.407 2.407 0 0 1-2.4-2.4v-4a3.3 3.3 0 0 0 3.344-1.282 3.3 3.3 0 0 0 5.328 0 3.3 3.3 0 0 0 3.343 1.282v4Zm1.345-7.231a2.024 2.024 0 1 1-4.048 0 .64.64 0 1 0-1.279 0 2.024 2.024 0 1 1-4.048 0 .64.64 0 0 0-1.279 0 2.024 2.024 0 1 1-4.048 0V8.416a2.408 2.408 0 0 1 2.4-2.4h9.894a2.408 2.408 0 0 1 2.4 2.4Z" data-name="Trazado 234"/>
  </g>
</svg>