<svg xmlns="http://www.w3.org/2000/svg" xmlns:xlink="http://www.w3.org/1999/xlink" width="43.925" height="43.925" viewBox="0 0 43.925 43.925">
  <defs>
    <linearGradient id="linear-gradient" y1="0.5" x2="1" y2="0.5" gradientUnits="objectBoundingBox">
      <stop offset="0" stop-color="#fff212"/>
      <stop offset="1" stop-color="#ffcc29"/>
    </linearGradient>
  </defs>
  <g id="Capa_x0020_1" transform="translate(0 0)">
    <circle id="Elipse_15" data-name="Elipse 15" cx="21.962" cy="21.962" r="21.962" transform="translate(0 0)" fill="url(#linear-gradient)"/>
    <path id="Trazado_906" data-name="Trazado 906" d="M12.36,13.412c0,.351.373.713.577.984L16.7,19.42c.769,1.018.713.747.317,1.279-.113.158-.2.272-.317.43-.215.283-.419.554-.622.837l-3.44,4.594c-.181.238-.272.306-.272.577a.575.575,0,0,0,.566.566,1.244,1.244,0,0,0,.509-.181l.984-.441c.079-.034.147-.079.226-.113l4.141-1.9c.509-.2,1.414-.668,1.957-.905l1.188-.554c.769-.351,1.991-.883,2.693-1.233l3.406-1.584a.563.563,0,0,0,.283-.532c0-.487-.713-.656-1.211-.905-.158-.079-.317-.147-.487-.226l-6.336-2.919c-.758-.373-1.731-.769-2.455-1.131-.17-.091-.317-.147-.487-.226-.713-.362-1.7-.758-2.433-1.12a2.144,2.144,0,0,0-.238-.1A9.035,9.035,0,0,0,12.9,12.88a.577.577,0,0,0-.532.566Z" transform="translate(1.625 1.694)" fill-rule="evenodd"/>
  </g>
</svg>
