<svg id="lifeline-hand-drawn-status-line_1_" data-name="lifeline-hand-drawn-status-line (1)" xmlns="http://www.w3.org/2000/svg" width="32.96" height="14.052" viewBox="0 0 32.96 14.052">
  <g id="Grupo_264" data-name="Grupo 264" transform="translate(0 0)">
    <path id="Trazado_235" data-name="Trazado 235" d="M32.936,146.3c-.007-.142-.013-.283-.028-.372a1,1,0,0,0-.094-.286,2.785,2.785,0,0,0-2.553-1.6,3.437,3.437,0,0,0-1.308.268,1.251,1.251,0,0,0-.286.163c-.053.041-.12.1-.192.158-.095.08-.2.168-.284.23a2.7,2.7,0,0,0-.827.916h-.014c-.681-.052-1.487-.109-2.294-.135a.552.552,0,0,1-.385-.215,13.659,13.659,0,0,1-1.04-1.957.763.763,0,0,0-.465-.415,1.219,1.219,0,0,0-.425-.06.6.6,0,0,0-.073-.005h-3.69a.948.948,0,0,0-.37.071,1.208,1.208,0,0,0-.412.327.938.938,0,0,0-.1.139c-.325.566-.681,1.167-1.089,1.835-.006.009-.011.016-.014.022a.2.2,0,0,1-.014-.023,56.778,56.778,0,0,1-2.461-5.47.955.955,0,0,0-.912-.622.926.926,0,0,0-.882.544,1.9,1.9,0,0,0-.084.379,1.842,1.842,0,0,1-.059.286,60.554,60.554,0,0,0-2.481,9.327q-.593-.981-1.191-1.961c-.815-1.337-1.657-2.72-2.462-4.093a.856.856,0,0,0-.756-.45,1.014,1.014,0,0,0-.672.264,1.181,1.181,0,0,0-.338.463c-.193.461-.392.921-.59,1.38l-.167.387a.389.389,0,0,1-.316.208H.9a.93.93,0,0,0,0,1.859H4.294l.049,0c.019,0,.045,0,.078,0a.935.935,0,0,0,.343-.061,1.065,1.065,0,0,0,.57-.6q.208-.5.422-.988.754,1.256,1.518,2.506c.755,1.24,1.535,2.522,2.285,3.793.026.043.052.1.081.153a1.43,1.43,0,0,0,.32.472.9.9,0,0,0,.564.184,1.012,1.012,0,0,0,1.024-.868,55.8,55.8,0,0,1,2.2-9.592c.666,1.516,1.424,3.074,2.317,4.76a.922.922,0,0,0,.217.276,1.246,1.246,0,0,0,.7.242.889.889,0,0,0,.764-.43c.522-.817,1.051-1.684,1.614-2.651a.487.487,0,0,1,.363-.209H22a.428.428,0,0,1,.333.211,15.2,15.2,0,0,0,1.123,1.9,1.227,1.227,0,0,0,.1.122,1.16,1.16,0,0,0,.363.311.916.916,0,0,0,.409.092c.924,0,1.858.065,2.65.124a.365.365,0,0,1,.281.236,4.664,4.664,0,0,0,.488.993.986.986,0,0,0,.2.228,1.161,1.161,0,0,0,.25.152l.015.012a3.14,3.14,0,0,0,3.165.4.993.993,0,0,0,.1-.047c.015-.008.037-.017.063-.028a1.935,1.935,0,0,0,.194-.093.962.962,0,0,0,.18-.135,3.357,3.357,0,0,0,1.042-2.794C32.943,146.462,32.94,146.381,32.936,146.3Zm-3.866,1.111a1.009,1.009,0,0,1-.1-.707c.107-.4.8-.632,1.184-.763a.311.311,0,0,0,.052-.022.576.576,0,0,1,.12-.01.79.79,0,0,1,.173.018.868.868,0,0,1,.441.255.62.62,0,0,1,.152.289,1.111,1.111,0,0,0,.014.158,1.429,1.429,0,0,1-.238,1.056.866.866,0,0,1-.435.29,1.318,1.318,0,0,1-.988-.155A1.107,1.107,0,0,1,29.07,147.413Z" transform="translate(0 -139.27)"/>
  </g>
</svg>
