<svg xmlns="http://www.w3.org/2000/svg" width="15.122" height="17.079" viewBox="0 0 15.122 17.079">
  <g id="Layer_x0020_1" transform="translate(0 0)">
    <path id="Trazado_992" data-name="Trazado 992" d="M12.851,6.577c0,.928,1.146.091,1.347,1.349.05.316.015,7.512.015,7.733L12.9,14.618a.76.76,0,0,0-.529-.266l-4.713,0c-1,0-2.248.242-2.48-.671a4.011,4.011,0,0,1-.046-.749.459.459,0,0,0-.908,0,2.043,2.043,0,0,0,.546,1.81,1.718,1.718,0,0,0,1.213.519c2.017-.009,4.066.017,6.076,0,.254,0,.246.065.562.317l1.451,1.16c.286.223.338.341.653.341a.467.467,0,0,0,.4-.4v-8.8a1.6,1.6,0,0,0-.174-.677A1.834,1.834,0,0,0,13.419,6.18h-.17a.467.467,0,0,0-.4.4ZM3.22,11.026c-.186,0-1.278.348-1.55.425-.246.07-.749.3-.776-.062a8.7,8.7,0,0,1,.245-.908c.06-.208.111-.378.171-.585.256-.891.183-.562-.138-1.284a5.575,5.575,0,0,1,.614-5.754A5.667,5.667,0,0,1,5.162.746L5.736.662A5.7,5.7,0,0,1,7.76.851a5.5,5.5,0,0,1,2.1,1.119c.066.061.1.078.171.146A5.461,5.461,0,0,1,11.639,4.73a4.432,4.432,0,0,1,.119.515,5.365,5.365,0,0,1,.032,1.789,5.315,5.315,0,0,1-.43,1.5A5.666,5.666,0,0,1,8.86,11.2a6.077,6.077,0,0,1-1.43.522,5.69,5.69,0,0,1-3.958-.608.409.409,0,0,0-.252-.089ZM0,6.172A6.233,6.233,0,0,0,.594,8.92c.179.386.243.311.166.547L.4,10.714C.27,11.168.1,11.605.493,12s.815.228,1.263.1l1.364-.4c.1-.022.208.072.4.169a6.393,6.393,0,0,0,2.529.618,6.093,6.093,0,0,0,2.821-.569,6.444,6.444,0,0,0,1.795-1.254,6.51,6.51,0,0,0,.687-.825A6.121,6.121,0,0,0,12.49,6.416a6.143,6.143,0,0,0-.83-3.292A6.288,6.288,0,0,0,8.9.585,6.146,6.146,0,0,0,6.465,0H6.026A6.244,6.244,0,0,0,0,6.172Zm4.708-.683a2.6,2.6,0,0,0,.75,1.519,2.524,2.524,0,0,0,.657.49l.387.174c.582.231.635.06.883-.188.46-.46.416-.4.762-.14.1.074.19.144.289.223s.19.139.29.222c.185.153.427.214.045.716a1.162,1.162,0,0,1-.85.467,3.85,3.85,0,0,1-.639-.032,4.212,4.212,0,0,1-1.045-.273c-.173-.069-.288-.13-.448-.21a1.574,1.574,0,0,1-.213-.129,5.851,5.851,0,0,1-.741-.576,1.215,1.215,0,0,1-.162-.179c-.055-.072-.1-.1-.153-.164l-.427-.6c-.406-.643-.882-2.208-.331-2.878a1.129,1.129,0,0,1,.653-.42c.131,0,.209.154.276.236l.445.579c.16.215.206.206.206.38,0,.121-.634.557-.634.78Zm-1.829-1a4.75,4.75,0,0,0,.463,2.293A5.427,5.427,0,0,0,4.935,8.677a6,6,0,0,0,.724.447,5.143,5.143,0,0,0,1.324.432,2.39,2.39,0,0,0,2.061-.39,1.98,1.98,0,0,0,.343-.414.965.965,0,0,0-.05-1.307l-.451-.354c-.291-.219-.7-.6-1.032-.6-.586,0-.68.4-1,.61A2.068,2.068,0,0,1,5.392,5.635c.179-.268,1.015-.7.376-1.547l-.724-.935A.949.949,0,0,0,3.77,3.087a1.8,1.8,0,0,0-.892,1.4Z" fill-rule="evenodd"/>
  </g>
</svg>
