<svg xmlns="http://www.w3.org/2000/svg" width="18.269" height="20.991" viewBox="0 0 18.269 20.991">
  <path id="Trazado_993" data-name="Trazado 993" d="M14.99,13.586a1.083,1.083,0,1,1,.329.767,1.283,1.283,0,0,1-.329-.767ZM9.162,7.734a1.083,1.083,0,1,1,.328.768,1.283,1.283,0,0,1-.329-.767ZM15.355.191V1.883H5.292a3.187,3.187,0,0,0-1.881.763,1.27,1.27,0,0,0-.39.386,3.285,3.285,0,0,0-.2,4.027A3.128,3.128,0,0,0,4.04,8.123a3.373,3.373,0,0,0,1.889.343H8.206a2.158,2.158,0,0,0,1.867,1.463h.364A2.158,2.158,0,0,0,12.3,8.466c1.151,0,2.961-.3,3.051,1.508.024.492,0,1.055,0,1.555A2.158,2.158,0,0,0,13.9,13.4v.366a2.164,2.164,0,0,0,1.457,1.874c0,.909.053,1.382-.42,1.864-.507.518-.894.467-1.857.467H9.618c-.925,0-.82-.013-.82,1.1a.343.343,0,0,0,.364.366H14.08a2.929,2.929,0,0,0,2.66-2.221,7.461,7.461,0,0,0,.072-1.573,2.163,2.163,0,0,0,1.457-1.874V13.4a2.164,2.164,0,0,0-1.457-1.874c0-1.5.244-2.567-.854-3.669S13.789,7,12.3,7A2.158,2.158,0,0,0,10.437,5.54h-.364A2.154,2.154,0,0,0,8.206,7a22.555,22.555,0,0,1-3.084-.057,1.818,1.818,0,0,1-.28-3.457,2.251,2.251,0,0,1,.814-.142h9.7V5.037c0,.19.169.183.273.183a11.085,11.085,0,0,0,1.332-1.269l1.309-1.337L16.982,1.3A11.387,11.387,0,0,0,15.628.009c-.1,0-.273-.007-.273.183ZM1.191,16.687l1.979,2a2.241,2.241,0,0,0,.223-.093L5.26,17.7c.081-.038.131-.053.21-.093l2.918-1.383a10.279,10.279,0,0,0,1.235-.612c.279-.339-.154-.636-.49-.972L4.885,10.376c-.1-.105-.209-.252-.4-.252-.318,0-.366.316-.545.672-.32.637-.758,1.612-1.074,2.3l-.893,1.893c-.092.224-.745,1.549-.78,1.7ZM3.712,19.2c.028.1.132.168.2.24l1.4,1.407A.489.489,0,0,0,5.583,21h.092c.172-.026.32-.195.471-.346l.817-.82c.567-.569.4-.591-.175-1.172a7.362,7.362,0,0,1-.6-.615,1.262,1.262,0,0,0-.311.133L3.712,19.195ZM0,17.976c0,.269.188.388.391.592l.91.914c.137.137.334.393.543.393s.342-.191.461-.31a4.058,4.058,0,0,0,.379-.393l-1.979-2a3.933,3.933,0,0,0-.385.375C.226,17.644,0,17.816,0,17.976Z" transform="translate(0 -0.009)" fill-rule="evenodd"/>
</svg>
