<svg xmlns="http://www.w3.org/2000/svg" viewBox="0 0 19.888 19.888">
  <g fill-rule="evenodd">
    <path d="M2.175 9.944a8.12 8.12 0 0 1 .7-3.186 8.364 8.364 0 0 1 1.12-1.792l.971-.971a7.765 7.765 0 0 1 9.956 0l.51.461a11.737 11.737 0 0 1 .878 1.066 7.753 7.753 0 0 1-.416 9.4l-.971.971a7.735 7.735 0 0 1-6.713 1.61 7.479 7.479 0 0 1-3.482-1.84 6.79 6.79 0 0 1-1.151-1.3 7.745 7.745 0 0 1-.705-1.237 8.107 8.107 0 0 1-.7-3.186ZM9.51 0h.722a11.524 11.524 0 0 1 2.622.427c.158.043.279.083.442.14a10.1 10.1 0 0 1 2.726 1.508 9.782 9.782 0 0 1 2.068 2.166l.249.373a8.108 8.108 0 0 1 .636 1.15c.124.3.244.535.352.852a10.1 10.1 0 0 1 .558 2.9v.722a11.524 11.524 0 0 1-.427 2.622 9.29 9.29 0 0 1-1.148 2.461 9.74 9.74 0 0 1-.76 1.027c-.116.144-.174.194-.3.325-.107.116-.15.191-.271.312s-.212.175-.331.29a9.59 9.59 0 0 1-1.739 1.29 10.038 10.038 0 0 1-1.644.765 8.666 8.666 0 0 1-.928.277 9.466 9.466 0 0 1-2.671.281 9.757 9.757 0 0 1-6.456-2.632c-.116-.107-.191-.15-.312-.271a11.469 11.469 0 0 1-1.575-2.075A9.79 9.79 0 0 1 0 9.672a9.684 9.684 0 0 1 1.576-5.105c.091-.149.142-.208.234-.348s.158-.213.265-.356.166-.205.26-.322l.567-.637A10.385 10.385 0 0 1 6.617.558 10.1 10.1 0 0 1 9.51 0Z" data-name="Trazado 995"/>
    <path d="M9.089 6.06v3.807c0 .934.2.954.67 1.428l2.641 2.641a.85.85 0 0 0 1.544-.534c0-.412-.389-.719-.612-.942l-2.331-2.331c-.238-.233-.208-.134-.2-.573V5.672c-.067-.9-1.709-1.2-1.709.388Z" data-name="Trazado 996"/>
  </g>
</svg>