<svg xmlns="http://www.w3.org/2000/svg" viewBox="0 0 23.016 17.262">
  <g data-name="Grupo 309">
    <path fill-rule="evenodd" d="M1.439 14.475V2.787a1.247 1.247 0 0 1 1.349-1.349H20.23a1.247 1.247 0 0 1 1.349 1.349v11.688a1.247 1.247 0 0 1-1.349 1.349H2.788a1.247 1.247 0 0 1-1.349-1.349ZM0 2.472V14.79a2.645 2.645 0 0 0 2.472 2.472h18.117a2.677 2.677 0 0 0 2.428-2.428V2.472A2.645 2.645 0 0 0 20.544 0H2.472A2.643 2.643 0 0 0 0 2.472ZM2.877 12v.809a.733.733 0 0 0 1.367.243c.212-.378-.152-1.054.418-1.65a1.07 1.07 0 0 1 .732-.346h3.6a1.156 1.156 0 0 1 1.055 1.013c.053.294-.035.719.079.954a.734.734 0 0 0 1.383-.214 3.1 3.1 0 0 0-.269-1.754 2.643 2.643 0 0 0-2.297-1.48H5.439A2.683 2.683 0 0 0 3.7 10.3a2.652 2.652 0 0 0-.823 1.7Zm3.371-5.8a.945.945 0 1 1 .279.71.946.946 0 0 1-.279-.71Zm.809 2.428a2.355 2.355 0 0 0 2.351-1.47 2.586 2.586 0 0 0 .2-.99 2.417 2.417 0 0 0-4.831 0 2.729 2.729 0 0 0 .182.963 2.88 2.88 0 0 0 .468.746 2.4 2.4 0 0 0 1.631.752Zm7.238.989h4.99a.746.746 0 1 0 .135-1.484h-5.26a.748.748 0 1 0 .135 1.487Zm-.135 3.821h5.26a.746.746 0 1 0-.135-1.484h-4.99a.748.748 0 1 0-.135 1.488Zm-.045-7.687h5.395c.326 0 .629-.312.629-.809a.739.739 0 0 0-.629-.629h-5.395a.72.72 0 0 0 0 1.439Z" data-name="Trazado 1016"/>
  </g>
</svg>