<svg xmlns="http://www.w3.org/2000/svg" viewBox="0 0 22.392 20.992">
  <g fill-rule="evenodd">
    <path d="M9.753 18.19h2.886v1.49H9.753ZM1.31 15.919v-.529h19.77a2.18 2.18 0 0 1-.154 1.158.764.764 0 0 1-.5.285H1.968c-.422 0-.656-.424-.656-.918Zm0-13.729a.793.793 0 0 1 .875-.875H20.21a.793.793 0 0 1 .875.875v11.848H1.31V2.19ZM0 1.924v14.345a2 2 0 0 0 .217.788A2.148 2.148 0 0 0 2.23 18.19h6.21c0 1.775.208 1.487-.744 1.487a8.968 8.968 0 0 0-1.735.058.67.67 0 0 0 .249 1.255h9.971a.668.668 0 0 0 .3-1.22 1.517 1.517 0 0 0-.827-.092h-1.358c-.461.007-.347.138-.347-1.49h6.21a2.141 2.141 0 0 0 2.013-1.136 1.994 1.994 0 0 0 .217-.876V1.924A2.081 2.081 0 0 0 20.467 0H1.924A2.064 2.064 0 0 0 0 1.924Z" data-name="Trazado 981"/>
    <path d="M10.409 11.065a1.388 1.388 0 0 1 1.574 0c-.334.631-.707 1.272-1.263.519a3.285 3.285 0 0 1-.311-.519Zm3.761-1.006h-.437a2.664 2.664 0 0 1 .205-.888c.082-.1.179-.134.287-.238a.725.725 0 0 1 .338-.232c.056.24.957 1.356-.394 1.356Zm-6.691-.394c0-.445.3-.751.35-.962a3.44 3.44 0 0 1 .626.467 2.625 2.625 0 0 1 .205.888c-.31.001-1.181.043-1.181-.393Zm2.274-1.964.044-.831a9 9 0 0 1 1.4-.787 9 9 0 0 1 1.4.787l.044.831c0 .343-.044.5-.044.831a4.232 4.232 0 0 0-.685.408c-.127.07-.219.109-.35.175-.152.076-.229.133-.364.2l-1.4-.787c0-.334-.044-.488-.044-.831Zm3.98-2.405c1.928 0 .974.82.831 1.356a1.778 1.778 0 0 1-.631-.463c-.1-.113-.054-.023-.124-.4a3.738 3.738 0 0 1-.076-.497Zm-5.9 1.356c-.143-.535-1.1-1.356.831-1.356a2.388 2.388 0 0 1-.2.893 2.163 2.163 0 0 1-.287.238c-.147.112-.144.204-.348.221ZM11.2 3.459c.352 0 .738.663.787.875-.259.022-.591.243-.787.243s-.528-.221-.787-.243c.05-.216.431-.879.783-.879Zm-2.1.525a4.717 4.717 0 0 0-1.679.114c-1.668.556-1.466 2.124-.665 3.324.076.114.138.184.2.279a3.322 3.322 0 0 0-.787 1.707c-.115 1.337.84 2.01 2.273 2.01.291 0 .379-.044.656-.044a3.693 3.693 0 0 0 .689 1.192 1.76 1.76 0 0 0 2.272.458 3.173 3.173 0 0 0 1.237-1.649l.744.044c1.292 0 2.312-.716 2.192-1.927a3.21 3.21 0 0 0-.792-1.79c.06-.089.115-.15.184-.253a4 4 0 0 0 .489-.954 1.733 1.733 0 0 0-1.1-2.385 4.665 4.665 0 0 0-1.712-.125 3.135 3.135 0 0 0-1.275-1.655 1.768 1.768 0 0 0-2.187.423 3.99 3.99 0 0 0-.736 1.232Z" data-name="Trazado 982"/>
  </g>
</svg>