
<svg xmlns="http://www.w3.org/2000/svg" viewBox="0 0 20.728 19">
  <path fill-rule="evenodd" d="M1.382 15.934V7h17.964v8.939a1.569 1.569 0 0 1-1.684 1.684H3.066a1.569 1.569 0 0 1-1.684-1.684Zm0-11.832a1.569 1.569 0 0 1 1.684-1.684h2.245c0 .635.109 1.036.82 1.036.561 0 .6-.615.6-1.036h7.255c0 .482.008 1.036.734 1.036.618 0 .691-.571.691-1.036h2.246A1.569 1.569 0 0 1 19.346 4.1v1.47H1.382V4.1ZM5.311.82v.216H2.72A2.928 2.928 0 0 0 0 3.757v12.48a2.962 2.962 0 0 0 .95 1.987 3.328 3.328 0 0 0 .418.316A3.129 3.129 0 0 0 3.11 19h14.509a2.959 2.959 0 0 0 3.109-2.763V3.757A2.94 2.94 0 0 0 19.1 1.323a2.686 2.686 0 0 0-1.095-.287h-2.589C15.416.4 15.307 0 14.6 0c-.561 0-.6.615-.6 1.036H6.736C6.736.561 6.725 0 6 0c-.456 0-.691.369-.691.82Z" />
</svg>