<svg xmlns="http://www.w3.org/2000/svg" width="20" height="18.334" viewBox="0 0 20 18.334">
  <g id="Layer_x0020_1" transform="translate(0 0.01)">
    <path id="Trazado_991" data-name="Trazado 991" d="M1.333,15.365V6.74H18.667v8.625a1.514,1.514,0,0,1-1.625,1.625H2.959a1.514,1.514,0,0,1-1.625-1.625Zm0-11.417A1.514,1.514,0,0,1,2.958,2.324H5.125c0,.613.106,1,.792,1,.541,0,.583-.594.583-1h7c0,.465.008,1,.708,1,.6,0,.667-.551.667-1h2.167a1.514,1.514,0,0,1,1.625,1.625V5.365H1.333V3.949ZM5.125.782V.99h-2.5A2.825,2.825,0,0,0,0,3.615V15.657a2.859,2.859,0,0,0,.916,1.917,3.247,3.247,0,0,0,.4.305A3.019,3.019,0,0,0,3,18.324H17a2.855,2.855,0,0,0,3-2.667V3.615a2.836,2.836,0,0,0-1.569-2.348A2.592,2.592,0,0,0,17.375.99h-2.5c0-.613-.106-1-.792-1-.541,0-.583.594-.583,1h-7c0-.458-.011-1-.708-1-.44,0-.667.356-.667.792ZM7.042,14.989V8.065a9.407,9.407,0,0,1,1.129.606c.129.072.24.138.369.209l1.106.629c.537.318,1.123.629,1.652.942.065.038.127.077.189.109l1.471.843a1.288,1.288,0,0,1-.35.245l-5.39,3.3c-.086.052-.175.132-.175.04Zm.051.793H6.955a.715.715,0,0,1-.262-.08.8.8,0,0,1-.394-.7V8.115a.867.867,0,0,1,.21-.55A.672.672,0,0,1,6.722,7.4a.657.657,0,0,1,.357-.077h.029a2.419,2.419,0,0,1,.925.414l1.7.965c.142.084.28.165.42.241.071.039.135.079.21.121s.139.073.213.118c.285.17.569.325.85.488.475.274,1.541.847,1.9,1.088a.835.835,0,0,1,.376.615c0,.462-.255.639-.6.852l-2.543,1.555C9.57,14.365,8.571,15,7.584,15.6a1.2,1.2,0,0,1-.491.185Z" transform="translate(0 0)" fill-rule="evenodd"/>
  </g>
</svg>
