<svg xmlns="http://www.w3.org/2000/svg" width="20.728" height="19" viewBox="0 0 20.728 19">
  <g id="Grupo_312" data-name="Grupo 312" transform="translate(-1267.136 -110.656)">
    <g id="Layer_x0020_1" transform="translate(1267.136 110.656)">
      <path id="Trazado_980" data-name="Trazado 980" d="M1.382,15.934V7H19.346v8.939a1.569,1.569,0,0,1-1.684,1.684H3.066a1.569,1.569,0,0,1-1.684-1.684Zm0-11.832A1.569,1.569,0,0,1,3.066,2.418H5.311c0,.635.109,1.036.82,1.036.561,0,.6-.615.6-1.036h7.255c0,.482.008,1.036.734,1.036.618,0,.691-.571.691-1.036h2.246A1.569,1.569,0,0,1,19.346,4.1V5.57H1.382V4.1ZM5.311.82v.216H2.72A2.928,2.928,0,0,0,0,3.757v12.48a2.962,2.962,0,0,0,.95,1.987,3.328,3.328,0,0,0,.418.316A3.129,3.129,0,0,0,3.11,19H17.619a2.959,2.959,0,0,0,3.109-2.763V3.757A2.94,2.94,0,0,0,19.1,1.323a2.686,2.686,0,0,0-1.095-.287H15.416C15.416.4,15.307,0,14.6,0c-.561,0-.6.615-.6,1.036H6.736C6.736.561,6.725,0,6,0c-.456,0-.691.369-.691.82Z" transform="translate(0 0)" fill-rule="evenodd"/>
    </g>
    <g id="Capa_x0020_1" transform="translate(1273.012 118.468)">
      <g id="_2784216756944" transform="translate(0.041 0.007)">
        <path id="Trazado_1012" data-name="Trazado 1012" d="M252.932,3.129c-.086-.084-.036-.177.028-.243a4.216,4.216,0,0,1,.679-.233l1.147-.357c.618-.182,1.209-.379,1.826-.561l.453-.146c.46-.156,1.121-.334,1.6-.491.079-.026.142-.051.226-.073l1.132-.349c.2-.053.175-.086.3.04.07.068-.052.376-.081.47-.05.159-.079.312-.13.471-.12.37-.229.844-.341,1.185-.029.088-.042.153-.068.243l-.205.7c-.152.481-.321,1.2-.476,1.671-.053.16-.088.309-.132.471s-.594,2.1-.634,2.155a.2.2,0,0,1-.231.035c-.1-.1-1.286-3.05-1.4-3.226.34-.347,1-1,1.3-1.332a.323.323,0,1,0-.46-.45c-.319.3-.972.994-1.3,1.333l-.806-.326c-.276-.115-.539-.21-.806-.322-.184-.078-1.582-.619-1.628-.664Zm-.465.414c.217.213.228.175.518.3l.852.341c.286.113,2.126.835,2.175.883s.651,1.506.739,1.7l.367.859c.062.148.112.276.177.422.132.3.1.313.315.527a.8.8,0,0,0,1.1-.057A1.255,1.255,0,0,0,258.952,8l.884-3.1c.033-.1.045-.162.073-.258l.671-2.34c.057-.175.1-.341.146-.516a5.067,5.067,0,0,0,.252-1.033.778.778,0,0,0-.75-.748,6.265,6.265,0,0,0-1.284.346l-5.162,1.6c-.087.029-.165.046-.257.078s-.166.046-.257.078a1.952,1.952,0,0,0-.784.342.805.805,0,0,0-.018,1.091Z" transform="translate(-252.085 -0.007)" fill-rule="evenodd"/>
        <path id="Trazado_1013" data-name="Trazado 1013" d="M.633,6772.458l.719-.734c.373-.382-.119-.8-.429-.48l-.779.8c-.3.309.125.791.489.418Z" transform="translate(-0.041 -6766.35)" fill-rule="evenodd"/>
        <path id="Trazado_1014" data-name="Trazado 1014" d="M3994.218,10679.406l.779-.795c.311-.318-.116-.8-.489-.42l-.689.705C3993.39,10679.334,3993.933,10679.7,3994.218,10679.406Z" transform="translate(-3990.84 -10670.512)" fill-rule="evenodd"/>
        <path id="Trazado_1015" data-name="Trazado 1015" d="M2746.8,7961.679a.316.316,0,0,0,.5.01l.764-.78a.322.322,0,1,0-.459-.449l-.764.78A.324.324,0,0,0,2746.8,7961.679Z" transform="translate(-2744.79 -7954.723)" fill-rule="evenodd"/>
      </g>
    </g>
  </g>
</svg>
