<svg xmlns="http://www.w3.org/2000/svg" width="30.458" height="7.619" viewBox="0 0 30.458 7.619">
  <g id="Layer_x0020_1" transform="translate(30.458 13.463) rotate(180)">
    <g id="_2080263936576" transform="translate(0 5.844)">
      <path id="Trazado_1529" data-name="Trazado 1529" d="M0,14.149a.639.639,0,0,0,.711.72H19.7a.656.656,0,0,0,0-1.309H.711A.632.632,0,0,0,0,14.149Z" transform="translate(0 -12.307)" fill-rule="evenodd"/>
      <path id="Trazado_1530" data-name="Trazado 1530" d="M0,18.228a.633.633,0,0,0,.711.711H19.7a.656.656,0,0,0,0-1.309H.711a.639.639,0,0,0-.711.6Z" transform="translate(0 -12.572)" fill-rule="evenodd"/>
      <path id="Trazado_1533" data-name="Trazado 1533" d="M28.423,18.53a2.272,2.272,0,0,1-1.917-.7,2.519,2.519,0,0,1,1.44-4.3,2.379,2.379,0,0,1,2.1.757A2.509,2.509,0,0,1,28.423,18.53ZM24.44,15.791v.477a3.825,3.825,0,0,0,3.571,3.571h.477a3.817,3.817,0,0,0,3.562-3.571v-.477a3.817,3.817,0,0,0-3.562-3.571h-.477a3.825,3.825,0,0,0-3.571,3.571Z" transform="translate(-1.591 -12.22)" fill-rule="evenodd"/>
    </g>
  </g>
</svg>
