<svg id="eye-close-up" xmlns="http://www.w3.org/2000/svg" width="30.861" height="20.166" viewBox="0 0 30.861 20.166">
  <path id="Trazado_483" data-name="Trazado 483" d="M15.43,161.525a16.943,16.943,0,0,0-15.368,9.8.661.661,0,0,0,0,.56,16.948,16.948,0,0,0,30.737,0,.661.661,0,0,0,0-.56A16.943,16.943,0,0,0,15.43,161.525Zm0,17.04a6.956,6.956,0,1,1,6.956-6.956A6.955,6.955,0,0,1,15.43,178.565Z" transform="translate(0 -161.525)"/>
  <circle id="Elipse_2" data-name="Elipse 2" cx="4.453" cy="4.453" r="4.453" transform="translate(10.977 5.628)"/>
</svg>
