<svg xmlns="http://www.w3.org/2000/svg" xml:space="preserve" fill-rule="evenodd" clip-rule="evenodd" image-rendering="optimizeQuality" shape-rendering="geometricPrecision" text-rendering="geometricPrecision" viewBox="0 0 3199.74 3194.72" xmlns:xlink="http://www.w3.org/1999/xlink"><defs><linearGradient id="a" x1="3264.71" x2="-64.97" y1="1444.01" y2="395.19" gradientUnits="userSpaceOnUse"><stop offset="0" stop-color="#fff212"/><stop offset="1" stop-color="#ffcc29"/></linearGradient></defs><rect width="3199.74" height="3194.72" x="-.01" y="-.01" fill="url(#a)" rx="242.22" ry="208.86"/><path fill="#373435" d="M456.26 987.08v1391.01c0 69.56 78.99 148.45 148.44 148.45 76.87 0 81.01-5.73 144.52-53.42 31.62-23.73 266.83-205.63 290.97-214.85 40.01-15.28 1199.94-6.82 1345.92-6.63 69.2.08 91.31-3.45 142.24-22.7 73.04-27.62 143.63-93.78 178.6-162.28 17.35-33.97 36.53-85.38 36.53-133.92V987.08c0-85.84-45.87-164.09-100.34-218.56s-132.73-100.34-218.55-100.34H775.15c-117.93 0-235.47 89.53-286.05 192.31-15.11 30.68-32.84 80.77-32.84 126.59m127.98 1417.34v-1358c0-81.48 1.03-142.08 38.85-186.23 35.96-41.94 77.21-69.88 151.58-69.88h1650.4c114.51 0 190.43 78.35 190.43 196.56v941.08c0 249.49-264.77 196.53-432.79 196.53h-934.85c-319.64 0-261.37-28.47-483.89 143.82l-131.09 102.94c-14.87 11.52-31.77 28.54-48.63 33.18zm1031.65-608.1c-35.26 0-68.36-2.99-99.19-9.11s-61.16-15.36-91.03-27.83c-29.88-12.36-59.85-27.7-89.83-45.94-18.23-11.04-31.42-20.27-39.47-27.84-8.14-7.43-13.19-14.5-15.11-21.21-2.04-6.73-3.01-15.36-3.01-25.91 0-11.4 3.13-17.16 9.49-17.16 2.15 0 14.87 5.39 38.14 16.19 23.26 10.8 47.73 20.86 73.28 30.35 25.54 9.47 57.33 18.23 95.59 26.38 38.14 8.04 78.57 12.13 121.13 12.13 42.22 0 82.16-3.97 119.82-12.01 37.78-7.92 70.41-17.03 98.11-27.22 27.58-10.2 52.42-20.39 74.25-30.59 21.95-10.2 33.82-15.23 35.74-15.23 6.36 0 9.47 5.76 9.47 17.16 0 10.79-1.07 19.55-3.35 26.26-2.16 6.6-7.43 13.68-15.59 20.86-8.28 7.33-21.35 16.57-39.35 27.84-30.94 18.46-60.8 33.7-89.47 45.82-28.66 11.99-58.52 21.22-89.47 27.58-30.82 6.36-64.28 9.47-100.15 9.47zm435.56-403.71c6.65 0 12.95-1.78 18.43-5.17.91-.56 2.09-1.23 2.87-1.84 1.89-1.49 3.38-2.74 5.06-4.4 2.7-2.67 6.32-7.63 7.75-11.12 3.19-7.67 3.65-9.97 3.65-19.01 0-7.85-3.26-17.29-8.41-22.42-4.21-4.19-7.98-6.88-13.4-9.57l-5.35-2.52c-3.66-1.77-7.12-3.01-10.92-4.51l-28.27-10.42c-1.88-.62-3.86-1.5-5.74-2.12l-90.59-33.41 96.33-34.25c1.97-.74 3.8-1.38 5.82-2.05 10.99-3.64 33.96-11.67 44.05-17.64l4.57-2.96c2.71-2.01 1.99-1.61 3.97-3.89 2.55-2.91 4.25-5.66 5.62-9.79 1.37-4.11 2.17-8.8 2.32-13.55v-3.09c-.17-5.58-1.3-11.07-3.57-15.56-.58-1.15-.95-2.01-1.57-3.15-.6-1.13-1.19-1.81-1.85-2.87-2.05-3.31-1.53-2.11-3.13-4.11-.5-.6-.51-.74-1.13-1.38-10.22-10.63-23.02-14.5-37.73-10.8-12.06 3.02-30.27 10.63-41.79 15.47-10.53 4.43-22.1 8.68-32.78 13.17l-105.91 42.93c-2.79 1.14-5.53 2.23-8.14 3.5-1.26.62-2.51 1.1-3.96 1.7-1.38.58-2.55 1.17-3.9 1.76-8.09 3.6-11.22 5.46-17.71 10.92-3.82 3.22-7.96 8.21-10.29 12.68-2.27 4.35-3.49 7.43-4.41 12.89-2.68 15.71.78 31.8 12.2 43.2 5.72 5.7 13.31 10 20.74 13.56 2.74 1.31 5.38 2.2 8.18 3.46 7.5 3.37 24.87 10.06 32.74 13.2 11.08 4.4 21.77 8.76 32.78 13.17l106.14 42.69c7.78 3.14 18.66 7.28 27.33 7.28zm-741.38-123.35c-.66.9-9.83 3.54-11.12 3.97-4 1.33-7.67 2.46-11.65 3.78l-81.07 26.23c-3.96 1.09-7.69 2.7-11.63 3.78-8.36 2.27-19.94 6.79-28.11 10.29-6.01 2.56-11.43 6.52-15.24 11.81-1.44 2-2.99 5.53-3.82 7.84-1.29 3.58-2.04 7.71-2.24 11.95v4.52c.27 5.76 1.54 11.46 3.88 16.1 1.11 2.25 2.12 4.02 3.42 6.02 1.18 1.84 5.11 6.29 6.82 7.66 17.64 14.25 31.6 9.67 51.22 2.99l24.89-9.11c5.57-2.19 10.96-3.93 16.54-6.1 5.57-2.19 10.95-4.02 16.54-6.12 2.64-.98 5.54-2.04 8.22-3.1 2.74-1.09 5.45-1.95 8.28-3.06l41.32-15.31c7.5-2.54 16.98-6.43 24.79-9.2 11.98-4.29 29.17-10.76 40.8-15.84l14.81-7.84c1.07-.8 2.23-1.56 3.19-2.48l8.18-8.8 3.27-5.23c7.39-14.77 6.73-36.38-3.81-50.42-2.99-4-1.97-2.72-5.45-6.2-.68-.68-.75-.71-1.52-1.31l-11.91-8.22-31.57-14.38c-5.46-2.33-10.52-4.68-15.99-6.98l-136.29-59.43c-13.6-6.36-29.23-11.04-43.74-3.26-8.85 4.75-15.25 12.57-18.85 22.06-3.85 10.12-2.7 23.72 2.99 33.25 2.48 4.17 6.2 7.47 10.28 10.18 8.29 5.51 17.75 9.36 27.6 13.31 19.57 7.84 38.95 15.56 58.44 23.37l58.52 23.29z"/></svg>