<svg xmlns="http://www.w3.org/2000/svg" viewBox="0 0 56.059 57.462">
  <path d="M53.656 28.731a25.669 25.669 0 0 0-.84-6.528l3.243-2.386-6.3-10.9-3.694 1.618A25.44 25.44 0 0 0 34.769 4l-.445-4h-12.59l-.445 4a25.439 25.439 0 0 0-11.3 6.53L6.295 8.914l-6.3 10.9L3.243 22.2a25.784 25.784 0 0 0 0 13.055L0 37.645l6.3 10.9 3.689-1.615a25.438 25.438 0 0 0 11.3 6.53l.445 4h12.591l.445-4a25.438 25.438 0 0 0 11.3-6.53l3.694 1.618 6.3-10.9-3.243-2.386a25.669 25.669 0 0 0 .84-6.528ZM32.862 50.463l-1.176.26-.375 3.377h-6.562l-.375-3.372-1.176-.26a22.127 22.127 0 0 1-11.569-6.689l-.814-.886-3.111 1.363-3.282-5.684 2.73-2.008-.361-1.148a22.381 22.381 0 0 1 0-13.368l.358-1.148-2.73-2.008 3.282-5.684 3.111 1.363.814-.886A22.127 22.127 0 0 1 23.197 7l1.176-.26.376-3.373h6.563l.375 3.372L32.862 7a22.129 22.129 0 0 1 11.568 6.684l.814.886 3.111-1.363 3.282 5.684-2.731 2.009.361 1.148a22.381 22.381 0 0 1 0 13.368l-.361 1.148 2.73 2.008-3.282 5.684-3.105-1.364-.814.886a22.127 22.127 0 0 1-11.573 6.685Z"/>
  <path d="m21.346 24.877-2.405-2.356-6.157 6.287 6.287 6.157 2.356-2.406-3.882-3.8Z"/>
  <path d="m34.713 24.877 3.8 3.882-3.882 3.8 2.356 2.406 6.287-6.157-6.157-6.287Z"/>
  <path d="m24 39.749 4.788-22.756 3.297.694-4.789 22.756Z"/>
</svg>