<svg xmlns="http://www.w3.org/2000/svg" viewBox="0 0 276.001 117.421">
  <path  fill-rule="evenodd" d="M195.423 37.067h59.193a5.559 5.559 0 0 1 5.543 5.544v17.6a5.559 5.559 0 0 1-5.543 5.544h-59.193a5.559 5.559 0 0 1-5.543-5.544v-17.6a5.559 5.559 0 0 1 5.543-5.544Zm-21.172-3.248v37.482c0 6.17 7.234 11.845 14.109 11.845h5.762c-.029 1.158-2.98 11.651-2.98 12.656 0 .7 1.1 1.327 1.912 1.238a39.764 39.764 0 0 0 4.91-2l26.564-11.413c1.859-.777 3.994-.485 6.957-.485 9.8 0 19.611-.029 29.412 0 8.164.025 15.1-5.525 15.1-11.845V33.815c0-3.312-2.43-6.31-5.016-8.4-2.791-2.26-7.072-3.283-11.281-3.283h-69.555c-4.637 0-8.654 1.452-10.984 3.365-2.545 2.09-4.916 5.006-4.916 8.318Zm26.8 13.925h13.875a2.256 2.256 0 0 1 2.25 2.25v2.813a2.256 2.256 0 0 1-2.25 2.25h-13.875a2.258 2.258 0 0 1-2.252-2.25v-2.813a2.258 2.258 0 0 1 2.249-2.25Zm33.275 0h13.879a2.255 2.255 0 0 1 2.248 2.251v2.812a2.254 2.254 0 0 1-2.248 2.25h-13.879a2.257 2.257 0 0 1-2.25-2.25v-2.812a2.258 2.258 0 0 1 2.247-2.251Z" data-name="Trazado 10"/>
  <path  d="M.722 56.194h12.245v3.2a23.739 23.739 0 0 1 12.245-3.2 23.634 23.634 0 0 1 17.323 7.167c.376.376.71.731 1.045 1.107.313-.376.669-.731 1.045-1.107a24.518 24.518 0 0 1 34.646 0 23.666 23.666 0 0 1 7.167 17.323v36.736H74.194V80.684a12.2455 12.2455 0 1 0-24.491 0v36.736H37.458V80.684a12.271 12.271 0 0 0-12.245-12.246 12.236 12.236 0 0 0-12.245 12.246v36.736H.722V56.194Zm139.839 24.491a18.272 18.272 0 0 0-4.409-6.854 18.312 18.312 0 0 0-25.953 0 18.27 18.27 0 0 0-4.409 6.854Zm-3.739 18.369 10.908 6.123-2.884 3.239a30.6 30.6 0 1 1 8.944-21.607 32.4 32.4 0 0 1-.564 6.123h-47.437a18.116 18.116 0 0 0 4.409 6.854 18.313 18.313 0 0 0 25.953 0c.251-.251.46-.481.669-.731Z" data-name="Trazado 11"/>
  <path  d="M13.423 37.501c-5-1.728-8.315-3.142-9.964-4.255S.709 30.181.172 27.379a10.229 10.229 0 0 1 2.147-8.209q2.97-4.007 10.109-4.19a27.557 27.557 0 0 1 14.6 4.2l-3.5 6.521q-6.207-3.673-10.567-3.719t-4.91 2.71c-.367 1.82.668 3.313 3.129 4.452a58.2 58.2 0 0 0 7.883 2.946 15.788 15.788 0 0 1 6.1 3 7.852 7.852 0 0 1 2.265 5.12 11.907 11.907 0 0 1-.89 6.193 11.239 11.239 0 0 1-4.177 4.779 17.558 17.558 0 0 1-8.171 2.4q-5.244.432-14.023-3.666l3.457-6.56a36.086 36.086 0 0 0 10.449 3.064q4.164.393 5.512-2.972t-6.167-5.945Zm47.557-6.809a11.449 11.449 0 0 0-2.763-4.295 11.475 11.475 0 0 0-16.263 0 11.449 11.449 0 0 0-2.763 4.295H60.98Zm-2.344 11.51 6.835 3.836-1.807 2.03a18.521 18.521 0 0 1-13.575 5.643 19.184 19.184 0 0 1-13.568-32.748 18.5 18.5 0 0 1 13.568-5.617 19.179 19.179 0 0 1 19.183 19.183 20.28 20.28 0 0 1-.354 3.837H39.189a11.348 11.348 0 0 0 2.763 4.295 11.475 11.475 0 0 0 16.263 0c.157-.157.288-.3.419-.458Zm45.161-7.673a11.51 11.51 0 0 0-23.019 0v19.182h-7.673V15.346h7.673v3.8a19.256 19.256 0 0 1 25.075 1.82 18.518 18.518 0 0 1 5.617 13.565v19.182h-7.673V34.529Zm30.692-11.51a11.534 11.534 0 1 0 8.131 3.378 11.085 11.085 0 0 0-8.131-3.378Zm11.51 26.895a19.2 19.2 0 0 1-25.075-28.951 19.256 19.256 0 0 1 25.075-1.82V0h7.673v53.711h-7.673v-3.8Z" data-name="Trazado 12"/>
</svg>