<svg xmlns="http://www.w3.org/2000/svg" width="18.956" height="21.408" viewBox="0 0 18.956 21.408">
  <g id="Layer_x0020_1" transform="translate(0 0)">
    <path id="Trazado_992" data-name="Trazado 992" d="M16.109,8.244c0,1.163,1.437.113,1.688,1.691.063.4.019,9.416.019,9.694l-1.647-1.3a.952.952,0,0,0-.663-.333l-5.907,0c-1.25,0-2.817.3-3.109-.841a5.028,5.028,0,0,1-.057-.938.575.575,0,0,0-1.139,0,2.561,2.561,0,0,0,.685,2.268,2.153,2.153,0,0,0,1.52.65c2.528-.012,5.1.021,7.616,0,.319,0,.308.082.7.4l1.819,1.454c.359.28.423.427.818.427a.585.585,0,0,0,.5-.5V9.881a2.005,2.005,0,0,0-.218-.849,2.3,2.3,0,0,0-1.917-1.285h-.213a.585.585,0,0,0-.5.5ZM4.036,13.821c-.233,0-1.6.436-1.943.533-.308.087-.938.38-.973-.078a10.908,10.908,0,0,1,.307-1.138c.075-.261.14-.474.214-.734.322-1.117.229-.7-.173-1.61a6.988,6.988,0,0,1,.77-7.212A7.1,7.1,0,0,1,6.47.935l.72-.1a7.14,7.14,0,0,1,2.538.237,6.891,6.891,0,0,1,2.633,1.4c.083.077.13.1.215.183a6.845,6.845,0,0,1,2.014,3.276,5.555,5.555,0,0,1,.149.646,6.725,6.725,0,0,1,.04,2.242,6.662,6.662,0,0,1-.539,1.876,7.1,7.1,0,0,1-3.133,3.349,7.617,7.617,0,0,1-1.792.654,7.133,7.133,0,0,1-4.961-.762.513.513,0,0,0-.316-.112ZM0,7.736a7.813,7.813,0,0,0,.744,3.445c.224.483.305.389.209.686L.5,13.43C.338,14,.128,14.547.618,15.038s1.021.286,1.583.129l1.709-.5c.121-.027.261.091.5.211a8.014,8.014,0,0,0,3.17.774,7.637,7.637,0,0,0,3.537-.713,8.077,8.077,0,0,0,2.25-1.572,8.16,8.16,0,0,0,.862-1.034,7.672,7.672,0,0,0,1.424-4.294,7.7,7.7,0,0,0-1.041-4.126A7.882,7.882,0,0,0,11.162.734,7.7,7.7,0,0,0,8.1,0h-.55A7.827,7.827,0,0,0,0,7.736ZM5.9,6.88a3.254,3.254,0,0,0,.94,1.9,3.163,3.163,0,0,0,.823.614l.485.218c.729.29.8.076,1.107-.235.577-.577.522-.5.955-.176.125.093.239.18.363.279s.239.175.364.278c.232.192.535.268.056.9a1.456,1.456,0,0,1-1.066.586,4.826,4.826,0,0,1-.8-.04,5.28,5.28,0,0,1-1.31-.342c-.217-.086-.361-.163-.562-.263a1.973,1.973,0,0,1-.267-.162,7.334,7.334,0,0,1-.929-.723,1.523,1.523,0,0,1-.2-.224c-.069-.09-.123-.123-.192-.205L5.13,8.536c-.509-.806-1.105-2.768-.415-3.608A1.415,1.415,0,0,1,5.534,4.4c.164,0,.262.193.346.3l.558.726c.2.269.258.258.258.476,0,.151-.795.7-.795.978ZM3.608,5.626A5.954,5.954,0,0,0,4.189,8.5a6.8,6.8,0,0,0,2,2.375,7.526,7.526,0,0,0,.908.56,6.446,6.446,0,0,0,1.66.542,3,3,0,0,0,2.584-.488,2.482,2.482,0,0,0,.43-.518A1.21,1.21,0,0,0,11.7,9.333L11.14,8.89c-.365-.274-.875-.756-1.293-.756-.734,0-.852.5-1.253.764A2.592,2.592,0,0,1,6.758,7.064c.225-.336,1.272-.88.472-1.94L6.323,3.951a1.189,1.189,0,0,0-1.6-.082A2.251,2.251,0,0,0,3.608,5.626Z" fill-rule="evenodd"/>
  </g>
</svg>
