<svg xmlns="http://www.w3.org/2000/svg" width="17.233" height="16.594" viewBox="0 0 17.233 16.594">
  <g id="Layer_x0020_1" transform="translate(0.5 0.49)">
    <g id="_1769083549664" transform="translate(0 0.01)">
      <g id="Grupo_510" data-name="Grupo 510">
        <path id="Trazado_1487" data-name="Trazado 1487" d="M2.216,4.127a1.92,1.92,0,0,1-1.03-.259,2.026,2.026,0,0,1-.663-.627L.395,3.006a1.968,1.968,0,0,1,0-1.659,1.408,1.408,0,0,1,.079-.153,1.582,1.582,0,0,1,.2-.277A1.936,1.936,0,0,1,1.03.578a1.271,1.271,0,0,1,.142-.09c.054-.032.1-.054.158-.083A1.973,1.973,0,0,1,3.143.479L3.22.524a1.966,1.966,0,0,1,.9,1.578,1.932,1.932,0,0,1-.257,1.044,1.9,1.9,0,0,1-.2.284c-.023.027-.032.041-.054.065a2.19,2.19,0,0,1-.318.277,1.933,1.933,0,0,1-1.075.354ZM0,2.082A2.061,2.061,0,0,0,.205,3.1c.029.059.052.11.086.167L.449,3.5a2.133,2.133,0,0,0,.794.638,2.169,2.169,0,0,0,1.847,0c.059-.029.11-.052.167-.086a2.141,2.141,0,0,0,.87-.951,2.178,2.178,0,0,0-.3-2.32l-.192-.2C3.6.553,3.592.54,3.562.517A2.172,2.172,0,0,0,2.237.01a2.041,2.041,0,0,0-.994.205A2.119,2.119,0,0,0,.205,1.252,2.082,2.082,0,0,0,0,2.084Z" transform="translate(0 -0.01)" stroke="#000" stroke-width="1" fill-rule="evenodd"/>
        <path id="Trazado_1488" data-name="Trazado 1488" d="M28.5,4.127a1.92,1.92,0,0,1-1.03-.259,2.026,2.026,0,0,1-.663-.627l-.129-.234a1.968,1.968,0,0,1,0-1.659,1.408,1.408,0,0,1,.079-.153,1.582,1.582,0,0,1,.2-.277A1.936,1.936,0,0,1,27.31.578a1.271,1.271,0,0,1,.142-.09c.054-.032.1-.054.158-.083a1.973,1.973,0,0,1,1.813.074L29.5.524A1.966,1.966,0,0,1,30.4,2.1a1.932,1.932,0,0,1-.257,1.044,1.9,1.9,0,0,1-.2.284c-.023.027-.032.041-.054.065a2.19,2.19,0,0,1-.318.277,1.933,1.933,0,0,1-1.075.354ZM26.28,2.082A2.061,2.061,0,0,0,26.485,3.1c.029.059.052.11.086.167l.158.234a2.133,2.133,0,0,0,.794.638,2.169,2.169,0,0,0,1.847,0c.059-.029.11-.052.167-.086a2.141,2.141,0,0,0,.87-.951,2.179,2.179,0,0,0-.3-2.32l-.192-.2c-.034-.025-.041-.038-.07-.061A2.172,2.172,0,0,0,28.517.01a2.041,2.041,0,0,0-.994.205,2.119,2.119,0,0,0-1.037,1.037,2.082,2.082,0,0,0-.205.832Z" transform="translate(-20.355 -0.01)" stroke="#000" stroke-width="1" fill-rule="evenodd"/>
        <path id="Trazado_1489" data-name="Trazado 1489" d="M54.776,4.127a1.92,1.92,0,0,1-1.03-.259,2.026,2.026,0,0,1-.663-.627l-.129-.234a1.968,1.968,0,0,1,0-1.659,1.409,1.409,0,0,1,.079-.153,1.582,1.582,0,0,1,.2-.277A1.936,1.936,0,0,1,53.59.578a1.27,1.27,0,0,1,.142-.09c.054-.032.1-.054.158-.083A1.973,1.973,0,0,1,55.7.479l.077.045a1.966,1.966,0,0,1,.9,1.578,1.932,1.932,0,0,1-.257,1.044,1.9,1.9,0,0,1-.2.284c-.023.027-.032.041-.054.065a2.19,2.19,0,0,1-.318.277,1.933,1.933,0,0,1-1.075.354ZM52.56,2.082A2.061,2.061,0,0,0,52.765,3.1c.029.059.052.11.086.167l.158.234a2.133,2.133,0,0,0,.794.638,2.169,2.169,0,0,0,1.847,0c.059-.029.11-.052.167-.086a2.141,2.141,0,0,0,.87-.951,2.178,2.178,0,0,0-.3-2.32l-.192-.2c-.034-.025-.041-.038-.07-.061A2.172,2.172,0,0,0,54.8.01,2.041,2.041,0,0,0,53.8.215a2.119,2.119,0,0,0-1.037,1.037,2.082,2.082,0,0,0-.205.832Z" transform="translate(-40.71 -0.01)" stroke="#000" stroke-width="1" fill-rule="evenodd"/>
      </g>
      <g id="Grupo_511" data-name="Grupo 511" transform="translate(0 5.616)">
        <path id="Trazado_1490" data-name="Trazado 1490" d="M2.216,29.037a1.92,1.92,0,0,1-1.03-.259,2.026,2.026,0,0,1-.663-.627l-.129-.234a1.968,1.968,0,0,1,0-1.659A1.408,1.408,0,0,1,.469,26.1a1.582,1.582,0,0,1,.2-.277,1.936,1.936,0,0,1,.365-.338,1.27,1.27,0,0,1,.142-.09c.054-.032.1-.054.158-.083a1.973,1.973,0,0,1,1.813.074l.077.045a1.966,1.966,0,0,1,.9,1.578,1.932,1.932,0,0,1-.257,1.044,1.9,1.9,0,0,1-.2.284c-.023.027-.032.041-.054.065a2.19,2.19,0,0,1-.318.277,1.933,1.933,0,0,1-1.075.354ZM0,26.992a2.061,2.061,0,0,0,.205,1.015c.029.059.052.11.086.167l.158.234a2.133,2.133,0,0,0,.794.638,2.169,2.169,0,0,0,1.847,0c.059-.029.11-.052.167-.086a2.141,2.141,0,0,0,.87-.951,2.178,2.178,0,0,0-.3-2.32l-.192-.2c-.034-.025-.041-.038-.07-.061a2.172,2.172,0,0,0-1.326-.507,2.041,2.041,0,0,0-.994.205A2.119,2.119,0,0,0,.205,26.162,2.082,2.082,0,0,0,0,26.994Z" transform="translate(0 -24.92)" stroke="#000" stroke-width="1" fill-rule="evenodd"/>
        <path id="Trazado_1491" data-name="Trazado 1491" d="M28.5,29.037a1.92,1.92,0,0,1-1.03-.259,2.026,2.026,0,0,1-.663-.627l-.129-.234a1.968,1.968,0,0,1,0-1.659,1.408,1.408,0,0,1,.079-.153,1.582,1.582,0,0,1,.2-.277,1.936,1.936,0,0,1,.365-.338,1.27,1.27,0,0,1,.142-.09c.054-.032.1-.054.158-.083a1.973,1.973,0,0,1,1.813.074l.077.045a1.966,1.966,0,0,1,.9,1.578,1.932,1.932,0,0,1-.257,1.044,1.9,1.9,0,0,1-.2.284c-.023.027-.032.041-.054.065a2.19,2.19,0,0,1-.318.277,1.933,1.933,0,0,1-1.075.354ZM26.28,26.992a2.061,2.061,0,0,0,.205,1.015c.029.059.052.11.086.167l.158.234a2.133,2.133,0,0,0,.794.638,2.169,2.169,0,0,0,1.847,0c.059-.029.11-.052.167-.086a2.141,2.141,0,0,0,.87-.951,2.179,2.179,0,0,0-.3-2.32l-.192-.2c-.034-.025-.041-.038-.07-.061a2.172,2.172,0,0,0-1.326-.507,2.041,2.041,0,0,0-.994.205,2.119,2.119,0,0,0-1.037,1.037,2.082,2.082,0,0,0-.205.832Z" transform="translate(-20.355 -24.92)" stroke="#000" stroke-width="1" fill-rule="evenodd"/>
        <path id="Trazado_1492" data-name="Trazado 1492" d="M54.776,29.037a1.92,1.92,0,0,1-1.03-.259,2.026,2.026,0,0,1-.663-.627l-.129-.234a1.968,1.968,0,0,1,0-1.659,1.408,1.408,0,0,1,.079-.153,1.582,1.582,0,0,1,.2-.277,1.936,1.936,0,0,1,.365-.338,1.269,1.269,0,0,1,.142-.09c.054-.032.1-.054.158-.083a1.973,1.973,0,0,1,1.813.074l.077.045a1.966,1.966,0,0,1,.9,1.578,1.932,1.932,0,0,1-.257,1.044,1.9,1.9,0,0,1-.2.284c-.023.027-.032.041-.054.065a2.19,2.19,0,0,1-.318.277,1.933,1.933,0,0,1-1.075.354ZM52.56,26.992a2.061,2.061,0,0,0,.205,1.015c.029.059.052.11.086.167l.158.234a2.133,2.133,0,0,0,.794.638,2.169,2.169,0,0,0,1.847,0c.059-.029.11-.052.167-.086a2.141,2.141,0,0,0,.87-.951,2.178,2.178,0,0,0-.3-2.32l-.192-.2c-.034-.025-.041-.038-.07-.061A2.172,2.172,0,0,0,54.8,24.92a2.041,2.041,0,0,0-.994.205,2.119,2.119,0,0,0-1.037,1.037,2.082,2.082,0,0,0-.205.832Z" transform="translate(-40.71 -24.92)" stroke="#000" stroke-width="1" fill-rule="evenodd"/>
      </g>
      <g id="Grupo_512" data-name="Grupo 512" transform="translate(0 11.232)">
        <path id="Trazado_1493" data-name="Trazado 1493" d="M2.216,53.947a1.92,1.92,0,0,1-1.03-.259,2.026,2.026,0,0,1-.663-.627l-.129-.234a1.968,1.968,0,0,1,0-1.659,1.408,1.408,0,0,1,.079-.153,1.582,1.582,0,0,1,.2-.277A1.936,1.936,0,0,1,1.03,50.4a1.27,1.27,0,0,1,.142-.09c.054-.032.1-.054.158-.083a1.973,1.973,0,0,1,1.813.074l.077.045a1.966,1.966,0,0,1,.9,1.578,1.932,1.932,0,0,1-.257,1.044,1.9,1.9,0,0,1-.2.284c-.023.027-.032.041-.054.065a2.19,2.19,0,0,1-.318.277,1.933,1.933,0,0,1-1.075.354ZM0,51.9a2.061,2.061,0,0,0,.205,1.015c.029.059.052.11.086.167l.158.234a2.133,2.133,0,0,0,.794.638,2.169,2.169,0,0,0,1.847,0c.059-.029.11-.052.167-.086a2.141,2.141,0,0,0,.87-.951,2.179,2.179,0,0,0-.3-2.32l-.192-.2c-.034-.025-.041-.038-.07-.061a2.172,2.172,0,0,0-1.326-.507,2.041,2.041,0,0,0-.994.205A2.119,2.119,0,0,0,.205,51.072,2.082,2.082,0,0,0,0,51.9Z" transform="translate(0 -49.83)" stroke="#000" stroke-width="1" fill-rule="evenodd"/>
        <path id="Trazado_1494" data-name="Trazado 1494" d="M28.5,53.947a1.92,1.92,0,0,1-1.03-.259,2.026,2.026,0,0,1-.663-.627l-.129-.234a1.968,1.968,0,0,1,0-1.659,1.408,1.408,0,0,1,.079-.153,1.582,1.582,0,0,1,.2-.277,1.936,1.936,0,0,1,.365-.338,1.27,1.27,0,0,1,.142-.09c.054-.032.1-.054.158-.083a1.973,1.973,0,0,1,1.813.074l.077.045a1.966,1.966,0,0,1,.9,1.578,1.932,1.932,0,0,1-.257,1.044,1.9,1.9,0,0,1-.2.284c-.023.027-.032.041-.054.065a2.19,2.19,0,0,1-.318.277,1.933,1.933,0,0,1-1.075.354ZM26.28,51.9a2.061,2.061,0,0,0,.205,1.015c.029.059.052.11.086.167l.158.234a2.133,2.133,0,0,0,.794.638,2.169,2.169,0,0,0,1.847,0c.059-.029.11-.052.167-.086a2.141,2.141,0,0,0,.87-.951,2.179,2.179,0,0,0-.3-2.32l-.192-.2c-.034-.025-.041-.038-.07-.061a2.172,2.172,0,0,0-1.326-.507,2.041,2.041,0,0,0-.994.205,2.119,2.119,0,0,0-1.037,1.037,2.082,2.082,0,0,0-.205.832Z" transform="translate(-20.355 -49.83)" stroke="#000" stroke-width="1" fill-rule="evenodd"/>
        <path id="Trazado_1495" data-name="Trazado 1495" d="M54.776,53.947a1.92,1.92,0,0,1-1.03-.259,2.026,2.026,0,0,1-.663-.627l-.129-.234a1.968,1.968,0,0,1,0-1.659,1.409,1.409,0,0,1,.079-.153,1.582,1.582,0,0,1,.2-.277,1.936,1.936,0,0,1,.365-.338,1.269,1.269,0,0,1,.142-.09c.054-.032.1-.054.158-.083A1.973,1.973,0,0,1,55.7,50.3l.077.045a1.966,1.966,0,0,1,.9,1.578,1.932,1.932,0,0,1-.257,1.044,1.9,1.9,0,0,1-.2.284c-.023.027-.032.041-.054.065a2.19,2.19,0,0,1-.318.277,1.933,1.933,0,0,1-1.075.354ZM52.56,51.9a2.061,2.061,0,0,0,.205,1.015c.029.059.052.11.086.167l.158.234a2.133,2.133,0,0,0,.794.638,2.169,2.169,0,0,0,1.847,0c.059-.029.11-.052.167-.086a2.141,2.141,0,0,0,.87-.951,2.178,2.178,0,0,0-.3-2.32l-.192-.2c-.034-.025-.041-.038-.07-.061A2.172,2.172,0,0,0,54.8,49.83a2.041,2.041,0,0,0-.994.205,2.119,2.119,0,0,0-1.037,1.037,2.082,2.082,0,0,0-.205.832Z" transform="translate(-40.71 -49.83)" stroke="#000" stroke-width="1" fill-rule="evenodd"/>
      </g>
    </g>
  </g>
</svg>
