<svg xmlns="http://www.w3.org/2000/svg" viewBox="0 0 17.233 16.594"><g fill-rule="evenodd" stroke="currentColor"><g data-name="Grupo 510"><path d="M2.716 4.617a1.92 1.92 0 0 1-1.03-.259 2.026 2.026 0 0 1-.663-.627l-.128-.235a1.968 1.968 0 0 1 0-1.659 1.408 1.408 0 0 1 .079-.153 1.582 1.582 0 0 1 .2-.277 1.936 1.936 0 0 1 .356-.339 1.271 1.271 0 0 1 .142-.09c.054-.032.1-.054.158-.083a1.973 1.973 0 0 1 1.813.074l.077.045a1.966 1.966 0 0 1 .9 1.578 1.932 1.932 0 0 1-.257 1.044 1.9 1.9 0 0 1-.2.284c-.023.027-.032.041-.054.065a2.19 2.19 0 0 1-.318.277 1.933 1.933 0 0 1-1.075.354ZM.5 2.572A2.061 2.061 0 0 0 .705 3.59c.029.059.052.11.086.167l.158.233a2.133 2.133 0 0 0 .794.638 2.169 2.169 0 0 0 1.847 0c.059-.029.11-.052.167-.086a2.141 2.141 0 0 0 .87-.951 2.178 2.178 0 0 0-.3-2.32l-.192-.2c-.035-.028-.043-.041-.073-.064A2.172 2.172 0 0 0 2.737.5a2.041 2.041 0 0 0-.994.205A2.119 2.119 0 0 0 .705 1.742a2.082 2.082 0 0 0-.205.832Z" data-name="Trazado 1487"/><path d="M8.645 4.617a1.92 1.92 0 0 1-1.03-.259 2.026 2.026 0 0 1-.663-.627l-.129-.234a1.968 1.968 0 0 1 0-1.659 1.408 1.408 0 0 1 .079-.153 1.582 1.582 0 0 1 .2-.277 1.936 1.936 0 0 1 .353-.34 1.271 1.271 0 0 1 .142-.09c.054-.032.1-.054.158-.083a1.973 1.973 0 0 1 1.813.074l.077.045a1.966 1.966 0 0 1 .9 1.576 1.932 1.932 0 0 1-.257 1.044 1.9 1.9 0 0 1-.2.284c-.023.027-.032.041-.054.065a2.19 2.19 0 0 1-.318.277 1.933 1.933 0 0 1-1.075.354Zm-2.22-2.045A2.061 2.061 0 0 0 6.63 3.59c.029.059.052.11.086.167l.158.234a2.133 2.133 0 0 0 .794.638 2.169 2.169 0 0 0 1.847 0c.059-.029.11-.052.167-.086a2.141 2.141 0 0 0 .87-.951 2.179 2.179 0 0 0-.3-2.32l-.192-.2c-.034-.025-.041-.038-.07-.061A2.172 2.172 0 0 0 8.662.5a2.041 2.041 0 0 0-.994.205 2.119 2.119 0 0 0-1.037 1.037 2.082 2.082 0 0 0-.205.832Z" data-name="Trazado 1488"/><path d="M14.566 4.617a1.92 1.92 0 0 1-1.03-.259 2.026 2.026 0 0 1-.663-.627l-.129-.234a1.968 1.968 0 0 1 0-1.659 1.409 1.409 0 0 1 .079-.153 1.582 1.582 0 0 1 .2-.277 1.936 1.936 0 0 1 .357-.34 1.27 1.27 0 0 1 .142-.09c.054-.032.1-.054.158-.083a1.973 1.973 0 0 1 1.81.074l.077.045a1.966 1.966 0 0 1 .9 1.578 1.932 1.932 0 0 1-.257 1.044 1.9 1.9 0 0 1-.2.284c-.023.027-.032.041-.054.065a2.19 2.19 0 0 1-.318.277 1.933 1.933 0 0 1-1.075.354ZM12.35 2.572a2.061 2.061 0 0 0 .205 1.018c.029.059.052.11.086.167l.158.234a2.133 2.133 0 0 0 .794.638 2.169 2.169 0 0 0 1.847 0c.059-.029.11-.052.167-.086a2.141 2.141 0 0 0 .87-.951 2.178 2.178 0 0 0-.3-2.32l-.192-.2c-.034-.025-.041-.038-.07-.061A2.172 2.172 0 0 0 14.59.5a2.041 2.041 0 0 0-1 .205 2.119 2.119 0 0 0-1.037 1.037 2.082 2.082 0 0 0-.205.832Z" data-name="Trazado 1489"/></g><g data-name="Grupo 511"><path d="M2.716 10.233a1.92 1.92 0 0 1-1.03-.259 2.026 2.026 0 0 1-.663-.627l-.129-.234a1.968 1.968 0 0 1 0-1.659 1.408 1.408 0 0 1 .075-.158 1.582 1.582 0 0 1 .2-.277 1.936 1.936 0 0 1 .365-.338 1.27 1.27 0 0 1 .142-.09c.054-.032.1-.054.158-.083a1.973 1.973 0 0 1 1.813.074l.077.045a1.966 1.966 0 0 1 .9 1.578 1.932 1.932 0 0 1-.257 1.044 1.9 1.9 0 0 1-.2.284c-.023.027-.032.041-.054.065a2.19 2.19 0 0 1-.318.277 1.933 1.933 0 0 1-1.075.354ZM.5 8.188a2.061 2.061 0 0 0 .205 1.015c.029.059.052.11.086.167l.158.234a2.133 2.133 0 0 0 .794.638 2.169 2.169 0 0 0 1.847 0c.059-.029.11-.052.167-.086a2.141 2.141 0 0 0 .87-.951 2.178 2.178 0 0 0-.3-2.32l-.192-.2c-.034-.025-.041-.038-.07-.061a2.172 2.172 0 0 0-1.326-.507 2.041 2.041 0 0 0-.994.205 2.119 2.119 0 0 0-1.04 1.036A2.082 2.082 0 0 0 .5 8.19Z" data-name="Trazado 1490"/><path d="M8.645 10.233a1.92 1.92 0 0 1-1.03-.259 2.026 2.026 0 0 1-.663-.627l-.129-.234a1.968 1.968 0 0 1 0-1.659 1.408 1.408 0 0 1 .079-.153 1.582 1.582 0 0 1 .2-.277 1.936 1.936 0 0 1 .365-.338 1.27 1.27 0 0 1 .142-.09c.054-.032.1-.054.158-.083a1.973 1.973 0 0 1 1.813.074l.077.045a1.966 1.966 0 0 1 .9 1.578 1.932 1.932 0 0 1-.257 1.044 1.9 1.9 0 0 1-.2.284c-.023.027-.032.041-.054.065a2.19 2.19 0 0 1-.318.277 1.933 1.933 0 0 1-1.075.354Zm-2.22-2.045a2.061 2.061 0 0 0 .205 1.015c.029.059.052.11.086.167l.158.234a2.133 2.133 0 0 0 .794.638 2.169 2.169 0 0 0 1.847 0c.059-.029.11-.052.167-.086a2.141 2.141 0 0 0 .87-.951 2.179 2.179 0 0 0-.3-2.32l-.192-.2c-.034-.025-.041-.038-.07-.061a2.172 2.172 0 0 0-1.326-.507 2.041 2.041 0 0 0-.994.205 2.119 2.119 0 0 0-1.037 1.037 2.082 2.082 0 0 0-.205.832Z" data-name="Trazado 1491"/><path d="M14.566 10.233a1.92 1.92 0 0 1-1.03-.259 2.026 2.026 0 0 1-.663-.627l-.129-.234a1.968 1.968 0 0 1 0-1.659 1.408 1.408 0 0 1 .079-.153 1.582 1.582 0 0 1 .2-.277 1.936 1.936 0 0 1 .365-.338 1.269 1.269 0 0 1 .142-.09c.054-.032.1-.054.158-.083a1.973 1.973 0 0 1 1.813.074l.077.045a1.966 1.966 0 0 1 .9 1.578 1.932 1.932 0 0 1-.257 1.044 1.9 1.9 0 0 1-.2.284c-.023.027-.032.041-.054.065a2.19 2.19 0 0 1-.318.277 1.933 1.933 0 0 1-1.075.354ZM12.35 8.188a2.061 2.061 0 0 0 .205 1.015c.029.059.052.11.086.167l.158.234a2.133 2.133 0 0 0 .794.638 2.169 2.169 0 0 0 1.847 0c.059-.029.11-.052.167-.086a2.141 2.141 0 0 0 .87-.951 2.178 2.178 0 0 0-.3-2.32l-.192-.2c-.034-.025-.041-.038-.07-.061a2.172 2.172 0 0 0-1.325-.508 2.041 2.041 0 0 0-.994.205 2.119 2.119 0 0 0-1.037 1.037 2.082 2.082 0 0 0-.205.832Z" data-name="Trazado 1492"/></g><g data-name="Grupo 512"><path d="M2.716 15.849a1.92 1.92 0 0 1-1.03-.259 2.026 2.026 0 0 1-.663-.627l-.129-.234a1.968 1.968 0 0 1 0-1.659 1.408 1.408 0 0 1 .079-.153 1.582 1.582 0 0 1 .2-.277 1.936 1.936 0 0 1 .357-.338 1.27 1.27 0 0 1 .142-.09c.054-.032.1-.054.158-.083a1.973 1.973 0 0 1 1.813.074l.077.045a1.966 1.966 0 0 1 .9 1.578 1.932 1.932 0 0 1-.257 1.044 1.9 1.9 0 0 1-.2.284c-.023.027-.032.041-.054.065a2.19 2.19 0 0 1-.318.277 1.933 1.933 0 0 1-1.075.354ZM.5 13.802a2.061 2.061 0 0 0 .205 1.015c.029.059.052.11.086.167l.158.234a2.133 2.133 0 0 0 .794.638 2.169 2.169 0 0 0 1.847 0c.059-.029.11-.052.167-.086a2.141 2.141 0 0 0 .87-.951 2.179 2.179 0 0 0-.3-2.32l-.192-.2c-.034-.025-.041-.038-.07-.061a2.172 2.172 0 0 0-1.326-.507 2.041 2.041 0 0 0-.994.205 2.119 2.119 0 0 0-1.04 1.038 2.082 2.082 0 0 0-.205.828Z" data-name="Trazado 1493"/><path d="M8.645 15.849a1.92 1.92 0 0 1-1.03-.259 2.026 2.026 0 0 1-.663-.627l-.129-.234a1.968 1.968 0 0 1 0-1.659 1.408 1.408 0 0 1 .079-.153 1.582 1.582 0 0 1 .2-.277 1.936 1.936 0 0 1 .365-.338 1.27 1.27 0 0 1 .142-.09c.054-.032.1-.054.158-.083a1.973 1.973 0 0 1 1.813.074l.077.045a1.966 1.966 0 0 1 .9 1.578 1.932 1.932 0 0 1-.257 1.044 1.9 1.9 0 0 1-.2.284c-.023.027-.032.041-.054.065a2.19 2.19 0 0 1-.318.277 1.933 1.933 0 0 1-1.075.354Zm-2.22-2.047a2.061 2.061 0 0 0 .205 1.015c.029.059.052.11.086.167l.158.234a2.133 2.133 0 0 0 .794.638 2.169 2.169 0 0 0 1.847 0c.059-.029.11-.052.167-.086a2.141 2.141 0 0 0 .87-.951 2.179 2.179 0 0 0-.3-2.32l-.192-.2c-.034-.025-.041-.038-.07-.061a2.172 2.172 0 0 0-1.326-.507 2.041 2.041 0 0 0-.994.205 2.119 2.119 0 0 0-1.037 1.037 2.082 2.082 0 0 0-.205.832Z" data-name="Trazado 1494"/><path d="M14.566 15.849a1.92 1.92 0 0 1-1.03-.259 2.026 2.026 0 0 1-.663-.627l-.129-.234a1.968 1.968 0 0 1 0-1.659 1.409 1.409 0 0 1 .079-.153 1.582 1.582 0 0 1 .2-.277 1.936 1.936 0 0 1 .365-.338 1.269 1.269 0 0 1 .142-.09c.054-.032.1-.054.158-.083a1.973 1.973 0 0 1 1.802.073l.077.045a1.966 1.966 0 0 1 .9 1.578 1.932 1.932 0 0 1-.257 1.044 1.9 1.9 0 0 1-.2.284c-.023.027-.032.041-.054.065a2.19 2.19 0 0 1-.318.277 1.933 1.933 0 0 1-1.075.354Zm-2.216-2.047a2.061 2.061 0 0 0 .205 1.015c.029.059.052.11.086.167l.158.234a2.133 2.133 0 0 0 .794.638 2.169 2.169 0 0 0 1.847 0c.059-.029.11-.052.167-.086a2.141 2.141 0 0 0 .87-.951 2.178 2.178 0 0 0-.3-2.32l-.192-.2c-.034-.025-.041-.038-.07-.061a2.172 2.172 0 0 0-1.325-.506 2.041 2.041 0 0 0-.994.205 2.119 2.119 0 0 0-1.037 1.037 2.082 2.082 0 0 0-.205.832Z" data-name="Trazado 1495"/></g></g></svg>