<svg xmlns="http://www.w3.org/2000/svg" viewBox="0 0 13.947 23.211">
  <g data-name="Grupo 316">
    <path d="M11.122 0h-8.3A3.009 3.009 0 0 0 .001 3.159v16.893a3.009 3.009 0 0 0 2.825 3.159h8.3a3.009 3.009 0 0 0 2.825-3.159V3.159A3.009 3.009 0 0 0 11.122 0ZM8.344 1.375v.442a.159.159 0 0 1-.149.167H5.632a.159.159 0 0 1-.149-.167v-.442Zm4.387 18.677a1.714 1.714 0 0 1-1.609 1.8h-8.3a1.714 1.714 0 0 1-1.609-1.8V3.159a1.714 1.714 0 0 1 1.609-1.8h1.445v.457a1.455 1.455 0 0 0 1.365 1.528h2.563A1.455 1.455 0 0 0 9.56 1.817V1.36h1.562a1.714 1.714 0 0 1 1.609 1.8Zm0 0" data-name="Trazado 232"/>
    <path d="M8.821 19.603H5.169a.68.68 0 0 0 0 1.36h3.652a.68.68 0 1 0 0-1.36Zm0 0" data-name="Trazado 233"/>
  </g>
</svg>