<svg xmlns="http://www.w3.org/2000/svg" width="14.515" height="13.797" viewBox="0 0 14.515 13.797">
  <g id="loupe" transform="translate(0 -0.003)">
    <g id="Grupo_75" data-name="Grupo 75" transform="translate(0 0.003)">
      <path id="Trazado_49" data-name="Trazado 49" d="M14.337,12.818,10.21,8.895a5.272,5.272,0,0,0,1.281-3.431A5.615,5.615,0,0,0,5.745,0,5.615,5.615,0,0,0,0,5.464a5.615,5.615,0,0,0,5.745,5.461A5.9,5.9,0,0,0,9.355,9.708l4.128,3.923a.627.627,0,0,0,.855,0A.554.554,0,0,0,14.337,12.818ZM5.745,9.776A4.433,4.433,0,0,1,1.21,5.464,4.433,4.433,0,0,1,5.745,1.153a4.433,4.433,0,0,1,4.536,4.311A4.433,4.433,0,0,1,5.745,9.776Z" transform="translate(0 -0.003)"/>
    </g>
  </g>
</svg>
