<svg id="_2690114588176" xmlns="http://www.w3.org/2000/svg" width="14.352" height="14.523" viewBox="0 0 14.352 14.523">
  <path id="Trazado_901" data-name="Trazado 901" d="M17.181,6.1c-.138-.135-.059-.286.045-.391a6.806,6.806,0,0,1,1.1-.376l1.851-.576c1-.294,1.95-.612,2.947-.9l.731-.236c.742-.252,1.81-.539,2.582-.792.128-.042.23-.083.365-.117l1.827-.563c.318-.086.282-.138.489.064.112.11-.083.607-.131.759-.081.257-.128.5-.211.76-.193.6-.37,1.362-.55,1.912-.047.143-.068.247-.11.392l-.331,1.128c-.245.776-.518,1.937-.768,2.7-.085.259-.142.5-.212.76s-.958,3.4-1.023,3.478a.319.319,0,0,1-.372.057c-.159-.156-2.075-4.922-2.256-5.205.548-.56,1.618-1.607,2.1-2.149a.521.521,0,1,0-.742-.727c-.514.481-1.568,1.6-2.1,2.15l-1.3-.527c-.445-.186-.869-.339-1.3-.52-.3-.125-2.553-1-2.626-1.071Zm-.75.668c.351.343.368.283.836.48l1.375.551c.462.183,3.431,1.347,3.51,1.425s1.05,2.431,1.192,2.749l.591,1.387c.1.239.181.446.286.681.213.477.156.5.508.85a1.283,1.283,0,0,0,1.783-.093,2.024,2.024,0,0,0,.383-.835l1.427-5c.053-.163.073-.262.118-.417l1.083-3.775c.092-.282.154-.55.235-.833a8.176,8.176,0,0,0,.406-1.666A1.256,1.256,0,0,0,28.955,1.06a10.106,10.106,0,0,0-2.071.558L18.554,4.2c-.14.046-.267.075-.414.126s-.268.075-.414.126a3.15,3.15,0,0,0-1.265.552,1.3,1.3,0,0,0-.03,1.76Z" transform="translate(-15.815 -1.059)" fill-rule="evenodd"/>
  <path id="Trazado_902" data-name="Trazado 902" d="M.953,435.693l1.16-1.186c.6-.616-.192-1.286-.693-.774L.164,435.018C-.324,435.516.366,436.293.953,435.693Z" transform="translate(0.001 -425.836)" fill-rule="evenodd"/>
  <path id="Trazado_903" data-name="Trazado 903" d="M255.968,685.285,257.225,684c.5-.512-.187-1.291-.789-.676l-1.112,1.136c-.691.706.184,1.294.644.824Z" transform="translate(-250.518 -670.931)" fill-rule="evenodd"/>
  <path id="Trazado_904" data-name="Trazado 904" d="M175.545,511.667a.51.51,0,0,0,.807.016l1.233-1.26a.52.52,0,1,0-.741-.725l-1.233,1.26a.522.522,0,0,0-.066.709Z" transform="translate(-172.303 -500.442)" fill-rule="evenodd"/>
</svg>
