<svg xmlns="http://www.w3.org/2000/svg" width="45.359" height="36.854" viewBox="0 0 45.359 36.854">
  <g id="Layer_x0020_1" transform="translate(0.011 0.01)">
    <path id="Trazado_1775" data-name="Trazado 1775" d="M3.479,33.028V8.168c0-1.491.019-2.6.734-3.409A3.456,3.456,0,0,1,7.077,3.48H38.261a3.394,3.394,0,0,1,3.6,3.6V24.305c0,4.567-5,3.6-8.178,3.6H16.018c-6.039,0-4.939-.521-9.143,2.633L4.4,32.421a3.239,3.239,0,0,1-.919.608ZM-.011,6.315V33.9a3.329,3.329,0,0,0,2.944,2.944c1.524,0,1.606-.114,2.866-1.059.627-.471,5.292-4.078,5.77-4.261.793-.3,23.8-.135,26.691-.131a6.287,6.287,0,0,0,2.821-.45,7.1,7.1,0,0,0,3.542-3.218,6.254,6.254,0,0,0,.724-2.656V6.315a6.339,6.339,0,0,0-1.99-4.334A6.339,6.339,0,0,0,39.024-.01H6.314A6.848,6.848,0,0,0,.641,3.8a6.183,6.183,0,0,0-.652,2.51Zm27.8,9.486c0,2.6,3.489,2.133,3.489.327v-.545c0-1.843-3.489-2.19-3.489.218Zm-13.738-.218v.545c0,1.805,3.489,2.274,3.489-.327,0-2.384-3.489-2.077-3.489-.218Zm6.978,0v.545c0,1.805,3.489,2.274,3.489-.327,0-2.384-3.489-2.077-3.489-.218Z" transform="translate(0 0)" fill-rule="evenodd"/>
  </g>
</svg>
