<svg xmlns="http://www.w3.org/2000/svg" viewBox="0 0 28.5 28.499">
  <g fill-rule="evenodd">
    <path d="M8.628 14.472a8.266 8.266 0 0 1 .118-1.274 5.581 5.581 0 0 1 .8-1.987l.63-.817a5.888 5.888 0 0 1 1.61-1.173 5.632 5.632 0 0 1 3.519-.475 5.51 5.51 0 0 1 2.408 1.1 5.3 5.3 0 0 1 1.57 1.937 5.6 5.6 0 0 1 .157 4.593 5.413 5.413 0 0 1-.78 1.335c-.11.137-.2.27-.327.4a5.627 5.627 0 0 1-3.872 1.752 5.936 5.936 0 0 1-1.258-.1 5.359 5.359 0 0 1-1.073-.319 5.561 5.561 0 0 1-3.441-4.63 1.185 1.185 0 0 0-.057-.333Zm-1.948-.557a7.209 7.209 0 0 0 .723 3.563 7.412 7.412 0 0 0 3.618 3.618 7.573 7.573 0 0 0 9.424-11.2 9.066 9.066 0 0 0-.837-1 7.646 7.646 0 0 0-5.024-2.213 7.209 7.209 0 0 0-3.563.723 7.078 7.078 0 0 0-1.13.652 7.408 7.408 0 0 0-2.489 2.966 7.32 7.32 0 0 0-.723 2.895Z"/>
    <path d="M13.248 1.002v2.616a1.007 1.007 0 1 0 2 0v-2.5A1 1 0 0 0 14.333 0h-.139a.983.983 0 0 0-.946 1Z" />
    <path d="M13.248 24.885v2.616a.983.983 0 0 0 .945 1h.141a1 1 0 0 0 .918-1.113v-2.5a1.007 1.007 0 1 0-2 0Z" />
    <path d="M0 14.194a1 1 0 0 0 1.113 1.054h2.5a1.125 1.125 0 0 0 .789-.268 1 1 0 0 0 0-1.467 1.125 1.125 0 0 0-.789-.268h-2.5A1 1 0 0 0 0 14.194Z" />
    <path d="M3.896 23.49a1 1 0 0 0 .236.821 1.042 1.042 0 0 0 .877.292c.442 0 1.28-.973 1.572-1.266.428-.428 1.211-.989 1.211-1.684a.962.962 0 0 0-1-.946c-.619 0-1.269.851-1.628 1.211-.3.3-1.266 1.119-1.266 1.572Z" />
    <path d="M20.707 21.652c0 .7.782 1.255 1.211 1.684.74.74 1.018 1.266 1.851 1.266a.943.943 0 0 0 .835-.835c0-.833-.526-1.111-1.266-1.851-.428-.428-.989-1.211-1.684-1.211a.964.964 0 0 0-.947.947Z" />
    <path d="M23.769 14.25a1.056 1.056 0 0 0 .324.733 1.125 1.125 0 0 0 .789.268h2.5a1.211 1.211 0 0 0 .766-.236 1 1 0 0 0 .347-.668v-.208a1.014 1.014 0 0 0-1.113-.892h-2.5a1.021 1.021 0 0 0-1.113 1Z" />
    <path d="M3.896 4.731c0 .821.528 1.112 1.266 1.851.428.428.989 1.211 1.684 1.211a.962.962 0 0 0 .946-1c0-.619-.851-1.269-1.211-1.628-.74-.74-1.018-1.266-1.851-1.266a.943.943 0 0 0-.835.835Z" />
    <path d="M20.707 6.79a.96.96 0 0 0 1 1c.619 0 1.269-.851 1.628-1.211.738-.738 1.266-1.03 1.266-1.851a.943.943 0 0 0-.835-.835c-.833 0-1.111.527-1.851 1.266-.49.49-1.211 1.048-1.211 1.628Z" />
  </g>
</svg>