<svg xmlns="http://www.w3.org/2000/svg" width="13.535" height="13.534" viewBox="0 0 13.535 13.534">
  <g id="Capa_x0020_1" transform="translate(0.012 -0.008)">
    <path id="Trazado_936" data-name="Trazado 936" d="M.9,12.106V11.74H12.61c0,.4.068.9-.535.9H1.436A.482.482,0,0,1,.9,12.106Zm.113-4.447a.4.4,0,0,1,.16-.318.5.5,0,0,1,.346-.1H11.991a.5.5,0,0,1,.346.1c.27.238.149.653.1,1.13l-.249,2.369H1.323l-.084-.788c-.016-.258-.061-.541-.082-.791-.041-.494-.143-1.154-.143-1.6Zm5.63-2.224a2.754,2.754,0,0,0,1.47-.36c.347-.218.227-.224.633,0a3.947,3.947,0,0,1,1.36,1.258h-6.7A3.934,3.934,0,0,1,4.747,5.087c.4-.219.308-.24.617-.035a1.44,1.44,0,0,0,.218.12,2.828,2.828,0,0,0,1.06.262Zm.141-.9A1.925,1.925,0,0,1,5.5,4.02a2.022,2.022,0,0,1-.543-1.287A1.8,1.8,0,0,1,7.469,1.09a1.852,1.852,0,0,1,.292.158l.253.2a2.013,2.013,0,0,1,.365.536A1.8,1.8,0,0,1,7.8,4.2a2.083,2.083,0,0,1-.291.159,1.292,1.292,0,0,1-.33.12,2.78,2.78,0,0,1-.393.058Zm-2.758-1.8a2.738,2.738,0,0,0,.133.824c.087.244.279.6.289.639A5.029,5.029,0,0,0,2.533,6c-.074.111-.123.227-.2.338C1.513,6.336.78,6.2.3,6.974A1.966,1.966,0,0,0,.161,8.455l.233,2.385a.362.362,0,0,0-.266.128A.447.447,0,0,0,0,11.233c0,.835-.167,1.729.75,2.178a1.265,1.265,0,0,0,.489.13H12.273a1.265,1.265,0,0,0,.489-.13c.916-.449.75-1.343.75-2.178a.442.442,0,0,0-.394-.394c0-.5.31-2.6.31-3.181a1.376,1.376,0,0,0-1.35-1.324c-.3,0-.6,0-.9,0A5.18,5.18,0,0,0,10.267,5.1,5.086,5.086,0,0,0,9.036,4.2a3.313,3.313,0,0,0,.393-1.183A2.708,2.708,0,0,0,4.347,1.45a2.733,2.733,0,0,0-.321,1.283Z" transform="translate(0 0)" fill-rule="evenodd"/>
  </g>
</svg>
